<?xml version="1.0" standalone="no"?>
<!DOCTYPE svg PUBLIC "-//W3C//DTD SVG 1.1//EN" "http://www.w3.org/Graphics/SVG/1.1/DTD/svg11.dtd" >
<svg xmlns="http://www.w3.org/2000/svg" xmlns:xlink="http://www.w3.org/1999/xlink" version="1.1">
<metadata>
Created by FontForge 20170731 at Sun Jan 14 20:55:53 2018
 By Aleksey,,,
Copyright (c) 1981, 1982, 1983, 1989 and 1993, Linotype Library GmbH or its affiliated Linotype-Hell companies. All rights reserved.

The digitally encoded machine readable software for producing the Typefaces licensed to you is now the property of Heidelberger Druckmaschinen AG and its licensors, and may not be reproduced, used, displayed, modified, disclosed or transferred without the express written approval of Heidelberger Druckmaschinen AG.

Copyright (c) 1988, 1990, 1993 Adobe Systems Incorporated. All Rights Reserved.
</metadata>
<defs>
<font id="HelveticaNeue-Bold" horiz-adv-x="0" >
  <font-face 
    font-family="Helvetica Neue"
    font-weight="700"
    font-stretch="normal"
    units-per-em="1000"
    panose-1="2 0 8 3 0 0 0 9 0 4"
    ascent="800"
    descent="-200"
    x-height="517"
    cap-height="714"
    bbox="-1018 -481 1437 1141"
    underline-thickness="50"
    underline-position="-275"
    unicode-range="U+0008-FFA7"
  />
<missing-glyph horiz-adv-x="500" 
d="M391 95v512h-280v-512h280zM17 698h465v-695h-465v695z" />
    <glyph glyph-name="uniFB00" unicode="ff" horiz-adv-x="636" 
d="M388 0v422h-161v-422h-142v422h-85v95h85v40q0 71 44.5 114t128.5 43q14 0 41 -2t34 -2v-106q-26 3 -52 3q-29 0 -41.5 -13.5t-12.5 -45.5v-31h161v40q0 71 44.5 114t128.5 43q14 0 41 -2t34 -2v-106q-25 3 -52 3q-29 0 -41.5 -13.5t-12.5 -45.5v-31h98v-95h-98v-422
h-142z" />
    <glyph glyph-name="fi" unicode="fi" horiz-adv-x="611" 
d="M85 422h-85v95h85v40q0 71 44.5 114t128.5 43q14 0 41 -2t34 -2v-106q-26 3 -52 3q-29 0 -41.5 -13.5t-12.5 -45.5v-31h98v-95h-98v-422h-142v422zM411 517h142v-517h-142v517zM553 597h-142v117h142v-117z" />
    <glyph glyph-name="fl" unicode="fl" horiz-adv-x="611" 
d="M85 422h-85v95h85v40q0 71 44.5 114t128.5 43q14 0 41 -2t34 -2v-106q-26 3 -52 3q-29 0 -41.5 -13.5t-12.5 -45.5v-31h98v-95h-98v-422h-142v422zM411 714h142v-714h-142v714z" />
    <glyph glyph-name="uniFB03" unicode="ffi" horiz-adv-x="894" 
d="M388 0v422h-161v-422h-142v422h-85v95h85v40q0 71 44.5 114t128.5 43q14 0 41 -2t34 -2v-106q-26 3 -52 3q-29 0 -41.5 -13.5t-12.5 -45.5v-31h161v40q0 71 44.5 114t128.5 43q14 0 41 -2t34 -2v-106q-25 3 -52 3q-29 0 -41.5 -13.5t-12.5 -45.5v-31h98v-95h-98v-422
h-142zM836 714v-117h-142v117h142zM694 0v517h142v-517h-142z" />
    <glyph glyph-name="uniFB04" unicode="ffl" horiz-adv-x="894" 
d="M388 0v422h-161v-422h-142v422h-85v95h85v40q0 71 44.5 114t128.5 43q14 0 41 -2t34 -2v-106q-26 3 -52 3q-29 0 -41.5 -13.5t-12.5 -45.5v-31h161v40q0 71 44.5 114t128.5 43q14 0 41 -2t34 -2v-106q-25 3 -52 3q-29 0 -41.5 -13.5t-12.5 -45.5v-31h98v-95h-98v-422
h-142zM694 0v714h142v-714h-142z" />
    <glyph glyph-name=".notdef" horiz-adv-x="500" 
d="M391 95v512h-280v-512h280zM17 698h465v-695h-465v695z" />
    <glyph glyph-name=".null" 
 />
    <glyph glyph-name="nonmarkingreturn" horiz-adv-x="333" 
 />
    <glyph glyph-name="NULL" 
 />
    <glyph glyph-name="NULL" 
 />
    <glyph glyph-name="controlHT" 
 />
    <glyph glyph-name="CR" unicode="&#x9;" horiz-adv-x="278" 
 />
    <glyph glyph-name="space" unicode="&#xa;" horiz-adv-x="278" 
 />
    <glyph glyph-name="space" unicode=" " horiz-adv-x="278" 
 />
    <glyph glyph-name="controlGS" unicode="&#xd;" horiz-adv-x="278" 
 />
    <glyph glyph-name="controlBS" 
 />
    <glyph glyph-name="exclam" unicode="!" horiz-adv-x="278" 
d="M61 154h157v-154h-157v154zM213 522l-39 -308h-71l-38 308v192h148v-192z" />
    <glyph glyph-name="quotedbl" unicode="&#x22;" horiz-adv-x="463" 
d="M85 714h107v-321h-107v321zM271 714h107v-321h-107v321z" />
    <glyph glyph-name="numbersign" unicode="#" horiz-adv-x="556" 
d="M243 412l-18 -124h97l17 124h-96zM116 198h-83v90h95l18 124h-83v90h95l28 198h97l-28 -198h97l27 198h97l-27 -198h74v-90h-87l-17 -124h74v-90h-87l-27 -198h-97l27 198h-96l-28 -198h-97z" />
    <glyph glyph-name="dollar" unicode="$" horiz-adv-x="556" 
d="M141 232q-1 -55 29 -88.5t78 -43.5v209q-8 4 -32 9q-35 9 -59.5 18t-53 25.5t-46 36t-29.5 50.5t-12 69q0 97 67 152t165 62v77h59v-77q97 -11 158 -63t67 -150h-142q-1 40 -25 68t-58 28v-177l51 -13q47 -13 82.5 -30.5t56.5 -39t34 -40.5t18 -44.5t6.5 -40t1.5 -37.5
q0 -26 -12 -56.5t-37.5 -64t-78 -58t-122.5 -29.5v-85h-59v85q-229 17 -248 248h141zM307 100q43 4 75.5 29t32.5 69q0 38 -23.5 58t-84.5 36v-192zM248 614q-37 0 -63.5 -21.5t-26.5 -61.5q0 -33 20.5 -51t69.5 -29v163z" />
    <glyph glyph-name="percent" unicode="%" horiz-adv-x="1000" 
d="M693 182q0 -19 0.5 -30t4 -30.5t9.5 -31t19 -20.5t31 -9q66 0 66 120t-62 120q-68 0 -68 -119zM591 183q0 86 43 139.5t127 53.5q164 0 164 -197q0 -86 -42.5 -139t-126.5 -53q-165 0 -165 196zM668 722h85l-412 -743h-87zM177 514q0 -18 0.5 -29t4 -29.5t9.5 -29t19 -19
t31 -8.5q66 0 66 114q0 126 -62 126q-68 0 -68 -125zM75 516q0 87 43 142.5t127 55.5q87 0 125.5 -55.5t38.5 -146.5q0 -86 -42.5 -137t-126.5 -51q-165 0 -165 192z" />
    <glyph glyph-name="ampersand" unicode="&#x26;" horiz-adv-x="685" 
d="M464 71q-86 -84 -201 -84q-100 0 -165.5 57t-65.5 156q0 130 160 207q-34 41 -51 75t-17 77q0 72 55.5 117.5t130.5 45.5q85 0 140.5 -45t55.5 -126q0 -109 -127 -178l92 -113q19 34 26 85h123q-11 -102 -69 -176l145 -169h-174zM267 315q-43 -18 -71.5 -48t-28.5 -70
q0 -38 31 -66t71 -28q64 0 120 63zM382 559q0 28 -19.5 48t-45.5 20q-27 0 -45.5 -18t-18.5 -45q0 -9 1.5 -18t5.5 -17.5t6.5 -14.5t9.5 -15.5t10 -13.5t12 -14.5t11 -13.5q36 23 54.5 45t18.5 57z" />
    <glyph glyph-name="quotesingle" unicode="'" horiz-adv-x="278" 
d="M86 714h107v-321h-107v321z" />
    <glyph glyph-name="parenleft" unicode="(" horiz-adv-x="296" 
d="M303 731q-109 -202 -109 -453q0 -253 108 -459h-118q-132 215 -132 449q0 117 34.5 244t97.5 219h119z" />
    <glyph glyph-name="parenright" unicode=")" horiz-adv-x="296" 
d="M-6 -181q108 209 108 451q0 248 -107 461h117q132 -215 132 -451q0 -119 -34 -245t-98 -216h-118z" />
    <glyph glyph-name="asterisk" unicode="*" horiz-adv-x="407" 
d="M242 589l116 44l27 -77l-118 -39l74 -98l-66 -49l-74 103l-70 -103l-67 49l74 98l-116 39l27 77l113 -44v125h80v-125z" />
    <glyph glyph-name="plus" unicode="+" horiz-adv-x="600" 
d="M354 306h199v-107h-199v-199h-107v199h-199v107h199v199h107v-199z" />
    <glyph glyph-name="comma" unicode="," horiz-adv-x="278" 
d="M61 154h157v-154q0 -66 -44.5 -110.5t-111.5 -54.5v72q31 6 52 33.5t19 59.5h-72v154z" />
    <glyph glyph-name="hyphen" unicode="-" horiz-adv-x="407" 
d="M53 334h301v-122h-301v122z" />
    <glyph glyph-name="period" unicode="." horiz-adv-x="278" 
d="M60 154h157v-154h-157v154z" />
    <glyph glyph-name="slash" unicode="/" horiz-adv-x="371" 
d="M268 731h114l-279 -747h-113z" />
    <glyph glyph-name="zero" unicode="0" horiz-adv-x="556" 
d="M163 353q0 -35 0.5 -57.5t6.5 -63.5t17 -65.5t34.5 -44t55.5 -19.5q33 0 56.5 19.5t34.5 44t17 65.5t7 63.5t1 57.5q0 23 -0.5 37t-2.5 42.5t-6 47.5t-12.5 43t-20.5 38.5t-31 25t-43 10.5q-27 0 -48 -12t-33 -36t-19 -45.5t-10 -55.5t-3.5 -50.5t-0.5 -44.5zM21 353
q0 192 70.5 276.5t185.5 84.5q55 0 100 -18.5t81.5 -59t56.5 -112.5t20 -171q0 -101 -20 -174.5t-57 -114t-81.5 -59t-99.5 -18.5q-116 0 -186 85t-70 281z" />
    <glyph glyph-name="one" unicode="1" horiz-adv-x="556" 
d="M392 0h-142v454h-176v107q82 -2 138 31t67 108h113v-700z" />
    <glyph glyph-name="two" unicode="2" horiz-adv-x="556" 
d="M37 431q-4 124 63.5 203.5t190.5 79.5q100 0 170 -60t70 -159q0 -50 -17.5 -91t-44.5 -67.5t-63.5 -53.5t-71 -48t-71 -51t-59.5 -62h331v-122h-514q0 40 7 73.5t24.5 62.5t32.5 49.5t47 46.5t50.5 39.5t59.5 41.5q6 4 37 25t42.5 30.5t31.5 29.5t28 40.5t8 45.5
q0 50 -29 79t-76 29q-58 0 -84.5 -47.5t-26.5 -113.5h-136z" />
    <glyph glyph-name="three" unicode="3" horiz-adv-x="556" 
d="M228 417q26 -2 49.5 0.5t47 11t38 28t14.5 47.5q0 43 -29 68t-70 25q-52 0 -80.5 -34.5t-27.5 -90.5h-135q4 109 69 175.5t173 66.5q91 0 163 -53t72 -141q0 -52 -25 -90.5t-73 -52.5v-2q57 -13 90.5 -56t33.5 -103q0 -106 -76 -167.5t-184 -61.5q-120 0 -191 67.5
t-69 186.5h135q2 -61 33 -99.5t90 -38.5q49 0 81.5 30t32.5 80q0 26 -6.5 44.5t-21 29.5t-26.5 17.5t-36 9t-35.5 3t-36.5 0.5v100z" />
    <glyph glyph-name="four" unicode="4" horiz-adv-x="556" 
d="M312 522h-3l-181 -243h184v243zM312 162h-296v130l304 408h127v-421h93v-117h-93v-162h-135v162z" />
    <glyph glyph-name="five" unicode="5" horiz-adv-x="556" 
d="M500 583h-289l-28 -159l2 -2q54 54 137 54q100 0 158 -68t58 -170q0 -108 -77 -180.5t-183 -70.5q-109 0 -183.5 57.5t-76.5 163.5h142q5 -48 36 -76.5t79 -28.5q54 0 87.5 40.5t33.5 94.5q0 56 -32.5 93.5t-88.5 37.5q-37 0 -61 -13t-46 -43h-128l69 387h391v-117z" />
    <glyph glyph-name="six" unicode="6" horiz-adv-x="556" 
d="M286 363q-54 0 -83.5 -37.5t-29.5 -92.5q0 -52 31 -91t82 -39q49 0 78 38.5t29 89.5q0 54 -27.5 93t-79.5 39zM388 520q-7 37 -32.5 62t-61.5 25q-47 0 -78.5 -39t-42.5 -83.5t-13 -90.5l2 -2q54 78 158 78q45 0 88 -19.5t73 -52.5q54 -63 54 -156q0 -110 -68 -182.5
t-177 -72.5q-61 0 -109 21t-77.5 54.5t-48.5 81.5t-26.5 97.5t-7.5 106.5q0 68 15.5 130.5t47 116.5t86.5 86.5t126 32.5q92 0 153.5 -51t73.5 -143h-135z" />
    <glyph glyph-name="seven" unicode="7" horiz-adv-x="556" 
d="M517 578q-104 -90 -165.5 -257.5t-63.5 -320.5h-152q24 312 235 568h-332v132h478v-122z" />
    <glyph glyph-name="eight" unicode="8" horiz-adv-x="556" 
d="M172 510q0 -43 31 -67.5t76 -24.5q47 0 76 24t29 68q0 37 -23.5 67t-81.5 30q-45 0 -76 -26t-31 -71zM43 523q0 89 71.5 140t164.5 51q62 0 109.5 -19.5t73.5 -49.5t38.5 -60.5t12.5 -58.5q0 -112 -102 -147v-2q63 -14 97 -59.5t34 -111.5q0 -71 -39 -122t-97 -74
t-126 -23q-111 0 -188.5 55.5t-77.5 162.5q0 67 34.5 112t97.5 60v2q-50 14 -76.5 52.5t-26.5 91.5zM156 212q0 -53 36 -86t88 -33t86 33t34 85q0 49 -34.5 80.5t-85.5 31.5q-54 0 -89 -29.5t-35 -81.5z" />
    <glyph glyph-name="nine" unicode="9" horiz-adv-x="556" 
d="M270 337q54 0 83.5 37.5t29.5 92.5q0 52 -31 91t-82 39q-49 0 -78 -38.5t-29 -89.5q0 -54 27.5 -93t79.5 -39zM168 180q7 -37 32.5 -62t61.5 -25q37 0 64 21.5t41 57t20.5 67.5t8.5 67l-2 2q-54 -78 -158 -78q-45 0 -88 19.5t-73 52.5q-54 63 -54 156q0 109 68.5 182.5
t176.5 73.5q76 0 131 -31t83.5 -84.5t41.5 -114t13 -132.5q0 -68 -15.5 -130.5t-47 -116.5t-86.5 -86t-126 -32q-92 0 -153.5 51t-73.5 142h135z" />
    <glyph glyph-name="colon" unicode=":" horiz-adv-x="278" 
d="M218 354h-157v154h157v-154zM61 154h157v-154h-157v154z" />
    <glyph glyph-name="semicolon" unicode=";" horiz-adv-x="278" 
d="M218 354h-157v154h157v-154zM61 154h157v-154q0 -66 -44.5 -110.5t-111.5 -54.5v72q31 6 52 33.5t19 59.5h-72v154z" />
    <glyph glyph-name="less" unicode="&#x3c;" horiz-adv-x="600" 
d="M554 399l-367 -146l367 -146v-114l-508 201v118l508 202v-115z" />
    <glyph glyph-name="equal" unicode="=" horiz-adv-x="600" 
d="M553 92h-505v107h505v-107zM553 306h-505v107h505v-107z" />
    <glyph glyph-name="greater" unicode="&#x3e;" horiz-adv-x="600" 
d="M46 107l367 146l-367 146v115l508 -202v-118l-508 -201v114z" />
    <glyph glyph-name="question" unicode="?" horiz-adv-x="556" 
d="M193 154h157v-154h-157v154zM32 484q2 109 68 178t175 69q67 0 117.5 -19t78 -49.5t40.5 -62t13 -62.5q0 -53 -17 -90.5t-42.5 -58.5t-51.5 -38.5t-46.5 -41.5t-24.5 -57v-38h-135v45q3 48 21.5 83t41.5 55t45.5 37t37.5 39t14 51q0 90 -85 90q-51 0 -77 -36.5t-26 -93.5
h-147z" />
    <glyph glyph-name="at" unicode="@" horiz-adv-x="800" 
d="M559 287q-8 -26 -8 -43q0 -23 17 -23q45 0 81.5 53t36.5 131q0 116 -76.5 181t-194.5 65q-127 0 -205 -83.5t-78 -212.5q0 -130 82.5 -211t212.5 -81q133 0 215 82h84q-51 -77 -131 -119t-174 -42q-161 0 -273 107t-112 266q0 157 111.5 265.5t268.5 108.5
q141 0 244.5 -85.5t103.5 -219.5q0 -72 -27.5 -131t-66.5 -91.5t-76.5 -50t-64.5 -17.5q-32 0 -51.5 16t-21.5 41h-2q-35 -58 -108 -58q-64 0 -110.5 50.5t-46.5 120.5q0 100 61.5 177.5t156.5 77.5q36 0 68.5 -17t48.5 -53l16 54h82zM291 319q0 -40 21.5 -64.5t56.5 -24.5
q51 0 87 48t36 103q0 36 -22.5 60.5t-54.5 24.5q-52 0 -88 -46.5t-36 -100.5z" />
    <glyph glyph-name="A" unicode="A" horiz-adv-x="685" 
d="M249 276h185l-90 262h-2zM264 714h161l267 -714h-163l-54 159h-267l-56 -159h-158z" />
    <glyph glyph-name="B" unicode="B" horiz-adv-x="704" 
d="M226 425h159q96 0 96 85q0 82 -108 82h-147v-167zM69 714h336q228 0 228 -177q0 -102 -97 -149q65 -18 98 -65.5t33 -115.5q0 -102 -73 -154.5t-179 -52.5h-346v714zM226 122h168q116 0 116 94q0 102 -113 102h-171v-196z" />
    <glyph glyph-name="C" unicode="C" horiz-adv-x="741" 
d="M545 474q-8 53 -53 89t-103 36q-67 0 -112 -36t-63.5 -89.5t-18.5 -119.5q0 -100 48 -169.5t146 -69.5q70 0 111.5 43t50.5 117h152q-12 -135 -97 -213t-217 -78q-161 0 -256 105t-95 265q0 163 95 270t256 107q121 0 207.5 -68.5t100.5 -188.5h-152z" />
    <glyph glyph-name="D" unicode="D" horiz-adv-x="741" 
d="M226 132h140q76 0 127 52t51 162q0 115 -47.5 175.5t-158.5 60.5h-112v-450zM69 714h308q145 0 234.5 -91t89.5 -262q0 -162 -83 -261.5t-241 -99.5h-308v714z" />
    <glyph glyph-name="E" unicode="E" horiz-adv-x="648" 
d="M69 714h534v-132h-377v-153h346v-122h-346v-175h385v-132h-542v714z" />
    <glyph glyph-name="F" unicode="F" horiz-adv-x="593" 
d="M69 714h502v-132h-345v-165h299v-122h-299v-295h-157v714z" />
    <glyph glyph-name="G" unicode="G" horiz-adv-x="759" 
d="M585 81q-75 -97 -196 -97q-161 0 -256 105t-95 265q0 163 95 270t256 107q116 0 202.5 -67.5t98.5 -184.5h-150q-14 59 -53.5 89.5t-97.5 30.5q-67 0 -112 -36t-63.5 -89.5t-18.5 -119.5q0 -100 48 -169.5t146 -69.5q156 0 170 154h-158v117h300v-386h-100z" />
    <glyph glyph-name="H" unicode="H" horiz-adv-x="741" 
d="M69 714h157v-274h289v274h157v-714h-157v308h-289v-308h-157v714z" />
    <glyph glyph-name="I" unicode="I" horiz-adv-x="295" 
d="M69 714h157v-714h-157v714z" />
    <glyph glyph-name="J" unicode="J" horiz-adv-x="556" 
d="M487 225q0 -241 -238 -241q-98 0 -166.5 55t-68.5 165v62h142v-32q0 -58 19.5 -88.5t71.5 -30.5q29 0 47.5 10t25.5 30.5t8.5 35.5t1.5 41v482h157v-489z" />
    <glyph glyph-name="K" unicode="K" horiz-adv-x="722" 
d="M69 714h157v-296l279 296h196l-279 -282l306 -432h-197l-215 321l-90 -91v-230h-157v714z" />
    <glyph glyph-name="L" unicode="L" horiz-adv-x="593" 
d="M69 714h157v-582h348v-132h-505v714z" />
    <glyph glyph-name="M" unicode="M" horiz-adv-x="907" 
d="M69 714h221l167 -491h2l158 491h221v-714h-147v506h-2l-175 -506h-121l-175 501h-2v-501h-147v714z" />
    <glyph glyph-name="N" unicode="N" horiz-adv-x="741" 
d="M69 714h156l298 -479h2v479h147v-714h-157l-297 478h-2v-478h-147v714z" />
    <glyph glyph-name="O" unicode="O" horiz-adv-x="778" 
d="M195 354q0 -100 48 -169.5t146 -69.5t146 69.5t48 169.5q0 66 -18.5 119.5t-63.5 89.5t-112 36t-112 -36t-63.5 -89.5t-18.5 -119.5zM38 354q0 163 95 270t256 107t256 -107t95 -270q0 -160 -95 -265t-256 -105t-256 105t-95 265z" />
    <glyph glyph-name="P" unicode="P" horiz-adv-x="667" 
d="M226 378h122q64 0 101 22.5t37 84.5t-37 84.5t-101 22.5h-122v-214zM69 714h322q125 0 186 -66t61 -163t-61 -163t-186 -66h-165v-256h-157v714z" />
    <glyph glyph-name="Q" unicode="Q" horiz-adv-x="778" 
d="M458 264l81 -74q44 59 44 164q0 66 -18.5 119.5t-63.5 89.5t-112 36t-112 -36t-63.5 -89.5t-18.5 -119.5q0 -100 48 -169.5t146 -69.5q43 0 63 10l-67 61zM663 -66l-101 91q-71 -41 -173 -41q-161 0 -256 105t-95 265q0 163 95 270t256 107t256 -107t95 -270
q0 -158 -93 -263l89 -81z" />
    <glyph glyph-name="R" unicode="R" horiz-adv-x="722" 
d="M226 391h172q55 0 81.5 24.5t26.5 77.5q0 99 -108 99h-172v-201zM69 714h385q94 0 151.5 -57t57.5 -140q0 -134 -113 -179v-2q94 -26 104 -167q0 -6 1.5 -30t2.5 -38.5t4 -36t8.5 -37.5t13.5 -27h-157q-8 20 -12 48.5t-7 66.5t-6 56q-8 58 -34.5 83t-84.5 25h-157v-279
h-157v714z" />
    <glyph glyph-name="S" unicode="S" horiz-adv-x="649" 
d="M176 237q0 -67 44.5 -99.5t113.5 -32.5q33 0 61.5 6.5t53 27.5t24.5 55q0 19 -9.5 34t-21.5 24.5t-37 19t-42 14t-51 13t-51 13.5q-45 11 -78.5 24.5t-66.5 36.5t-50.5 59t-17.5 83q0 103 80 159.5t187 56.5q79 0 141 -22t103.5 -75.5t41.5 -132.5h-152q-6 108 -141 108
q-43 0 -75.5 -20t-32.5 -61q0 -40 34.5 -55.5t178.5 -52.5q212 -44 212 -208q0 -102 -77.5 -165t-219.5 -63q-61 0 -115 15t-97 44.5t-68 79.5t-24 114h152z" />
    <glyph glyph-name="T" unicode="T" horiz-adv-x="611" 
d="M227 582h-214v132h585v-132h-214v-582h-157v582z" />
    <glyph glyph-name="U" unicode="U" horiz-adv-x="741" 
d="M675 270q0 -142 -79.5 -214t-225.5 -72q-147 0 -225.5 71t-78.5 215v444h157v-444q0 -70 30.5 -112.5t116.5 -42.5q82 0 115 36.5t33 118.5v444h157v-444z" />
    <glyph glyph-name="V" unicode="V" horiz-adv-x="630" 
d="M401 0h-177l-231 714h161l159 -502h2l161 502h162z" />
    <glyph glyph-name="W" unicode="W" horiz-adv-x="944" 
d="M749 0h-156l-121 486h-2l-119 -486h-159l-189 714h157l113 -486h2l124 486h147l122 -492h2l117 492h154z" />
    <glyph glyph-name="X" unicode="X" horiz-adv-x="667" 
d="M244 374l-230 340h182l140 -228l145 228h172l-229 -341l249 -373h-187l-156 247l-159 -247h-176z" />
    <glyph glyph-name="Y" unicode="Y" horiz-adv-x="667" 
d="M254 278l-262 436h176l167 -282l166 282h175l-265 -440v-274h-157v278z" />
    <glyph glyph-name="Z" unicode="Z" horiz-adv-x="648" 
d="M23 124l383 458h-353v132h562v-124l-383 -458h393v-132h-602v124z" />
    <glyph glyph-name="bracketleft" unicode="[" horiz-adv-x="333" 
d="M68 731h264v-112h-122v-688h122v-112h-264v912z" />
    <glyph glyph-name="backslash" unicode="\" horiz-adv-x="371" 
d="M382 -16h-114l-278 747h113z" />
    <glyph glyph-name="backslash" unicode="&#x29f5;" horiz-adv-x="371" 
d="M382 -16h-114l-278 747h113z" />
    <glyph glyph-name="bracketright" unicode="]" horiz-adv-x="333" 
d="M265 -181h-264v112h122v688h-122v112h264v-912z" />
    <glyph glyph-name="asciicircum" unicode="^" horiz-adv-x="600" 
d="M233 700h134l172 -385h-117l-122 275l-122 -275h-117z" />
    <glyph glyph-name="underscore" unicode="_" horiz-adv-x="500" 
d="M0 -74h500v-50h-500v50z" />
    <glyph glyph-name="grave" unicode="`" horiz-adv-x="259" 
d="M-47 785h156l106 -177h-99z" />
    <glyph glyph-name="a" unicode="a" horiz-adv-x="574" 
d="M190 358h-142q6 91 75 132t168 41q227 0 227 -147v-269q0 -86 18 -115h-144q-9 28 -10 50q-60 -63 -174 -63q-79 0 -127.5 38.5t-48.5 115.5q0 55 26.5 90t65 47t83.5 20t83 10.5t62.5 16.5t23.5 41q0 41 -24 55.5t-68 14.5q-87 0 -94 -78zM376 200v53q-8 -7 -23 -12.5
t-27.5 -7.5t-34.5 -5t-33 -5q-40 -7 -62 -23.5t-22 -52.5q0 -66 87 -66q115 0 115 119z" />
    <glyph glyph-name="b" unicode="b" horiz-adv-x="611" 
d="M433 258q0 71 -30.5 118.5t-90.5 47.5t-90.5 -47.5t-30.5 -118.5q0 -70 31 -117.5t90 -47.5t90 47.5t31 117.5zM54 714h142v-260h2q51 77 163 77q86 0 150 -70t64 -202t-64 -202t-150 -70q-127 0 -170 79h-2v-66h-135v714z" />
    <glyph glyph-name="c" unicode="c" horiz-adv-x="574" 
d="M406 335q-14 89 -105 89q-62 0 -91.5 -50.5t-29.5 -117.5q0 -66 28.5 -114.5t89.5 -48.5q98 0 113 105h137q-14 -102 -79.5 -156.5t-169.5 -54.5q-117 0 -189 73.5t-72 190.5q0 124 70.5 202t193.5 78q98 0 167.5 -51t75.5 -145h-139z" />
    <glyph glyph-name="d" unicode="d" horiz-adv-x="611" 
d="M421 260q0 71 -29 117.5t-93 46.5q-65 0 -95 -47t-30 -118q0 -68 31.5 -117t93.5 -49q65 0 93.5 47.5t28.5 119.5zM423 66h-2q-47 -79 -157 -79q-111 0 -171.5 80t-60.5 196q0 112 60.5 190t168.5 78q47 0 88.5 -20t64.5 -57h2v260h142v-714h-135v66z" />
    <glyph glyph-name="e" unicode="e" horiz-adv-x="574" 
d="M402 314q-10 56 -36.5 83t-76.5 27q-61 0 -88 -34.5t-30 -75.5h231zM171 224q3 -68 34.5 -99.5t92.5 -31.5q41 0 73 20.5t39 46.5h125q-56 -173 -242 -173q-121 0 -192.5 74.5t-71.5 196.5q0 118 73.5 195.5t190.5 77.5q126 0 193 -90t58 -217h-373z" />
    <glyph glyph-name="f" unicode="f" horiz-adv-x="333" 
d="M85 422h-85v95h85v40q0 71 44.5 114t128.5 43q14 0 41 -2t34 -2v-106q-26 3 -52 3q-29 0 -41.5 -13.5t-12.5 -45.5v-31h98v-95h-98v-422h-142v422z" />
    <glyph glyph-name="g" unicode="g" horiz-adv-x="611" 
d="M295 122q58 0 89.5 41.5t31.5 101.5q0 70 -28.5 114.5t-92.5 44.5q-57 0 -86 -42t-29 -105q0 -41 10 -74t37 -57t68 -24zM551 33q0 -30 -5 -56.5t-21.5 -59.5t-44.5 -56.5t-78.5 -39.5t-118.5 -16q-86 0 -154 42.5t-74 123.5h141q17 -71 106 -71q58 0 86.5 34.5
t27.5 92.5v68h-2q-22 -40 -63.5 -60t-91.5 -20q-111 0 -166 72.5t-55 187.5q0 106 59.5 181t162.5 75q106 0 154 -83h2v69h135v-484z" />
    <glyph glyph-name="h" unicode="h" horiz-adv-x="593" 
d="M54 714h142v-269h3q26 43 67 64.5t84 21.5q107 0 148 -54t41 -159v-318h-142v292q0 66 -20.5 96.5t-70.5 30.5q-58 0 -84 -35t-26 -113v-271h-142v714z" />
    <glyph glyph-name="i" unicode="i" horiz-adv-x="258" 
d="M200 597h-142v117h142v-117zM58 517h142v-517h-142v517z" />
    <glyph glyph-name="j" unicode="j" horiz-adv-x="278" 
d="M209 597h-142v117h142v-117zM-18 -60q9 -4 30 -4q55 0 55 46v535h142v-542q0 -83 -39 -119.5t-143 -36.5q-28 0 -45 4v117z" />
    <glyph glyph-name="k" unicode="k" horiz-adv-x="574" 
d="M67 714h142v-383l179 186h168l-195 -190l217 -327h-172l-142 231l-55 -53v-178h-142v714z" />
    <glyph glyph-name="l" unicode="l" horiz-adv-x="258" 
d="M58 714h142v-714h-142v714z" />
    <glyph glyph-name="m" unicode="m" horiz-adv-x="906" 
d="M58 517h134v-70h2q59 84 158 84q113 0 151 -86q59 86 156 86q88 0 138.5 -44.5t50.5 -140.5v-346h-142v293q0 24 -1 40t-6 34t-14 28t-25.5 17t-40.5 7q-95 0 -95 -131v-288h-142v290v7q0 24 -0.5 36t-5 31.5t-13 29t-25.5 17.5t-42 8q-13 0 -27 -5t-31 -16.5t-27.5 -37
t-10.5 -60.5v-300h-142v517z" />
    <glyph glyph-name="n" unicode="n" horiz-adv-x="593" 
d="M54 517h135v-72h3q52 86 158 86q107 0 148 -54t41 -159v-318h-142v292q0 66 -20.5 96.5t-70.5 30.5q-58 0 -84 -35t-26 -113v-271h-142v517z" />
    <glyph glyph-name="o" unicode="o" horiz-adv-x="611" 
d="M180 258q0 -71 29.5 -118t95.5 -47q67 0 96.5 47t29.5 118t-29.5 118.5t-96.5 47.5q-66 0 -95.5 -47.5t-29.5 -118.5zM38 258q0 124 73 198.5t194 74.5q122 0 195 -74.5t73 -198.5t-73 -197.5t-195 -73.5t-194.5 73.5t-72.5 197.5z" />
    <glyph glyph-name="p" unicode="p" horiz-adv-x="611" 
d="M315 93q65 0 94 46.5t29 117.5q0 70 -30.5 118.5t-93.5 48.5q-65 0 -94 -48t-29 -119q0 -70 30 -117t94 -47zM54 517h135v-66h2q50 80 154 80q115 0 175 -79.5t60 -198.5q0 -112 -59.5 -189t-167.5 -77q-102 0 -155 77h-2v-245h-142v698z" />
    <glyph glyph-name="q" unicode="q" horiz-adv-x="611" 
d="M174 258q0 -71 29 -118t94 -47q64 0 94 46t30 117q0 69 -29.5 118.5t-91.5 49.5q-65 0 -95.5 -47.5t-30.5 -118.5zM558 -181h-142v246h-2q-46 -78 -163 -78q-38 0 -74.5 14t-70 44t-54 84t-20.5 126q0 115 60.5 195.5t171.5 80.5q112 0 157 -80h2v66h135v-698z" />
    <glyph glyph-name="r" unicode="r" horiz-adv-x="389" 
d="M54 517h135v-96h2q20 49 66 79.5t99 30.5q13 0 31 -5v-132q-22 5 -51 5q-140 0 -140 -166v-233h-142v517z" />
    <glyph glyph-name="s" unicode="s" horiz-adv-x="537" 
d="M164 168q0 -43 32 -65t77 -22q36 0 64.5 16t28.5 50q0 30 -37 46t-124 34q-37 8 -61.5 17t-50.5 24.5t-39 39.5t-13 57q0 47 19 81t52.5 52t71 25.5t82.5 7.5q95 0 157.5 -38.5t70.5 -126.5h-135q-5 70 -97 70q-79 0 -79 -48q0 -11 4.5 -19.5t14 -15t19.5 -11t26.5 -9
t29 -7.5t33.5 -7.5t34 -7.5q77 -18 120.5 -49t43.5 -96q0 -49 -20 -85.5t-54.5 -56t-74.5 -28.5t-87 -9q-65 0 -116 15.5t-88 58t-39 107.5h135z" />
    <glyph glyph-name="t" unicode="t" horiz-adv-x="352" 
d="M234 517h104v-95h-104v-256q0 -36 12 -48t48 -12q27 0 44 4v-110q-30 -5 -83 -5q-77 0 -120 25.5t-43 96.5v305h-86v95h86v155h142v-155z" />
    <glyph glyph-name="u" unicode="u" horiz-adv-x="593" 
d="M539 0h-135v72h-3q-51 -85 -158 -85t-148 53.5t-41 158.5v318h142v-292q0 -66 20.5 -96.5t70.5 -30.5q58 0 84 35t26 113v271h142v-517z" />
    <glyph glyph-name="v" unicode="v" horiz-adv-x="520" 
d="M340 0h-158l-177 517h149l109 -353h2l109 353h141z" />
    <glyph glyph-name="w" unicode="w" horiz-adv-x="814" 
d="M645 0h-146l-92 347h-2l-88 -347h-147l-164 517h150l95 -351h2l86 351h138l88 -350h2l95 350h146z" />
    <glyph glyph-name="x" unicode="x" horiz-adv-x="537" 
d="M186 272l-170 245h162l91 -135l90 135h157l-170 -242l191 -275h-162l-108 163l-108 -163h-159z" />
    <glyph glyph-name="y" unicode="y" horiz-adv-x="519" 
d="M309 -64q-23 -63 -64 -90t-114 -27q-39 0 -87 5v117q54 -6 83 -5q26 3 40.5 21t14.5 43q0 17 -6 32l-181 485h151l117 -354h2l113 354h147z" />
    <glyph glyph-name="z" unicode="z" horiz-adv-x="519" 
d="M22 107l269 303h-249v107h436v-107l-269 -303h288v-107h-475v107z" />
    <glyph glyph-name="braceleft" unicode="{" horiz-adv-x="333" 
d="M333 619h-54q-54 0 -54 -73v-152q0 -34 -11 -58.5t-28.5 -36.5t-31.5 -17t-28 -6v-3q33 -3 66 -29t33 -81v-160q0 -72 54 -72h54v-112h-127q-41 0 -82 36.5t-41 98.5v194q0 41 -30.5 62t-60.5 21v87q30 0 60.5 22.5t30.5 67.5v188q0 62 41 98.5t82 36.5h127v-112z" />
    <glyph glyph-name="bar" unicode="|" horiz-adv-x="223" 
d="M58 786h107v-999h-107v999z" />
    <glyph glyph-name="braceright" unicode="}" horiz-adv-x="333" 
d="M0 -69h54q54 0 54 72v160q0 55 33 81t66 29v3q-14 1 -28 6t-31.5 17t-28.5 36.5t-11 58.5v152q0 73 -54 73h-54v112h127q41 0 82 -36.5t41 -98.5v-188q0 -45 30 -67.5t62 -22.5v-87q-31 0 -61.5 -21t-30.5 -62v-194q0 -62 -41 -98.5t-82 -36.5h-127v112z" />
    <glyph glyph-name="asciitilde" unicode="~" horiz-adv-x="600" 
d="M493 443l57 -83q-51 -105 -142 -105q-41 0 -106.5 34t-110.5 34q-51 0 -84 -72l-57 83q15 44 54.5 74.5t87.5 30.5q33 0 108 -34t105 -34q19 0 37 13t25.5 23t25.5 36z" />
    <glyph glyph-name="nbspace" unicode="&#xa0;" horiz-adv-x="278" 
 />
    <glyph glyph-name="exclamdown" unicode="&#xa1;" horiz-adv-x="278" 
d="M65 9l39 308h71l38 -308v-191h-148v191zM218 377h-157v154h157v-154z" />
    <glyph glyph-name="cent" unicode="&#xa2;" horiz-adv-x="556" 
d="M260 -13q-106 6 -172.5 81t-66.5 182q0 117 63 194t176 87v85h59v-85q86 0 153 -55t71 -142h-139q-3 36 -27 61.5t-58 28.5v-331q36 6 61.5 38.5t25.5 71.5h139q-8 -94 -69.5 -151t-156.5 -65v-101h-59v101zM260 423q-50 -13 -73.5 -57t-23.5 -102q0 -140 97 -171v330z
" />
    <glyph glyph-name="sterling" unicode="&#xa3;" horiz-adv-x="556" 
d="M26 76q48 30 80.5 73t32.5 93q0 27 -19 67h-99v85h64q-45 56 -45 138q0 85 67.5 142t188.5 57q116 0 179.5 -64.5t63.5 -185.5h-135q-1 19 -2.5 29.5t-8 33t-17 35.5t-31.5 24t-50 11q-45 0 -71.5 -25t-26.5 -67q0 -19 1.5 -31.5t11 -37.5t28.5 -59h133v-85h-105
q8 -23 8 -62q0 -75 -82 -140l2 -2q37 23 68 23q20 0 79 -11q46 -12 78 -12q48 0 88 43l60 -101q-64 -63 -156 -63q-56 0 -109 17q-53 20 -99 20q-65 0 -115 -37z" />
    <glyph glyph-name="currency" unicode="&#xa4;" horiz-adv-x="556" 
d="M280 491q-60 0 -93.5 -41.5t-33.5 -100.5q0 -58 33.5 -99t92.5 -41t90.5 41.5t31.5 100.5q0 57 -32 98.5t-89 41.5zM77 207q-48 55 -48 142q0 96 48 144l-57 58l57 57l57 -56q54 46 146 46q85 0 137 -45l58 57l61 -61l-56 -55q45 -50 45 -143q0 -91 -46 -146l55 -56
l-55 -55l-57 58q-52 -50 -143 -50q-93 0 -147 49l-56 -58l-56 56z" />
    <glyph glyph-name="yen" unicode="&#xa5;" horiz-adv-x="556" 
d="M207 0v138h-157v95h157v46l-14 29h-143v95h95l-153 311h162l132 -311l129 311h162l-155 -311h95v-95h-143l-15 -29v-46h158v-95h-158v-138h-152z" />
    <glyph glyph-name="brokenbar" unicode="&#xa6;" horiz-adv-x="223" 
d="M165 411h-107v250h107v-250zM58 161h107v-249h-107v249z" />
    <glyph glyph-name="section" unicode="&#xa7;" horiz-adv-x="556" 
d="M370 538q0 38 -23 62t-62 24q-29 0 -52.5 -18t-23.5 -46q1 -30 36 -56t84.5 -48t98.5 -47t83.5 -66t34.5 -93q0 -51 -28 -90t-76 -56q55 -41 55 -117q0 -79 -65 -123.5t-148 -44.5q-101 0 -163 48.5t-62 144.5h124q5 -86 98 -86q32 0 53 17t21 49q1 31 -33.5 57.5
t-85.5 48.5t-102 48t-87.5 68t-36.5 97q0 108 107 146q-43 48 -43 101q0 80 63.5 126.5t145.5 46.5q91 0 151 -51.5t60 -141.5h-124zM212 380q-21 11 -27 10q-21 -2 -36 -23t-15 -44q0 -32 32 -49l180 -98q16 -7 30 -7q19 0 32.5 18.5t13.5 36.5q0 39 -45 63z" />
    <glyph glyph-name="dieresis" unicode="&#xa8;" horiz-adv-x="259" 
d="M-40 714h134v-117h-134v117zM165 714h135v-117h-135v117z" />
    <glyph glyph-name="copyright" unicode="&#xa9;" horiz-adv-x="800" 
d="M596 295q-12 -73 -62.5 -115.5t-119.5 -42.5q-96 0 -155.5 63.5t-59.5 158.5q0 98 57.5 161t155.5 63q71 0 121.5 -40.5t59.5 -114.5h-78q-8 35 -36 55t-67 20q-56 0 -86.5 -38.5t-30.5 -103.5q0 -60 33 -102t86 -42q42 0 69 21t32 57h81zM118 357q0 -127 81.5 -210.5
t200.5 -83.5q118 0 200 83.5t82 210.5t-82 210.5t-200 83.5q-119 0 -200.5 -83.5t-81.5 -210.5zM16 357q0 110 54 197t141 132t189 45t189 -45t141 -132t54 -197t-54 -196.5t-141 -131.5t-189 -45t-189 45t-141 131.5t-54 196.5z" />
    <glyph glyph-name="ordfeminine" unicode="&#xaa;" horiz-adv-x="344" 
d="M20 605q16 109 156 109q150 0 150 -89v-166q0 -53 12 -75h-101q-6 23 -7 31q-37 -40 -108 -40q-50 0 -81 24.5t-31 75.5q0 27 9 45.5t27.5 28.5t35.5 14.5t42 8.5q11 2 33 4t31.5 3.5t21.5 5t16.5 9.5t4.5 16q0 24 -15.5 31.5t-44.5 7.5q-19 0 -33 -11t-16 -33h-102z
M230 535q-7 -6 -17.5 -9t-28.5 -5.5t-21 -3.5q-25 -6 -38 -14.5t-13 -25.5q0 -37 45 -37q73 0 73 75v20z" />
    <glyph glyph-name="guillemotleft" unicode="&#xab;" horiz-adv-x="444" 
d="M42 205v135l157 123v-120l-90 -71l90 -72v-120zM245 205v135l157 123v-120l-90 -71l90 -72v-120z" />
    <glyph glyph-name="logicalnot" unicode="&#xac;" horiz-adv-x="600" 
d="M552 99h-107v200h-397v107h504v-307z" />
    <glyph glyph-name="uni00AD" unicode="&#xad;" horiz-adv-x="407" 
d="M53 212v122h301v-122h-301z" />
    <glyph glyph-name="registered" unicode="&#xae;" horiz-adv-x="800" 
d="M334 393h74q41 0 61.5 11.5t20.5 46.5q0 52 -86 52h-70v-110zM251 568h158q82 0 123 -29t41 -95q0 -103 -110 -112l112 -183h-87l-102 179h-52v-179h-83v419zM118 358q0 -127 81.5 -211t200.5 -84q118 0 200 84t82 211q0 126 -82 209.5t-200 83.5q-119 0 -200.5 -83.5
t-81.5 -209.5zM16 358q0 165 113 269t271 104t271 -104t113 -269q0 -166 -113 -270t-271 -104t-271 104t-113 270z" />
    <glyph glyph-name="overscore" unicode="&#xaf;" horiz-adv-x="259" 
d="M-56 691h372v-75h-372v75z" />
    <glyph glyph-name="degree" unicode="&#xb0;" horiz-adv-x="400" 
d="M117 566q0 -36 25 -62t58 -26t58 26t25 62t-25 62t-58 26t-58 -26t-25 -62zM52 566q0 62 43 105t105 43t105 -43t43 -105t-43 -105t-105 -43t-105 43t-43 105z" />
    <glyph glyph-name="plusminus" unicode="&#xb1;" horiz-adv-x="600" 
d="M48 107h505v-107h-505v107zM354 375h199v-107h-199v-131h-107v131h-199v107h199v131h107v-131z" />
    <glyph glyph-name="twosuperior" unicode="&#xb2;" horiz-adv-x="392" 
d="M28 540q-1 80 45 127t136 47q67 0 111.5 -35.5t44.5 -99.5q0 -44 -24.5 -76.5t-55.5 -50t-71 -44.5t-62 -55h209v-80h-334q0 38 10 67.5t32.5 53.5t42 38t55.5 37q5 3 24 15t27.5 18.5t21 18t18 24t5.5 27.5q0 27 -17 44.5t-44 17.5q-38 0 -56.5 -29.5t-15.5 -64.5h-102z
" />
    <glyph glyph-name="threesuperior" unicode="&#xb3;" horiz-adv-x="392" 
d="M164 534q21 0 31.5 1t28.5 4.5t26.5 14t8.5 27.5q0 24 -18.5 38.5t-43.5 14.5q-31 0 -49.5 -20.5t-17.5 -51.5h-96q2 70 45 111t117 41q65 0 112 -32t47 -91q0 -31 -17 -54.5t-49 -31.5v-2q38 -7 59.5 -32.5t21.5 -61.5q0 -69 -49.5 -107t-123.5 -38q-83 0 -130 41.5
t-45 118.5h96q2 -35 21.5 -57.5t55.5 -22.5q31 0 52 18t21 45q0 20 -9 32.5t-27.5 17.5t-31.5 6t-36 1v70z" />
    <glyph glyph-name="acute" unicode="&#xb4;" horiz-adv-x="259" 
d="M159 785h156l-163 -177h-99z" />
    <glyph glyph-name="mu" unicode="&#xb5;" horiz-adv-x="593" 
d="M539 0h-135v72h-3q-25 -41 -63.5 -63t-66.5 -22q-54 0 -75 23v-191h-142v698h142v-292q0 -66 20.5 -96.5t70.5 -30.5q58 0 84 35t26 113v271h142v-517z" />
    <glyph glyph-name="paragraph" unicode="&#xb6;" horiz-adv-x="620" 
d="M221 357q-105 0 -162 46.5t-57 128.5q0 182 240 182h293v-879h-102v799h-110v-799h-102v522z" />
    <glyph glyph-name="middot" unicode="&#xb7;" horiz-adv-x="278" 
d="M55 287q0 35 25.5 60t59.5 25t59 -25t25 -60q0 -33 -25 -58.5t-58 -25.5q-35 0 -60.5 25t-25.5 59z" />
    <glyph glyph-name="cedilla" unicode="&#xb8;" horiz-adv-x="259" 
d="M33 -147q42 -18 84 -18q40 0 40 34q0 32 -40 32q-23 0 -40 -7l-21 24l59 84h49l-39 -54h2q13 5 34 5q37 0 64.5 -18t27.5 -52q0 -100 -117 -100q-64 0 -124 22z" />
    <glyph glyph-name="onesuperior" unicode="&#xb9;" horiz-adv-x="392" 
d="M289 273h-102v274h-110v75q51 -2 86.5 18t41.5 65h84v-432z" />
    <glyph glyph-name="ordmasculine" unicode="&#xba;" horiz-adv-x="367" 
d="M119 544q0 -37 16.5 -65.5t47.5 -28.5q32 0 48.5 28.5t16.5 65.5q0 38 -16.5 66.5t-48.5 28.5q-31 0 -47.5 -28.5t-16.5 -66.5zM12 544q0 78 46.5 124t124.5 46t125 -46t47 -124t-46.5 -123.5t-125.5 -45.5q-78 0 -124.5 45.5t-46.5 123.5z" />
    <glyph glyph-name="guillemotright" unicode="&#xbb;" horiz-adv-x="444" 
d="M199 340v-135l-157 -125v120l90 72l-90 71v120zM402 340v-135l-157 -125v120l90 72l-90 71v120z" />
    <glyph glyph-name="onequarter" unicode="&#xbc;" horiz-adv-x="892" 
d="M689 313h-2l-114 -144h116v144zM689 89h-192v93l188 238h100v-251h57v-80h-57v-89h-96v89zM236 273h-102v274h-110v75q51 -2 86.5 18t41.5 65h84v-432zM566 722h85l-412 -743h-87z" />
    <glyph glyph-name="onehalf" unicode="&#xbd;" horiz-adv-x="889" 
d="M509 267q-1 80 45 127t136 47q67 0 111.5 -35.5t44.5 -99.5q0 -44 -24.5 -76.5t-55.5 -50t-71 -44.5t-62 -55h209v-80h-334q0 38 10 67.5t32.5 53.5t42 38t55.5 37q5 3 24 15t27.5 18.5t21 18t18 24t5.5 27.5q0 27 -17 44.5t-44 17.5q-38 0 -56.5 -29.5t-15.5 -64.5h-102
zM236 273h-102v274h-110v75q51 -2 86.5 18t41.5 65h84v-432zM566 722h85l-412 -743h-87z" />
    <glyph glyph-name="threequarters" unicode="&#xbe;" horiz-adv-x="889" 
d="M709 313h-2l-114 -144h116v144zM709 89h-192v93l188 238h100v-251h57v-80h-57v-89h-96v89zM181 534q21 0 31.5 1t28.5 4.5t26.5 14t8.5 27.5q0 24 -18.5 38.5t-43.5 14.5q-31 0 -49.5 -20.5t-17.5 -51.5h-96q2 70 45 111t117 41q65 0 112 -32t47 -91q0 -31 -17 -54.5
t-49 -31.5v-2q38 -7 59.5 -32.5t21.5 -61.5q0 -69 -49.5 -107t-123.5 -38q-83 0 -130 41.5t-45 118.5h96q2 -35 21.5 -57.5t55.5 -22.5q31 0 52 18t21 45q0 20 -9 32.5t-27.5 17.5t-31.5 6t-36 1v70zM653 722h85l-412 -743h-87z" />
    <glyph glyph-name="questiondown" unicode="&#xbf;" horiz-adv-x="556" 
d="M363 377h-157v154h157v-154zM522 51q-2 -107 -68.5 -176.5t-172.5 -69.5q-67 0 -117.5 19t-78 49.5t-40.5 62t-13 62.5q0 52 17 89.5t42.5 58.5t51.5 38t46.5 41.5t24.5 57.5v38h135v-45q-3 -48 -21.5 -83t-41.5 -55t-45.5 -37t-37.5 -39t-14 -51q0 -89 85 -89
q49 0 75 37t26 92h147z" />
    <glyph glyph-name="Agrave" unicode="&#xc0;" horiz-adv-x="685" 
d="M249 276h185l-90 262h-2zM264 714h161l267 -714h-163l-54 159h-267l-56 -159h-158zM165 950h156l106 -177h-99z" />
    <glyph glyph-name="Aacute" unicode="&#xc1;" horiz-adv-x="685" 
d="M249 276h185l-90 262h-2zM264 714h161l267 -714h-163l-54 159h-267l-56 -159h-158zM369 955h156l-163 -177h-99z" />
    <glyph glyph-name="Acircumflex" unicode="&#xc2;" horiz-adv-x="685" 
d="M249 276h185l-90 262h-2zM264 714h161l267 -714h-163l-54 159h-267l-56 -159h-158zM278 920h130l110 -142h-117l-62 81l-64 -81h-107z" />
    <glyph glyph-name="Atilde" unicode="&#xc3;" horiz-adv-x="685" 
d="M249 276h185l-90 262h-2zM264 714h161l267 -714h-163l-54 159h-267l-56 -159h-158zM415 799q-33 0 -80 24.5t-67 24.5q-33 0 -45 -49h-63q7 51 37.5 90t79.5 39q29 0 76 -21.5t67 -21.5q18 0 28 10t15 33h64q-11 -60 -36 -94.5t-76 -34.5z" />
    <glyph glyph-name="Adieresis" unicode="&#xc4;" horiz-adv-x="685" 
d="M172 911h135v-117h-135v117zM378 911h135v-117h-135v117zM249 276h185l-90 262h-2zM264 714h161l267 -714h-163l-54 159h-267l-56 -159h-158z" />
    <glyph glyph-name="Aring.low" unicode="&#xc5;" horiz-adv-x="685" 
d="M219 833q0 51 35.5 86.5t86.5 35.5t87 -35.5t36 -86.5t-36 -86.5t-87 -35.5t-86.5 35.5t-35.5 86.5zM278 833q0 -30 17 -50t46 -20t46.5 20t17.5 50t-17.5 50t-46.5 20t-46 -20t-17 -50zM249 276h185l-90 262h-2zM264 714h161l267 -714h-163l-54 159h-267l-56 -159h-158z
" />
    <glyph glyph-name="AE" unicode="&#xc6;" horiz-adv-x="981" 
d="M330 714h606v-132h-332v-153h312v-122h-312v-175h340v-132h-492v159h-224l-72 -159h-166zM280 276h172v306h-34z" />
    <glyph glyph-name="Ccedilla" unicode="&#xc7;" horiz-adv-x="741" 
d="M545 474q-8 53 -53 89t-103 36q-67 0 -112 -36t-63.5 -89.5t-18.5 -119.5q0 -100 48 -169.5t146 -69.5q70 0 111.5 43t50.5 117h152q-12 -133 -96 -211t-215 -80l-26 -36h2q13 5 34 5q37 0 64.5 -18t27.5 -52q0 -100 -117 -100q-64 0 -124 22l21 48q42 -18 84 -18
q40 0 40 34q0 32 -40 32q-23 0 -40 -7l-21 24l48 69q-143 14 -225 117t-82 250q0 163 95 270t256 107q121 0 207.5 -68.5t100.5 -188.5h-152z" />
    <glyph glyph-name="Egrave" unicode="&#xc8;" horiz-adv-x="648" 
d="M69 714h534v-132h-377v-153h346v-122h-346v-175h385v-132h-542v714zM138 955h156l106 -177h-99z" />
    <glyph glyph-name="Eacute" unicode="&#xc9;" horiz-adv-x="648" 
d="M69 714h534v-132h-377v-153h346v-122h-346v-175h385v-132h-542v714zM355 955h156l-163 -177h-99z" />
    <glyph glyph-name="Ecircumflex" unicode="&#xca;" horiz-adv-x="648" 
d="M69 714h534v-132h-377v-153h346v-122h-346v-175h385v-132h-542v714zM275 920h130l110 -142h-117l-62 81l-64 -81h-107z" />
    <glyph glyph-name="Edieresis" unicode="&#xcb;" horiz-adv-x="648" 
d="M154 911h135v-117h-135v117zM360 911h135v-117h-135v117zM69 714h534v-132h-377v-153h346v-122h-346v-175h385v-132h-542v714z" />
    <glyph glyph-name="Igrave" unicode="&#xcc;" horiz-adv-x="295" 
d="M69 714h157v-714h-157v714zM-45 955h156l106 -177h-99z" />
    <glyph glyph-name="Iacute" unicode="&#xcd;" horiz-adv-x="295" 
d="M69 714h157v-714h-157v714zM178 955h156l-163 -177h-99z" />
    <glyph glyph-name="Icircumflex" unicode="&#xce;" horiz-adv-x="295" 
d="M83 920h130l110 -142h-117l-62 81l-64 -81h-107zM69 714h157v-714h-157v714z" />
    <glyph glyph-name="Idieresis" unicode="&#xcf;" horiz-adv-x="295" 
d="M-22 911h134v-117h-134v117zM183 911h135v-117h-135v117zM69 714h157v-714h-157v714z" />
    <glyph glyph-name="Eth" unicode="&#xd0;" horiz-adv-x="741" 
d="M226 427h160v-117h-160v-178h140q76 0 127 52t51 162q0 115 -47.5 175.5t-158.5 60.5h-112v-155zM69 311h-66v116h66v287h308q145 0 234.5 -91t89.5 -262q0 -162 -83 -261.5t-241 -99.5h-308v311z" />
    <glyph glyph-name="Ntilde" unicode="&#xd1;" horiz-adv-x="741" 
d="M554 911q-6 -20 -9 -29.5t-12.5 -29t-20 -29t-29 -18t-41.5 -8.5q-29 0 -82 17q-47 17 -70 17q-19 0 -27.5 -10t-14.5 -32h-61q12 55 39.5 88.5t86.5 33.5q19 0 64 -17q42 -18 66 -18q22 0 32.5 10t9.5 25h69zM69 714h156l298 -479h2v479h147v-714h-157l-297 478h-2v-478
h-147v714z" />
    <glyph glyph-name="Ograve" unicode="&#xd2;" horiz-adv-x="778" 
d="M195 354q0 -100 48 -169.5t146 -69.5t146 69.5t48 169.5q0 66 -18.5 119.5t-63.5 89.5t-112 36t-112 -36t-63.5 -89.5t-18.5 -119.5zM38 354q0 163 95 270t256 107t256 -107t95 -270q0 -160 -95 -265t-256 -105t-256 105t-95 265zM201 955h156l106 -177h-99z" />
    <glyph glyph-name="Oacute" unicode="&#xd3;" horiz-adv-x="778" 
d="M195 354q0 -100 48 -169.5t146 -69.5t146 69.5t48 169.5q0 66 -18.5 119.5t-63.5 89.5t-112 36t-112 -36t-63.5 -89.5t-18.5 -119.5zM38 354q0 163 95 270t256 107t256 -107t95 -270q0 -160 -95 -265t-256 -105t-256 105t-95 265zM414 955h156l-163 -177h-99z" />
    <glyph glyph-name="Ocircumflex" unicode="&#xd4;" horiz-adv-x="778" 
d="M195 354q0 -100 48 -169.5t146 -69.5t146 69.5t48 169.5q0 66 -18.5 119.5t-63.5 89.5t-112 36t-112 -36t-63.5 -89.5t-18.5 -119.5zM38 354q0 163 95 270t256 107t256 -107t95 -270q0 -160 -95 -265t-256 -105t-256 105t-95 265zM324 920h130l110 -142h-117l-62 81
l-64 -81h-107z" />
    <glyph glyph-name="Otilde" unicode="&#xd5;" horiz-adv-x="778" 
d="M195 354q0 -100 48 -169.5t146 -69.5t146 69.5t48 169.5q0 66 -18.5 119.5t-63.5 89.5t-112 36t-112 -36t-63.5 -89.5t-18.5 -119.5zM38 354q0 163 95 270t256 107t256 -107t95 -270q0 -160 -95 -265t-256 -105t-256 105t-95 265zM461 799q-33 0 -80 24.5t-67 24.5
q-33 0 -45 -49h-63q7 51 37.5 90t79.5 39q29 0 76 -21.5t67 -21.5q18 0 28 10t15 33h64q-11 -60 -36 -94.5t-76 -34.5z" />
    <glyph glyph-name="Odieresis" unicode="&#xd6;" horiz-adv-x="778" 
d="M219 911h135v-117h-135v117zM425 911h135v-117h-135v117zM195 354q0 -100 48 -169.5t146 -69.5t146 69.5t48 169.5q0 66 -18.5 119.5t-63.5 89.5t-112 36t-112 -36t-63.5 -89.5t-18.5 -119.5zM38 354q0 163 95 270t256 107t256 -107t95 -270q0 -160 -95 -265t-256 -105
t-256 105t-95 265z" />
    <glyph glyph-name="multiply" unicode="&#xd7;" horiz-adv-x="600" 
d="M64 93l161 160l-159 160l76 76l159 -160l160 160l76 -76l-161 -160l161 -160l-76 -76l-160 161l-161 -161z" />
    <glyph glyph-name="Oslash" unicode="&#xd8;" horiz-adv-x="778" 
d="M261 164q49 -49 128 -49q98 0 146 69.5t48 169.5q0 78 -27 136zM519 548q-51 51 -130 51q-67 0 -112 -36t-63.5 -89.5t-18.5 -119.5q0 -78 28 -135zM120 105q-82 100 -82 249q0 163 95 270t256 107q135 0 225 -77l80 89l50 -44l-84 -93q80 -105 80 -252q0 -160 -95 -265
t-256 -105q-134 0 -223 75l-83 -91l-49 42z" />
    <glyph glyph-name="Ugrave" unicode="&#xd9;" horiz-adv-x="741" 
d="M675 270q0 -142 -79.5 -214t-225.5 -72q-147 0 -225.5 71t-78.5 215v444h157v-444q0 -70 30.5 -112.5t116.5 -42.5q82 0 115 36.5t33 118.5v444h157v-444zM189 955h156l106 -177h-99z" />
    <glyph glyph-name="Uacute" unicode="&#xda;" horiz-adv-x="741" 
d="M675 270q0 -142 -79.5 -214t-225.5 -72q-147 0 -225.5 71t-78.5 215v444h157v-444q0 -70 30.5 -112.5t116.5 -42.5q82 0 115 36.5t33 118.5v444h157v-444zM401 955h156l-163 -177h-99z" />
    <glyph glyph-name="Ucircumflex" unicode="&#xdb;" horiz-adv-x="741" 
d="M306 920h130l110 -142h-117l-62 81l-64 -81h-108zM675 270q0 -142 -79.5 -214t-225.5 -72q-147 0 -225.5 71t-78.5 215v444h157v-444q0 -70 30.5 -112.5t116.5 -42.5q82 0 115 36.5t33 118.5v444h157v-444z" />
    <glyph glyph-name="Udieresis" unicode="&#xdc;" horiz-adv-x="741" 
d="M200 911h135v-117h-135v117zM406 911h135v-117h-135v117zM675 270q0 -142 -79.5 -214t-225.5 -72q-147 0 -225.5 71t-78.5 215v444h157v-444q0 -70 30.5 -112.5t116.5 -42.5q82 0 115 36.5t33 118.5v444h157v-444z" />
    <glyph glyph-name="Yacute" unicode="&#xdd;" horiz-adv-x="667" 
d="M254 278l-262 436h176l167 -282l166 282h175l-265 -440v-274h-157v278zM359 955h156l-163 -177h-99z" />
    <glyph glyph-name="Thorn" unicode="&#xde;" horiz-adv-x="667" 
d="M226 281h122q64 0 101 22.5t37 84.5t-37 84.5t-101 22.5h-122v-214zM69 714h157v-97h165q125 0 186 -66t61 -163t-61 -163t-186 -66h-165v-159h-157v714z" />
    <glyph glyph-name="germandbls" unicode="&#xdf;" horiz-adv-x="611" 
d="M56 491q0 240 235 240q97 0 162 -49t65 -143q0 -48 -25.5 -87t-67.5 -52v-2q63 -13 96.5 -62.5t33.5 -116.5q0 -96 -61.5 -164t-155.5 -68q-42 0 -82 6v115q16 -5 41 -5q50 0 83 35t33 86q0 56 -30.5 89t-91.5 33q-11 0 -35 -2v94q16 -2 22 -2q44 0 74.5 22.5t30.5 66.5
q0 89 -96 89q-42 0 -65.5 -26t-23.5 -72v-516h-142v491z" />
    <glyph glyph-name="agrave" unicode="&#xe0;" horiz-adv-x="574" 
d="M190 358h-142q6 91 75 132t168 41q227 0 227 -147v-269q0 -86 18 -115h-144q-9 28 -10 50q-60 -63 -174 -63q-79 0 -127.5 38.5t-48.5 115.5q0 55 26.5 90t65 47t83.5 20t83 10.5t62.5 16.5t23.5 41q0 41 -24 55.5t-68 14.5q-87 0 -94 -78zM376 200v53q-8 -7 -23 -12.5
t-27.5 -7.5t-34.5 -5t-33 -5q-40 -7 -62 -23.5t-22 -52.5q0 -66 87 -66q115 0 115 119zM110 785h156l106 -177h-99z" />
    <glyph glyph-name="aacute" unicode="&#xe1;" horiz-adv-x="574" 
d="M190 358h-142q6 91 75 132t168 41q227 0 227 -147v-269q0 -86 18 -115h-144q-9 28 -10 50q-60 -63 -174 -63q-79 0 -127.5 38.5t-48.5 115.5q0 55 26.5 90t65 47t83.5 20t83 10.5t62.5 16.5t23.5 41q0 41 -24 55.5t-68 14.5q-87 0 -94 -78zM376 200v53q-8 -7 -23 -12.5
t-27.5 -7.5t-34.5 -5t-33 -5q-40 -7 -62 -23.5t-22 -52.5q0 -66 87 -66q115 0 115 119zM317 785h156l-163 -177h-99z" />
    <glyph glyph-name="acircumflex" unicode="&#xe2;" horiz-adv-x="574" 
d="M190 358h-142q6 91 75 132t168 41q227 0 227 -147v-269q0 -86 18 -115h-144q-9 28 -10 50q-60 -63 -174 -63q-79 0 -127.5 38.5t-48.5 115.5q0 55 26.5 90t65 47t83.5 20t83 10.5t62.5 16.5t23.5 41q0 41 -24 55.5t-68 14.5q-87 0 -94 -78zM376 200v53q-8 -7 -23 -12.5
t-27.5 -7.5t-34.5 -5t-33 -5q-40 -7 -62 -23.5t-22 -52.5q0 -66 87 -66q115 0 115 119zM219 723h130l110 -142h-117l-62 81l-64 -81h-107z" />
    <glyph glyph-name="atilde" unicode="&#xe3;" horiz-adv-x="574" 
d="M190 358h-142q6 91 75 132t168 41q227 0 227 -147v-269q0 -86 18 -115h-144q-9 28 -10 50q-60 -63 -174 -63q-79 0 -127.5 38.5t-48.5 115.5q0 55 26.5 90t65 47t83.5 20t83 10.5t62.5 16.5t23.5 41q0 41 -24 55.5t-68 14.5q-87 0 -94 -78zM376 200v53q-8 -7 -23 -12.5
t-27.5 -7.5t-34.5 -5t-33 -5q-40 -7 -62 -23.5t-22 -52.5q0 -66 87 -66q115 0 115 119zM356 598q-33 0 -80 24.5t-67 24.5q-33 0 -45 -49h-63q7 51 37.5 90t79.5 39q28 0 76 -21.5t67 -21.5q18 0 28 10t15 33h64q-11 -60 -36 -94.5t-76 -34.5z" />
    <glyph glyph-name="adieresis" unicode="&#xe4;" horiz-adv-x="574" 
d="M117 714h135v-117h-135v117zM323 714h135v-117h-135v117zM48 358q6 91 75 132t168 41q227 0 227 -147v-269q0 -86 18 -115h-144q-9 28 -10 50q-60 -63 -174 -63q-79 0 -127.5 38.5t-48.5 115.5q0 55 26.5 90t65 47t83.5 20t83 10.5t62.5 16.5t23.5 41q0 41 -24 55.5
t-68 14.5q-87 0 -94 -78h-142zM376 253q-8 -7 -23 -12.5t-27.5 -7.5t-34.5 -5t-33 -5q-40 -7 -62 -23.5t-22 -52.5q0 -66 87 -66q115 0 115 119v53z" />
    <glyph glyph-name="aring" unicode="&#xe5;" horiz-adv-x="574" 
d="M165 656q0 51 35.5 86.5t86.5 35.5t87 -35.5t36 -86.5t-36 -86.5t-87 -35.5t-86.5 35.5t-35.5 86.5zM224 656q0 -30 17 -50t46 -20t46.5 20t17.5 50t-17.5 50t-46.5 20t-46 -20t-17 -50zM48 358q6 91 75 132t168 41q227 0 227 -147v-269q0 -86 18 -115h-144q-9 28 -10 50
q-60 -63 -174 -63q-79 0 -127.5 38.5t-48.5 115.5q0 55 26.5 90t65 47t83.5 20t83 10.5t62.5 16.5t23.5 41q0 41 -24 55.5t-68 14.5q-87 0 -94 -78h-142zM376 253q-8 -7 -23 -12.5t-27.5 -7.5t-34.5 -5t-33 -5q-40 -7 -62 -23.5t-22 -52.5q0 -66 87 -66q115 0 115 119v53z
" />
    <glyph glyph-name="ae" unicode="&#xe6;" horiz-adv-x="907" 
d="M736 314q0 51 -29.5 86.5t-81.5 35.5t-84 -36t-32 -86h227zM509 224q-2 -54 32.5 -98.5t90.5 -44.5q89 0 103 81h138q-21 -82 -86.5 -128.5t-151.5 -46.5q-132 0 -193 87q-65 -87 -211 -87q-83 0 -138 36t-55 117q0 42 14 72t41.5 47t54 25t63.5 14q117 18 132 23
q41 16 42 49q0 66 -92 66q-95 0 -99 -80h-142q2 62 39 103t88.5 56.5t116.5 15.5q122 0 171 -70q60 70 173 70q82 0 137.5 -44.5t78 -111t22.5 -151.5h-369zM385 252q-16 -14 -53.5 -21t-69 -10t-57 -21t-25.5 -52q0 -67 88 -67q45 0 81 27.5t36 79.5v64z" />
    <glyph glyph-name="ccedilla" unicode="&#xe7;" horiz-adv-x="574" 
d="M406 335q-14 89 -105 89q-62 0 -91.5 -50.5t-29.5 -117.5q0 -66 28.5 -114.5t89.5 -48.5q98 0 113 105h137q-13 -99 -75 -153t-162 -57l-28 -40h2q13 5 34 5q37 0 64.5 -18t27.5 -52q0 -100 -117 -100q-64 0 -124 22l21 48q42 -18 84 -18q40 0 40 34q0 32 -40 32
q-23 0 -40 -7l-21 24l50 72q-102 10 -164 81.5t-62 179.5q0 124 70.5 202t193.5 78q98 0 167.5 -51t75.5 -145h-139z" />
    <glyph glyph-name="egrave" unicode="&#xe8;" horiz-adv-x="574" 
d="M402 314q-10 56 -36.5 83t-76.5 27q-61 0 -88 -34.5t-30 -75.5h231zM171 224q3 -68 34.5 -99.5t92.5 -31.5q41 0 73 20.5t39 46.5h125q-56 -173 -242 -173q-121 0 -192.5 74.5t-71.5 196.5q0 118 73.5 195.5t190.5 77.5q126 0 193 -90t58 -217h-373zM101 785h156
l106 -177h-99z" />
    <glyph glyph-name="eacute" unicode="&#xe9;" horiz-adv-x="574" 
d="M402 314q-10 56 -36.5 83t-76.5 27q-61 0 -88 -34.5t-30 -75.5h231zM171 224q3 -68 34.5 -99.5t92.5 -31.5q41 0 73 20.5t39 46.5h125q-56 -173 -242 -173q-121 0 -192.5 74.5t-71.5 196.5q0 118 73.5 195.5t190.5 77.5q126 0 193 -90t58 -217h-373zM318 785h156
l-163 -177h-99z" />
    <glyph glyph-name="ecircumflex" unicode="&#xea;" horiz-adv-x="574" 
d="M402 314q-10 56 -36.5 83t-76.5 27q-61 0 -88 -34.5t-30 -75.5h231zM171 224q3 -68 34.5 -99.5t92.5 -31.5q41 0 73 20.5t39 46.5h125q-56 -173 -242 -173q-121 0 -192.5 74.5t-71.5 196.5q0 118 73.5 195.5t190.5 77.5q126 0 193 -90t58 -217h-373zM222 723h130
l110 -142h-117l-62 81l-64 -81h-107z" />
    <glyph glyph-name="edieresis" unicode="&#xeb;" horiz-adv-x="574" 
d="M117 714h135v-117h-135v117zM323 714h135v-117h-135v117zM402 314q-10 56 -36.5 83t-76.5 27q-61 0 -88 -34.5t-30 -75.5h231zM171 224q3 -68 34.5 -99.5t92.5 -31.5q41 0 73 20.5t39 46.5h125q-56 -173 -242 -173q-121 0 -192.5 74.5t-71.5 196.5q0 118 73.5 195.5
t190.5 77.5q126 0 193 -90t58 -217h-373z" />
    <glyph glyph-name="igrave" unicode="&#xec;" horiz-adv-x="258" 
d="M58 517h142v-517h-142v517zM-62 785h156l106 -177h-99z" />
    <glyph glyph-name="iacute" unicode="&#xed;" horiz-adv-x="258" 
d="M58 517h142v-517h-142v517zM159 785h156l-163 -177h-99z" />
    <glyph glyph-name="icircumflex" unicode="&#xee;" horiz-adv-x="258" 
d="M65 723h130l110 -142h-117l-62 81l-64 -81h-107zM58 517h142v-517h-142v517z" />
    <glyph glyph-name="idieresis" unicode="&#xef;" horiz-adv-x="258" 
d="M-40 714h134v-117h-134v117zM165 714h135v-117h-135v117zM58 517h142v-517h-142v517z" />
    <glyph glyph-name="eth" unicode="&#xf0;" horiz-adv-x="611" 
d="M240 647q-39 29 -84 50l92 69q54 -30 99 -66l123 62l52 -59l-114 -57q84 -81 125.5 -170.5t39.5 -202.5q0 -125 -73.5 -205.5t-194.5 -80.5t-194 72t-73 188q0 66 23 122.5t77 96.5t130 40t135 -40h2q-26 60 -102 127l-112 -56l-58 56zM305 93q67 0 96.5 47t29.5 118
q0 63 -31.5 108t-95.5 45t-94 -45t-30 -108q0 -71 29.5 -118t95.5 -47z" />
    <glyph glyph-name="ntilde" unicode="&#xf1;" horiz-adv-x="593" 
d="M480 714q-6 -20 -9 -29.5t-12.5 -29t-20 -29t-29 -18t-41.5 -8.5q-29 0 -82 17q-47 17 -70 17q-19 0 -27.5 -10t-14.5 -32h-61q12 55 39.5 88.5t86.5 33.5q19 0 64 -17q42 -18 66 -18q22 0 32.5 10t9.5 25h69zM54 517h135v-72h3q52 86 158 86q107 0 148 -54t41 -159v-318
h-142v292q0 66 -20.5 96.5t-70.5 30.5q-58 0 -84 -35t-26 -113v-271h-142v517z" />
    <glyph glyph-name="ograve" unicode="&#xf2;" horiz-adv-x="611" 
d="M180 258q0 -71 29.5 -118t95.5 -47q67 0 96.5 47t29.5 118t-29.5 118.5t-96.5 47.5q-66 0 -95.5 -47.5t-29.5 -118.5zM38 258q0 124 73 198.5t194 74.5q122 0 195 -74.5t73 -198.5t-73 -197.5t-195 -73.5t-194.5 73.5t-72.5 197.5zM119 785h156l106 -177h-99z" />
    <glyph glyph-name="oacute" unicode="&#xf3;" horiz-adv-x="611" 
d="M180 258q0 -71 29.5 -118t95.5 -47q67 0 96.5 47t29.5 118t-29.5 118.5t-96.5 47.5q-66 0 -95.5 -47.5t-29.5 -118.5zM38 258q0 124 73 198.5t194 74.5q122 0 195 -74.5t73 -198.5t-73 -197.5t-195 -73.5t-194.5 73.5t-72.5 197.5zM336 785h156l-163 -177h-99z" />
    <glyph glyph-name="ocircumflex" unicode="&#xf4;" horiz-adv-x="611" 
d="M180 258q0 -71 29.5 -118t95.5 -47q67 0 96.5 47t29.5 118t-29.5 118.5t-96.5 47.5q-66 0 -95.5 -47.5t-29.5 -118.5zM38 258q0 124 73 198.5t194 74.5q122 0 195 -74.5t73 -198.5t-73 -197.5t-195 -73.5t-194.5 73.5t-72.5 197.5zM241 723h130l110 -142h-117l-62 81
l-64 -81h-107z" />
    <glyph glyph-name="otilde" unicode="&#xf5;" horiz-adv-x="611" 
d="M180 258q0 -71 29.5 -118t95.5 -47q67 0 96.5 47t29.5 118t-29.5 118.5t-96.5 47.5q-66 0 -95.5 -47.5t-29.5 -118.5zM38 258q0 124 73 198.5t194 74.5q122 0 195 -74.5t73 -198.5t-73 -197.5t-195 -73.5t-194.5 73.5t-72.5 197.5zM377 598q-33 0 -80 24.5t-67 24.5
q-33 0 -45 -49h-63q7 51 37.5 90t79.5 39q29 0 76 -21.5t67 -21.5q18 0 28 10t15 33h64q-11 -60 -36 -94.5t-76 -34.5z" />
    <glyph glyph-name="odieresis" unicode="&#xf6;" horiz-adv-x="611" 
d="M135 714h135v-117h-135v117zM341 714h135v-117h-135v117zM180 258q0 -71 29.5 -118t95.5 -47q67 0 96.5 47t29.5 118t-29.5 118.5t-96.5 47.5q-66 0 -95.5 -47.5t-29.5 -118.5zM38 258q0 124 73 198.5t194 74.5q122 0 195 -74.5t73 -198.5t-73 -197.5t-195 -73.5
t-194.5 73.5t-72.5 197.5z" />
    <glyph glyph-name="divide" unicode="&#xf7;" horiz-adv-x="600" 
d="M216 45q0 35 25.5 59.5t59.5 24.5t59 -24.5t25 -59.5q0 -31 -25.5 -57.5t-57.5 -26.5q-35 0 -60.5 25.5t-25.5 58.5zM216 460q0 35 25.5 60t59.5 25t59 -25t25 -60q0 -33 -25 -58.5t-58 -25.5q-35 0 -60.5 25t-25.5 59zM48 306h505v-107h-505v107z" />
    <glyph glyph-name="oslash" unicode="&#xf8;" horiz-adv-x="611" 
d="M104 69q-66 72 -66 189q0 124 73 198.5t194 74.5q95 0 163 -48l53 61l37 -32l-54 -61q69 -74 69 -193q0 -124 -73 -197.5t-195 -73.5q-98 0 -165 49l-59 -66l-37 31zM220 127q31 -34 85 -34q67 0 96.5 47t29.5 118q0 52 -16 91zM388 392q-30 32 -83 32q-66 0 -95.5 -47.5
t-29.5 -118.5q0 -52 15 -86z" />
    <glyph glyph-name="ugrave" unicode="&#xf9;" horiz-adv-x="593" 
d="M539 0h-135v72h-3q-51 -85 -158 -85t-148 53.5t-41 158.5v318h142v-292q0 -66 20.5 -96.5t70.5 -30.5q58 0 84 35t26 113v271h142v-517zM110 785h156l106 -177h-99z" />
    <glyph glyph-name="uacute" unicode="&#xfa;" horiz-adv-x="593" 
d="M539 0h-135v72h-3q-51 -85 -158 -85t-148 53.5t-41 158.5v318h142v-292q0 -66 20.5 -96.5t70.5 -30.5q58 0 84 35t26 113v271h142v-517zM327 785h156l-163 -177h-99z" />
    <glyph glyph-name="ucircumflex" unicode="&#xfb;" horiz-adv-x="593" 
d="M232 723h130l110 -142h-117l-62 81l-64 -81h-108zM539 0h-135v72h-3q-51 -85 -158 -85t-148 53.5t-41 158.5v318h142v-292q0 -66 20.5 -96.5t70.5 -30.5q58 0 84 35t26 113v271h142v-517z" />
    <glyph glyph-name="udieresis" unicode="&#xfc;" horiz-adv-x="593" 
d="M126 714h135v-117h-135v117zM332 714h135v-117h-135v117zM539 0h-135v72h-3q-51 -85 -158 -85t-148 53.5t-41 158.5v318h142v-292q0 -66 20.5 -96.5t70.5 -30.5q58 0 84 35t26 113v271h142v-517z" />
    <glyph glyph-name="yacute" unicode="&#xfd;" horiz-adv-x="519" 
d="M309 -64q-23 -63 -64 -90t-114 -27q-39 0 -87 5v117q54 -6 83 -5q26 3 40.5 21t14.5 43q0 17 -6 32l-181 485h151l117 -354h2l113 354h147zM292 785h156l-163 -177h-99z" />
    <glyph glyph-name="thorn" unicode="&#xfe;" horiz-adv-x="611" 
d="M438 257q0 70 -30.5 118.5t-93.5 48.5q-65 0 -94 -48t-29 -119q0 -70 30 -117t94 -47q65 0 94 46.5t29 117.5zM54 714h142v-263h2q50 80 147 80q115 0 175 -79.5t60 -198.5q0 -112 -59.5 -189t-167.5 -77q-102 0 -155 77h-2v-245h-142v895z" />
    <glyph glyph-name="ydieresis" unicode="&#xff;" horiz-adv-x="519" 
d="M89 714h135v-117h-135v117zM295 714h135v-117h-135v117zM309 -64q-23 -63 -64 -90t-114 -27q-39 0 -87 5v117q54 -6 83 -5q26 3 40.5 21t14.5 43q0 17 -6 32l-181 485h151l117 -354h2l113 354h147z" />
    <glyph glyph-name="uni0100" unicode="&#x100;" horiz-adv-x="685" 
d="M-7 0l271 714h161l267 -714h-163l-54 159h-267l-56 -159h-159zM249 276h185l-90 262h-2zM167 809v75h353v-75h-353z" />
    <glyph glyph-name="uni0101" unicode="&#x101;" horiz-adv-x="574" 
d="M190 358h-142q6 91 75 132t168 41q227 0 227 -147v-269q0 -86 18 -115h-144q-9 28 -10 50q-61 -64 -174 -64q-78 0 -127 39.5t-49 115.5q0 38 13.5 66.5t32 44.5t50.5 27.5t55.5 15.5t60.5 8q41 5 59.5 8t38.5 10t27 17.5t7 27.5q0 41 -24 55.5t-68 14.5q-87 0 -94 -78z
M376 200v53q-16 -16 -86 -25q-28 -4 -44 -7.5t-35 -11.5t-28 -23.5t-9 -38.5q0 -66 87 -66q115 0 115 119zM118 619v75h353v-75h-353z" />
    <glyph glyph-name="uni0102" unicode="&#x102;" horiz-adv-x="685" 
d="M249 276h185l-90 262h-2zM264 714h161l267 -714h-163l-54 159h-267l-56 -159h-158zM175 939h64q5 -36 34.5 -53.5t64.5 -17.5q93 0 110 71h63q-18 -146 -178 -146q-146 0 -158 146z" />
    <glyph glyph-name="uni0103" unicode="&#x103;" horiz-adv-x="574" 
d="M190 358h-142q6 91 75 132t168 41q227 0 227 -147v-269q0 -86 18 -115h-144q-9 28 -10 50q-60 -63 -174 -63q-79 0 -127.5 38.5t-48.5 115.5q0 55 26.5 90t65 47t83.5 20t83 10.5t62.5 16.5t23.5 41q0 41 -24 55.5t-68 14.5q-87 0 -94 -78zM376 200v53q-8 -7 -23 -12.5
t-27.5 -7.5t-34.5 -5t-33 -5q-40 -7 -62 -23.5t-22 -52.5q0 -66 87 -66q115 0 115 119zM116 727h64q5 -36 34.5 -53.5t64.5 -17.5q93 0 110 71h63q-18 -146 -178 -146q-146 0 -158 146z" />
    <glyph glyph-name="Aogonek" unicode="&#x104;" horiz-adv-x="685" 
d="M264 714h161l267 -714h-68q-45 -3 -67.5 -27.5t-22.5 -55.5q0 -29 18.5 -41t40.5 -12q32 0 50 6v-60q-28 -13 -78 -13q-46 0 -80 22.5t-34 71.5q0 71 78 109l-54 159h-267l-56 -159h-158zM249 276h185l-90 262h-2z" />
    <glyph glyph-name="aogonek" unicode="&#x105;" horiz-adv-x="574" 
d="M536 0h-45q-48 -2 -71.5 -26.5t-23.5 -56.5q0 -29 18.5 -41t40.5 -12q32 0 50 6v-60q-28 -13 -78 -13q-46 0 -80 22.5t-34 71.5q0 58 58 98q14 8 21 11q-9 28 -10 50q-60 -63 -174 -63q-79 0 -127.5 38.5t-48.5 115.5q0 55 26.5 90t65 47t83.5 20t83 10.5t62.5 16.5
t23.5 41q0 41 -24 55.5t-68 14.5q-87 0 -94 -78h-142q6 91 75 132t168 41q227 0 227 -147v-269q0 -86 18 -115zM376 200v53q-8 -7 -23 -12.5t-27.5 -7.5t-34.5 -5t-33 -5q-40 -7 -62 -23.5t-22 -52.5q0 -66 87 -66q115 0 115 119z" />
    <glyph glyph-name="Cacute" unicode="&#x106;" horiz-adv-x="741" 
d="M545 474q-8 53 -53 89t-103 36q-67 0 -112 -36t-63.5 -89.5t-18.5 -119.5q0 -100 48 -169.5t146 -69.5q70 0 111.5 43t50.5 117h152q-12 -135 -97 -213t-217 -78q-161 0 -256 105t-95 265q0 163 95 270t256 107q121 0 207.5 -68.5t100.5 -188.5h-152zM410 955h156
l-163 -177h-99z" />
    <glyph glyph-name="cacute" unicode="&#x107;" horiz-adv-x="574" 
d="M406 335q-14 89 -105 89q-62 0 -91.5 -50.5t-29.5 -117.5q0 -66 28.5 -114.5t89.5 -48.5q98 0 113 105h137q-14 -102 -79.5 -156.5t-169.5 -54.5q-117 0 -189 73.5t-72 190.5q0 124 70.5 202t193.5 78q98 0 167.5 -51t75.5 -145h-139zM328 785h156l-163 -177h-99z" />
    <glyph glyph-name="uni0108" unicode="&#x108;" horiz-adv-x="741" 
d="M38 354q0 163 95 270t256 107q121 0 207.5 -68.5t100.5 -188.5h-152q-8 53 -53 89t-103 36q-67 0 -112 -36t-63.5 -89.5t-18.5 -119.5q0 -100 48 -169.5t146 -69.5q70 0 111.5 43t50.5 117h152q-12 -134 -97 -213t-217 -79q-161 0 -256 106t-95 265zM210 779l111 142h130
l110 -142h-115l-62 81l-64 -81h-110z" />
    <glyph glyph-name="uni0109" unicode="&#x109;" horiz-adv-x="574" 
d="M545 335h-139q-14 89 -105 89q-62 0 -91.5 -50.5t-29.5 -117.5q0 -66 28.5 -114.5t89.5 -48.5q98 0 113 105h137q-14 -102 -79.5 -157t-169.5 -55q-116 0 -188.5 74t-72.5 191q0 124 70.5 202t193.5 78q98 0 167.5 -51t75.5 -145zM130 589l111 142h130l110 -142h-115
l-62 81l-64 -81h-110z" />
    <glyph glyph-name="uni010A" unicode="&#x10a;" horiz-adv-x="741" 
d="M38 354q0 163 95 270t256 107q121 0 207.5 -68.5t100.5 -188.5h-152q-8 53 -53 89t-103 36q-67 0 -112 -36t-63.5 -89.5t-18.5 -119.5q0 -100 48 -169.5t146 -69.5q70 0 111.5 43t50.5 117h152q-12 -134 -97 -213t-217 -79q-161 0 -256 106t-95 265zM316 788v117h135
v-117h-135z" />
    <glyph glyph-name="uni010B" unicode="&#x10b;" horiz-adv-x="574" 
d="M545 335h-139q-14 89 -105 89q-62 0 -91.5 -50.5t-29.5 -117.5q0 -66 28.5 -114.5t89.5 -48.5q98 0 113 105h137q-14 -102 -79.5 -157t-169.5 -55q-116 0 -188.5 74t-72.5 191q0 124 70.5 202t193.5 78q98 0 167.5 -51t75.5 -145zM237 598v117h135v-117h-135z" />
    <glyph glyph-name="uni010C" unicode="&#x10c;" horiz-adv-x="741" 
d="M38 354q0 163 95 270t256 107q121 0 207.5 -68.5t100.5 -188.5h-152q-8 53 -53 89t-103 36q-67 0 -112 -36t-63.5 -89.5t-18.5 -119.5q0 -100 48 -169.5t146 -69.5q70 0 111.5 43t50.5 117h152q-12 -134 -97 -213t-217 -79q-161 0 -256 106t-95 265zM559 921l-111 -142
h-130l-110 142h115l62 -81l64 81h110z" />
    <glyph glyph-name="uni010D" unicode="&#x10d;" horiz-adv-x="574" 
d="M545 335h-139q-14 89 -105 89q-62 0 -91.5 -50.5t-29.5 -117.5q0 -66 28.5 -114.5t89.5 -48.5q98 0 113 105h137q-14 -102 -79.5 -157t-169.5 -55q-116 0 -188.5 74t-72.5 191q0 124 70.5 202t193.5 78q98 0 167.5 -51t75.5 -145zM481 731l-111 -142h-130l-110 142h115
l62 -81l64 81h110z" />
    <glyph glyph-name="uni010E" unicode="&#x10e;" horiz-adv-x="741" 
d="M69 0v714h308q145 0 234.5 -91t89.5 -262q0 -162 -83 -261.5t-241 -99.5h-308zM226 132h140q76 0 127 52t51 162q0 115 -47.5 175.5t-158.5 60.5h-112v-450zM508 921l-111 -142h-130l-110 142h115l62 -81l64 81h110z" />
    <glyph glyph-name="uni010F" unicode="&#x10f;" horiz-adv-x="611" 
d="M423 0v66h-2q-47 -80 -157 -80q-111 0 -171.5 80.5t-60.5 196.5q0 112 60.5 190t168.5 78q47 0 88.5 -20t64.5 -57h2v260h142v-714h-135zM421 260q0 71 -29 117.5t-93 46.5q-65 0 -95 -47t-30 -118q0 -68 31.5 -117t93.5 -49q65 0 93.5 47.5t28.5 119.5zM784 714
l-81 -142h-98l31 142h148z" />
    <glyph glyph-name="uni0110" unicode="&#x110;" horiz-adv-x="741" 
d="M69 0v320h-73v98h73v296h308q145 0 234.5 -91t89.5 -262q0 -162 -83 -261.5t-241 -99.5h-308zM226 582v-164h160v-99h-160v-187h140q76 0 127 52t51 162q0 115 -47.5 175.5t-158.5 60.5h-112z" />
    <glyph glyph-name="uni0111" unicode="&#x111;" horiz-adv-x="621" 
d="M258 568v76h158v70h142v-70h81v-76h-81v-568h-135v66h-2q-47 -80 -157 -80q-111 0 -171.5 80.5t-60.5 196.5q0 112 60.5 190t168.5 78q47 0 88.5 -20t64.5 -57h2v114h-158zM421 260q0 71 -29 117.5t-93 46.5q-65 0 -95 -47t-30 -118q0 -68 31.5 -117t93.5 -49
q65 0 93.5 47.5t28.5 119.5z" />
    <glyph glyph-name="uni0112" unicode="&#x112;" horiz-adv-x="648" 
d="M69 0v714h534v-132h-377v-153h346v-122h-346v-175h385v-132h-542zM155 809v75h353v-75h-353z" />
    <glyph glyph-name="uni0113" unicode="&#x113;" horiz-adv-x="574" 
d="M544 224h-373q3 -68 34.5 -99.5t92.5 -31.5q41 0 73 20.5t39 46.5h125q-56 -174 -242 -174q-121 0 -192.5 75.5t-71.5 196.5q0 118 73.5 195.5t190.5 77.5q126 0 193 -90t58 -217zM171 314h231q-10 56 -36.5 83t-76.5 27q-61 0 -88 -34.5t-30 -75.5zM117 619v75h353v-75
h-353z" />
    <glyph glyph-name="uni0114" unicode="&#x114;" horiz-adv-x="648" 
d="M69 0v714h534v-132h-377v-153h346v-122h-346v-175h385v-132h-542zM165 921h65q5 -34 34.5 -50.5t64.5 -16.5q93 0 110 67h63q-18 -142 -178 -142q-72 0 -112.5 36.5t-46.5 105.5z" />
    <glyph glyph-name="uni0115" unicode="&#x115;" horiz-adv-x="574" 
d="M544 224h-373q3 -68 34.5 -99.5t92.5 -31.5q41 0 73 20.5t39 46.5h125q-56 -174 -242 -174q-121 0 -192.5 75.5t-71.5 196.5q0 118 73.5 195.5t190.5 77.5q126 0 193 -90t58 -217zM171 314h231q-10 56 -36.5 83t-76.5 27q-61 0 -88 -34.5t-30 -75.5zM127 731h65
q5 -34 34.5 -50.5t64.5 -16.5q93 0 110 67h63q-18 -142 -178 -142q-72 0 -112.5 36.5t-46.5 105.5z" />
    <glyph glyph-name="uni0116" unicode="&#x116;" horiz-adv-x="648" 
d="M69 0v714h534v-132h-377v-153h346v-122h-346v-175h385v-132h-542zM263 788v117h135v-117h-135z" />
    <glyph glyph-name="uni0117" unicode="&#x117;" horiz-adv-x="574" 
d="M544 224h-373q3 -68 34.5 -99.5t92.5 -31.5q41 0 73 20.5t39 46.5h125q-56 -174 -242 -174q-121 0 -192.5 75.5t-71.5 196.5q0 118 73.5 195.5t190.5 77.5q126 0 193 -90t58 -217zM171 314h231q-10 56 -36.5 83t-76.5 27q-61 0 -88 -34.5t-30 -75.5zM225 598v117h135
v-117h-135z" />
    <glyph glyph-name="Eogonek" unicode="&#x118;" horiz-adv-x="648" 
d="M69 714h534v-132h-377v-153h346v-122h-346v-175h385v-132h-24q-48 -2 -71.5 -26.5t-23.5 -56.5q0 -29 18.5 -41t40.5 -12q32 0 50 6v-60q-28 -13 -78 -13q-46 0 -80 22.5t-34 71.5q0 71 78 109h-418v714z" />
    <glyph glyph-name="eogonek" unicode="&#x119;" horiz-adv-x="574" 
d="M544 224h-373q3 -68 34.5 -99.5t92.5 -31.5q41 0 73 20.5t39 46.5h125q-22 -66 -60 -106.5t-106 -57.5q-31 -8 -46 -30.5t-15 -48.5q0 -29 18.5 -41t40.5 -12q32 0 50 6v-60q-28 -13 -78 -13q-46 0 -80 22.5t-34 71.5q0 60 56 96q-116 4 -184 78t-68 193
q0 118 73.5 195.5t190.5 77.5q126 0 193 -90t58 -217zM171 314h231q-10 56 -36.5 83t-76.5 27q-61 0 -88 -34.5t-30 -75.5z" />
    <glyph glyph-name="uni011A" unicode="&#x11a;" horiz-adv-x="648" 
d="M69 0v714h534v-132h-377v-153h346v-122h-346v-175h385v-132h-542zM508 921l-111 -142h-130l-110 142h115l62 -81l64 81h110z" />
    <glyph glyph-name="uni011B" unicode="&#x11b;" horiz-adv-x="574" 
d="M544 224h-373q3 -68 34.5 -99.5t92.5 -31.5q41 0 73 20.5t39 46.5h125q-56 -174 -242 -174q-121 0 -192.5 75.5t-71.5 196.5q0 118 73.5 195.5t190.5 77.5q126 0 193 -90t58 -217zM171 314h231q-10 56 -36.5 83t-76.5 27q-61 0 -88 -34.5t-30 -75.5zM470 731l-111 -142
h-130l-110 142h115l62 -81l64 81h110z" />
    <glyph glyph-name="uni011C" unicode="&#x11c;" horiz-adv-x="759" 
d="M38 354q0 163 95 270t256 107q116 0 202.5 -67.5t98.5 -184.5h-150q-14 59 -53.5 89.5t-97.5 30.5q-67 0 -112 -36t-63.5 -89.5t-18.5 -119.5q0 -100 48 -169.5t146 -69.5q156 0 170 154h-158v117h300v-386h-100l-16 81q-76 -98 -196 -98q-161 0 -256 106t-95 265z
M210 779l111 142h130l110 -142h-115l-62 81l-64 -81h-110z" />
    <glyph glyph-name="uni011D" unicode="&#x11d;" horiz-adv-x="611" 
d="M551 517v-484q0 -30 -5 -56.5t-21.5 -59.5t-44.5 -57t-78.5 -40t-118.5 -16q-86 0 -154 42.5t-74 123.5h141q17 -71 106 -71q58 0 86.5 34.5t27.5 93.5v68h-2q-22 -40 -63.5 -60t-91.5 -20q-111 0 -166 72.5t-55 187.5q0 106 59.5 181t162.5 75q106 0 154 -83h2v69h135z
M295 122q58 0 89.5 41.5t31.5 101.5q0 70 -28.5 114.5t-92.5 44.5q-57 0 -86 -42t-29 -105q0 -41 10 -74t37 -57t68 -24zM135 589l111 142h130l110 -142h-115l-62 81l-64 -81h-110z" />
    <glyph glyph-name="uni011E" unicode="&#x11e;" horiz-adv-x="759" 
d="M38 354q0 163 95 270t256 107q116 0 202.5 -67.5t98.5 -184.5h-150q-14 59 -53.5 89.5t-97.5 30.5q-67 0 -112 -36t-63.5 -89.5t-18.5 -119.5q0 -100 48 -169.5t146 -69.5q156 0 170 154h-158v117h300v-386h-100l-16 81q-76 -98 -196 -98q-161 0 -256 106t-95 265z
M218 921h65q5 -34 34.5 -50.5t64.5 -16.5q93 0 110 67h63q-18 -142 -178 -142q-72 0 -112.5 36.5t-46.5 105.5z" />
    <glyph glyph-name="uni011F" unicode="&#x11f;" horiz-adv-x="611" 
d="M551 517v-484q0 -30 -5 -56.5t-21.5 -59.5t-44.5 -57t-78.5 -40t-118.5 -16q-86 0 -154 42.5t-74 123.5h141q17 -71 106 -71q58 0 86.5 34.5t27.5 93.5v68h-2q-22 -40 -63.5 -60t-91.5 -20q-111 0 -166 72.5t-55 187.5q0 106 59.5 181t162.5 75q106 0 154 -83h2v69h135z
M295 122q58 0 89.5 41.5t31.5 101.5q0 70 -28.5 114.5t-92.5 44.5q-57 0 -86 -42t-29 -105q0 -41 10 -74t37 -57t68 -24zM143 731h65q5 -34 34.5 -50.5t64.5 -16.5q93 0 110 67h63q-18 -142 -178 -142q-72 0 -112.5 36.5t-46.5 105.5z" />
    <glyph glyph-name="uni0120" unicode="&#x120;" horiz-adv-x="759" 
d="M38 354q0 163 95 270t256 107q116 0 202.5 -67.5t98.5 -184.5h-150q-14 59 -53.5 89.5t-97.5 30.5q-67 0 -112 -36t-63.5 -89.5t-18.5 -119.5q0 -100 48 -169.5t146 -69.5q156 0 170 154h-158v117h300v-386h-100l-16 81q-76 -98 -196 -98q-161 0 -256 106t-95 265z
M316 788v117h135v-117h-135z" />
    <glyph glyph-name="uni0121" unicode="&#x121;" horiz-adv-x="611" 
d="M551 517v-484q0 -30 -5 -56.5t-21.5 -59.5t-44.5 -57t-78.5 -40t-118.5 -16q-86 0 -154 42.5t-74 123.5h141q17 -71 106 -71q58 0 86.5 34.5t27.5 93.5v68h-2q-22 -40 -63.5 -60t-91.5 -20q-111 0 -166 72.5t-55 187.5q0 106 59.5 181t162.5 75q106 0 154 -83h2v69h135z
M295 122q58 0 89.5 41.5t31.5 101.5q0 70 -28.5 114.5t-92.5 44.5q-57 0 -86 -42t-29 -105q0 -41 10 -74t37 -57t68 -24zM241 598v117h135v-117h-135z" />
    <glyph glyph-name="uni0122" unicode="&#x122;" horiz-adv-x="759" 
d="M38 354q0 163 95 270t256 107q116 0 202.5 -67.5t98.5 -184.5h-150q-14 59 -53.5 89.5t-97.5 30.5q-67 0 -112 -36t-63.5 -89.5t-18.5 -119.5q0 -100 48 -169.5t146 -69.5q156 0 170 154h-158v117h300v-386h-100l-16 81q-76 -98 -196 -98q-161 0 -256 106t-95 265z
M307 -143v93h145v-73q0 -58 -34 -76t-101 -18v37q48 4 57 37h-67z" />
    <glyph glyph-name="uni0123" unicode="&#x123;" horiz-adv-x="611" 
d="M551 517v-484q0 -30 -5 -56.5t-21.5 -59.5t-44.5 -57t-78.5 -40t-118.5 -16q-86 0 -154 42.5t-74 123.5h141q17 -71 106 -71q58 0 86.5 34.5t27.5 93.5v68h-2q-22 -40 -63.5 -60t-91.5 -20q-111 0 -166 72.5t-55 187.5q0 106 59.5 181t162.5 75q106 0 154 -83h2v69h135z
M295 122q58 0 89.5 41.5t31.5 101.5q0 70 -28.5 114.5t-92.5 44.5q-57 0 -86 -42t-29 -105q0 -41 10 -74t37 -57t68 -24zM380 714v-93h-145v73q0 58 34 76t101 18v-37q-48 -4 -57 -37h67z" />
    <glyph glyph-name="uni0124" unicode="&#x124;" horiz-adv-x="741" 
d="M69 0v714h157v-274h289v274h157v-714h-157v308h-289v-308h-157zM195 779l111 142h130l110 -142h-115l-62 81l-64 -81h-110z" />
    <glyph glyph-name="uni0125" unicode="&#x125;" horiz-adv-x="593" 
d="M54 0v714h142v-269h3q26 43 67 64.5t84 21.5q107 0 148 -54t41 -159v-318h-142v292q0 66 -20.5 96.5t-70.5 30.5q-58 0 -84 -35t-26 -113v-271h-142zM110 779l111 142h130l110 -142h-115l-62 81l-64 -81h-110z" />
    <glyph glyph-name="uni0126" unicode="&#x126;" horiz-adv-x="741" 
d="M69 0v714h157v-109h289v109h157v-714h-157v281h-289v-281h-157zM226 403h289v113h-289v-113z" />
    <glyph glyph-name="uni0127" unicode="&#x127;" horiz-adv-x="603" 
d="M64 0v568h-81v76h81v70h142v-70h158v-76h-158v-123h3q26 43 67 64.5t84 21.5q107 0 148 -54t41 -159v-318h-142v292q0 66 -20.5 96.5t-70.5 30.5q-58 0 -84 -35t-26 -113v-271h-142z" />
    <glyph glyph-name="uni0128" unicode="&#x128;" horiz-adv-x="295" 
d="M69 714h157v-714h-157v714zM219 799q-33 0 -80 24.5t-67 24.5q-33 0 -45 -49h-63q7 51 37.5 90t79.5 39q29 0 76 -21.5t67 -21.5q18 0 28 10t15 33h64q-11 -60 -36 -94.5t-76 -34.5z" />
    <glyph glyph-name="uni0129" unicode="&#x129;" horiz-adv-x="258" 
d="M58 517h142v-517h-142v517zM200 598q-33 0 -80 24.5t-67 24.5q-33 0 -45 -49h-63q7 51 37.5 90t79.5 39q28 0 75.5 -21.5t67.5 -21.5q18 0 28 10t15 33h64q-11 -60 -36 -94.5t-76 -34.5z" />
    <glyph glyph-name="uni012A" unicode="&#x12a;" horiz-adv-x="295" 
d="M69 0v714h157v-714h-157zM-30 809v75h353v-75h-353z" />
    <glyph glyph-name="uni012B" unicode="&#x12b;" horiz-adv-x="258" 
d="M58 0v517h142v-517h-142zM-47 619v75h353v-75h-353z" />
    <glyph glyph-name="uni012C" unicode="&#x12c;" horiz-adv-x="295" 
d="M69 0v714h157v-714h-157zM-20 921h65q5 -34 34.5 -50.5t64.5 -16.5q93 0 110 67h63q-18 -142 -178 -142q-72 0 -112.5 36.5t-46.5 105.5z" />
    <glyph glyph-name="uni012D" unicode="&#x12d;" horiz-adv-x="258" 
d="M58 0v517h142v-517h-142zM-37 731h65q5 -34 34.5 -50.5t64.5 -16.5q93 0 110 67h63q-18 -142 -178 -142q-72 0 -112.5 36.5t-46.5 105.5z" />
    <glyph glyph-name="uni012E" unicode="&#x12e;" horiz-adv-x="295" 
d="M69 0v714h157v-714q-53 -44 -69.5 -70t-16.5 -51q0 -36 32 -36q25 0 46 28l41 -26q-24 -33 -48.5 -47.5t-60.5 -14.5q-48 0 -75 22.5t-27 60.5q0 69 110 134h-89z" />
    <glyph glyph-name="uni012F" unicode="&#x12f;" horiz-adv-x="258" 
d="M200 714v-117h-142v117h142zM58 0v517h142v-517q-46 -44 -61.5 -70.5t-15.5 -50.5q0 -36 32 -36q25 0 46 28l41 -26q-24 -33 -48.5 -47.5t-60.5 -14.5q-48 0 -75 22.5t-27 60.5q0 67 107 134h-80z" />
    <glyph glyph-name="uni0130" unicode="&#x130;" horiz-adv-x="295" 
d="M69 0v714h157v-714h-157zM80 788v117h135v-117h-135z" />
    <glyph glyph-name="dotlessi" unicode="&#x131;" horiz-adv-x="258" 
d="M58 517h142v-517h-142v517z" />
    <glyph glyph-name="uni0132" unicode="&#x132;" horiz-adv-x="845" 
d="M69 0v714h157v-714h-157zM303 204v62h142v-32q0 -58 19.5 -88.5t71.5 -30.5q29 0 47.5 10t25.5 30.5t8.5 35.5t1.5 41v482h157v-489q0 -242 -238 -242q-98 0 -166.5 55.5t-68.5 165.5z" />
    <glyph glyph-name="uni0133" unicode="&#x133;" horiz-adv-x="524" 
d="M200 714v-117h-142v117h142zM58 0v517h142v-517h-142zM455 714v-117h-142v117h142zM227 -178v117q9 -4 31 -4q55 0 55 46v536h142v-543q0 -83 -39 -119.5t-143 -36.5q-26 0 -46 4z" />
    <glyph glyph-name="uni0134" unicode="&#x134;" horiz-adv-x="556" 
d="M14 204v62h142v-32q0 -58 19.5 -88.5t71.5 -30.5q29 0 47.5 10t25.5 30.5t8.5 35.5t1.5 41v482h157v-489q0 -242 -238 -242q-98 0 -166.5 55.5t-68.5 165.5zM228 779l111 142h130l110 -142h-115l-62 81l-64 -81h-110z" />
    <glyph glyph-name="uni0135" unicode="&#x135;" horiz-adv-x="278" 
d="M-19 -178v117q9 -4 31 -4q55 0 55 46v536h142v-543q0 -83 -39 -119.5t-143 -36.5q-26 0 -46 4zM-40 589l111 142h130l110 -142h-115l-62 81l-64 -81h-110z" />
    <glyph glyph-name="uni0136" unicode="&#x136;" horiz-adv-x="722" 
d="M69 0v714h157v-296l279 296h196l-279 -282l306 -432h-197l-215 321l-90 -91v-230h-157zM298 -143v93h145v-73q0 -58 -34 -76t-101 -18v37q48 4 57 37h-67z" />
    <glyph glyph-name="uni0137" unicode="&#x137;" horiz-adv-x="574" 
d="M67 0v714h142v-383l179 186h168l-195 -190l217 -327h-172l-142 231l-55 -53v-178h-142zM235 -143v93h145v-73q0 -58 -34 -76t-101 -18v37q48 4 57 37h-67z" />
    <glyph glyph-name="uni0138" unicode="&#x138;" horiz-adv-x="565" 
d="M54 0v517h142v-204l179 204h168l-194 -202l217 -315h-172l-140 216l-58 -56v-160h-142z" />
    <glyph glyph-name="uni0139" unicode="&#x139;" horiz-adv-x="593" 
d="M69 0v714h157v-582h348v-132h-505zM348 921l-154 -142h-99l96 142h157z" />
    <glyph glyph-name="uni013A" unicode="&#x13a;" horiz-adv-x="258" 
d="M58 0v714h142v-714h-142zM313 921l-154 -142h-99l96 142h157z" />
    <glyph glyph-name="uni013B" unicode="&#x13b;" horiz-adv-x="593" 
d="M69 0v714h157v-582h348v-132h-505zM246 -143v93h145v-73q0 -58 -34 -76t-101 -18v37q48 4 57 37h-67z" />
    <glyph glyph-name="uni013C" unicode="&#x13c;" horiz-adv-x="258" 
d="M58 0v714h142v-714h-142zM56 -143v93h145v-73q0 -58 -34 -76t-101 -18v37q48 4 57 37h-67z" />
    <glyph glyph-name="uni013D" unicode="&#x13d;" horiz-adv-x="593" 
d="M69 0v714h157v-582h348v-132h-505zM483 714l-81 -142h-98l31 142h148z" />
    <glyph glyph-name="uni013E" unicode="&#x13e;" horiz-adv-x="388" 
d="M58 0v714h142v-714h-142zM384 714v-312h-109v312h109z" />
    <glyph glyph-name="uni013F" unicode="&#x13f;" horiz-adv-x="593" 
d="M69 0v714h157v-582h348v-132h-505zM340 333v117h135v-117h-135z" />
    <glyph glyph-name="uni0140" unicode="&#x140;" horiz-adv-x="410" 
d="M58 0v714h142v-714h-142zM261 333v117h135v-117h-135z" />
    <glyph glyph-name="Lslash" unicode="&#x141;" horiz-adv-x="593" 
d="M69 214l-79 -56v112l79 56v388h157v-278l211 148v-112l-211 -148v-192h348v-132h-505v214z" />
    <glyph glyph-name="lslash" unicode="&#x142;" horiz-adv-x="258" 
d="M58 286l-66 -53v102l66 53v326h142v-214l67 53v-102l-67 -53v-398h-142v286z" />
    <glyph glyph-name="Nacute" unicode="&#x143;" horiz-adv-x="741" 
d="M69 714h156l298 -479h2v479h147v-714h-157l-297 478h-2v-478h-147v714zM405 955h156l-163 -177h-99z" />
    <glyph glyph-name="nacute" unicode="&#x144;" horiz-adv-x="593" 
d="M54 517h135v-72h3q52 86 158 86q107 0 148 -54t41 -159v-318h-142v292q0 66 -20.5 96.5t-70.5 30.5q-58 0 -84 -35t-26 -113v-271h-142v517zM332 785h156l-163 -177h-99z" />
    <glyph glyph-name="uni0145" unicode="&#x145;" horiz-adv-x="741" 
d="M69 0v714h156l298 -479h2v479h147v-714h-157l-297 478h-2v-478h-147zM300 -143v93h145v-73q0 -58 -34 -76t-101 -18v37q48 4 57 37h-67z" />
    <glyph glyph-name="uni0146" unicode="&#x146;" horiz-adv-x="593" 
d="M54 0v517h135v-72h3q52 86 158 86q107 0 148 -54t41 -159v-318h-142v292q0 66 -20.5 96.5t-70.5 30.5q-58 0 -84 -35t-26 -113v-271h-142zM221 -143v93h145v-73q0 -58 -34 -76t-101 -18v37q48 4 57 37h-67z" />
    <glyph glyph-name="uni0147" unicode="&#x147;" horiz-adv-x="741" 
d="M69 0v714h156l298 -479h2v479h147v-714h-157l-297 478h-2v-478h-147zM542 921l-111 -142h-130l-110 142h115l62 -81l64 81h110z" />
    <glyph glyph-name="uni0148" unicode="&#x148;" horiz-adv-x="593" 
d="M54 0v517h135v-72h3q52 86 158 86q107 0 148 -54t41 -159v-318h-142v292q0 66 -20.5 96.5t-70.5 30.5q-58 0 -84 -35t-26 -113v-271h-142zM472 731l-111 -142h-130l-110 142h115l62 -81l64 81h110z" />
    <glyph glyph-name="uni0149" unicode="&#x149;" horiz-adv-x="737" 
d="M198 0v517h135v-72h3q52 86 158 86q107 0 148 -54t41 -159v-318h-142v292q0 66 -20.5 96.5t-70.5 30.5q-58 0 -84 -35t-26 -113v-271h-142zM20 560v154h142v-153q2 -65 -38.5 -112.5t-103.5 -55.5v66q66 22 66 101h-66z" />
    <glyph glyph-name="uni014A" unicode="&#x14a;" horiz-adv-x="741" 
d="M69 0v714h156l298 -471h2v471h147v-715q0 -93 -45 -137t-154 -44q-33 0 -76 6v121q36 -6 58 -6q32 0 51.5 15t20.5 46l-309 478h-2v-478h-147z" />
    <glyph glyph-name="uni014B" unicode="&#x14b;" horiz-adv-x="593" 
d="M289 -178v117q20 -4 45 -4q28 0 45.5 16t17.5 48v293q0 66 -20.5 96.5t-70.5 30.5q-58 0 -84 -35t-26 -113v-271h-142v517h135v-72h3q52 86 158 86q107 0 148 -54t41 -159v-324q0 -90 -42.5 -133t-149.5 -43q-27 0 -58 4z" />
    <glyph glyph-name="uni014C" unicode="&#x14c;" horiz-adv-x="778" 
d="M38 354q0 163 95 270t256 107t256 -107t95 -270q0 -159 -95 -265t-256 -106t-256 106t-95 265zM195 354q0 -100 48 -169.5t146 -69.5t146 69.5t48 169.5q0 66 -18.5 119.5t-63.5 89.5t-112 36t-112 -36t-63.5 -89.5t-18.5 -119.5zM213 809v75h353v-75h-353z" />
    <glyph glyph-name="uni014D" unicode="&#x14d;" horiz-adv-x="611" 
d="M38 258q0 124 73 198.5t194 74.5q122 0 195 -74.5t73 -198.5q0 -123 -73 -197.5t-195 -74.5q-121 0 -194 74.5t-73 197.5zM180 258q0 -71 29.5 -118t95.5 -47q67 0 96.5 47t29.5 118t-29.5 118.5t-96.5 47.5q-66 0 -95.5 -47.5t-29.5 -118.5zM130 619v75h353v-75h-353z
" />
    <glyph glyph-name="uni014E" unicode="&#x14e;" horiz-adv-x="778" 
d="M38 354q0 163 95 270t256 107t256 -107t95 -270q0 -159 -95 -265t-256 -106t-256 106t-95 265zM195 354q0 -100 48 -169.5t146 -69.5t146 69.5t48 169.5q0 66 -18.5 119.5t-63.5 89.5t-112 36t-112 -36t-63.5 -89.5t-18.5 -119.5zM223 921h65q5 -34 34.5 -50.5
t64.5 -16.5q93 0 110 67h63q-18 -142 -178 -142q-72 0 -112.5 36.5t-46.5 105.5z" />
    <glyph glyph-name="uni014F" unicode="&#x14f;" horiz-adv-x="611" 
d="M38 258q0 124 73 198.5t194 74.5q122 0 195 -74.5t73 -198.5q0 -123 -73 -197.5t-195 -74.5q-121 0 -194 74.5t-73 197.5zM180 258q0 -71 29.5 -118t95.5 -47q67 0 96.5 47t29.5 118t-29.5 118.5t-96.5 47.5q-66 0 -95.5 -47.5t-29.5 -118.5zM140 731h65
q5 -34 34.5 -50.5t64.5 -16.5q93 0 110 67h63q-18 -142 -178 -142q-72 0 -112.5 36.5t-46.5 105.5z" />
    <glyph glyph-name="uni0150" unicode="&#x150;" horiz-adv-x="778" 
d="M38 354q0 163 95 270t256 107t256 -107t95 -270q0 -159 -95 -265t-256 -106t-256 106t-95 265zM195 354q0 -100 48 -169.5t146 -69.5t146 69.5t48 169.5q0 66 -18.5 119.5t-63.5 89.5t-112 36t-112 -36t-63.5 -89.5t-18.5 -119.5zM679 921l-149 -142h-99l91 142h157z
M472 921l-149 -142h-99l91 142h157z" />
    <glyph glyph-name="uni0151" unicode="&#x151;" horiz-adv-x="611" 
d="M38 258q0 124 73 198.5t194 74.5q122 0 195 -74.5t73 -198.5q0 -123 -73 -197.5t-195 -74.5q-121 0 -194 74.5t-73 197.5zM180 258q0 -71 29.5 -118t95.5 -47q67 0 96.5 47t29.5 118t-29.5 118.5t-96.5 47.5q-66 0 -95.5 -47.5t-29.5 -118.5zM596 731l-149 -142h-99
l91 142h157zM389 731l-149 -142h-99l91 142h157z" />
    <glyph glyph-name="OE" unicode="&#x152;" horiz-adv-x="1093" 
d="M538 448q0 67 -43.5 109t-110.5 42q-50 0 -88 -21t-59 -56.5t-31.5 -77.5t-10.5 -89q0 -99 46.5 -169.5t139.5 -70.5q72 0 114.5 45t42.5 118v170zM544 54h-2q-64 -70 -172 -70q-153 0 -242.5 107t-89.5 262q0 101 38.5 186t116.5 138.5t180 53.5q116 0 169 -68h2v51h500
v-132h-354v-153h324v-122h-324v-175h361v-132h-507v54z" />
    <glyph glyph-name="oe" unicode="&#x153;" horiz-adv-x="926" 
d="M528 224q0 -59 31.5 -95t91.5 -36q75 0 104 71h138q-25 -84 -89 -130.5t-153 -46.5q-133 0 -187 87q-26 -45 -76 -66t-107 -21q-115 0 -179 78.5t-64 195.5q0 116 70 193t184 77q125 0 178 -82q24 37 74.5 59.5t98.5 22.5q129 0 191.5 -86.5t62.5 -220.5h-369zM290 93
q114 0 114 167q0 164 -111 164q-60 0 -86.5 -49t-26.5 -119q0 -64 26 -113.5t84 -49.5zM755 314q-5 110 -115 110q-52 0 -81 -31t-31 -79h227z" />
    <glyph glyph-name="uni0154" unicode="&#x154;" horiz-adv-x="722" 
d="M69 0v714h385q94 0 151.5 -57t57.5 -140q0 -134 -113 -179v-2q94 -26 104 -167q0 -6 1.5 -30t2.5 -38.5t4 -36t8.5 -37.5t13.5 -27h-157q-8 20 -12 48.5t-7 66.5t-6 56q-8 58 -34.5 83t-84.5 25h-157v-279h-157zM226 592v-201h172q55 0 81.5 24.5t26.5 77.5q0 99 -108 99
h-172zM532 921l-154 -142h-99l96 142h157z" />
    <glyph glyph-name="uni0155" unicode="&#x155;" horiz-adv-x="389" 
d="M54 0v517h135v-96h2q20 49 66 79.5t99 30.5q13 0 31 -5v-132q-22 5 -51 5q-140 0 -140 -166v-233h-142zM410 731l-154 -142h-99l96 142h157z" />
    <glyph glyph-name="uni0156" unicode="&#x156;" horiz-adv-x="722" 
d="M69 0v714h385q94 0 151.5 -57t57.5 -140q0 -134 -113 -179v-2q94 -26 104 -167q0 -6 1.5 -30t2.5 -38.5t4 -36t8.5 -37.5t13.5 -27h-157q-8 20 -12 48.5t-7 66.5t-6 56q-8 58 -34.5 83t-84.5 25h-157v-279h-157zM226 592v-201h172q55 0 81.5 24.5t26.5 77.5q0 99 -108 99
h-172zM295 -143v93h145v-73q0 -58 -34 -76t-101 -18v37q48 4 57 37h-67z" />
    <glyph glyph-name="uni0157" unicode="&#x157;" horiz-adv-x="389" 
d="M54 0v517h135v-96h2q20 49 66 79.5t99 30.5q13 0 31 -5v-132q-22 5 -51 5q-140 0 -140 -166v-233h-142zM53 -143v93h145v-73q0 -58 -34 -76t-101 -18v37q48 4 57 37h-67z" />
    <glyph glyph-name="uni0158" unicode="&#x158;" horiz-adv-x="722" 
d="M69 0v714h385q94 0 151.5 -57t57.5 -140q0 -134 -113 -179v-2q94 -26 104 -167q0 -6 1.5 -30t2.5 -38.5t4 -36t8.5 -37.5t13.5 -27h-157q-8 20 -12 48.5t-7 66.5t-6 56q-8 58 -34.5 83t-84.5 25h-157v-279h-157zM226 592v-201h172q55 0 81.5 24.5t26.5 77.5q0 99 -108 99
h-172zM514 921l-111 -142h-130l-110 142h115l62 -81l64 81h110z" />
    <glyph glyph-name="uni0159" unicode="&#x159;" horiz-adv-x="389" 
d="M54 0v517h135v-96h2q20 49 66 79.5t99 30.5q13 0 31 -5v-132q-22 5 -51 5q-140 0 -140 -166v-233h-142zM396 731l-111 -142h-130l-110 142h115l62 -81l64 81h110z" />
    <glyph glyph-name="Sacute" unicode="&#x15a;" horiz-adv-x="649" 
d="M176 237q0 -67 44.5 -99.5t113.5 -32.5q33 0 61.5 6.5t53 27.5t24.5 55q0 19 -9.5 34t-21.5 24.5t-37 19t-42 14t-51 13t-51 13.5q-45 11 -78.5 24.5t-66.5 36.5t-50.5 59t-17.5 83q0 103 80 159.5t187 56.5q79 0 141 -22t103.5 -75.5t41.5 -132.5h-152q-6 108 -141 108
q-43 0 -75.5 -20t-32.5 -61q0 -40 34.5 -55.5t178.5 -52.5q212 -44 212 -208q0 -102 -77.5 -165t-219.5 -63q-61 0 -115 15t-97 44.5t-68 79.5t-24 114h152zM349 955h156l-163 -177h-99z" />
    <glyph glyph-name="sacute" unicode="&#x15b;" horiz-adv-x="537" 
d="M164 168q0 -43 32 -65t77 -22q36 0 64.5 16t28.5 50q0 30 -37 46t-124 34q-37 8 -61.5 17t-50.5 24.5t-39 39.5t-13 57q0 47 19 81t52.5 52t71 25.5t82.5 7.5q95 0 157.5 -38.5t70.5 -126.5h-135q-5 70 -97 70q-79 0 -79 -48q0 -11 4.5 -19.5t14 -15t19.5 -11t26.5 -9
t29 -7.5t33.5 -7.5t34 -7.5q77 -18 120.5 -49t43.5 -96q0 -49 -20 -85.5t-54.5 -56t-74.5 -28.5t-87 -9q-65 0 -116 15.5t-88 58t-39 107.5h135zM294 785h156l-163 -177h-99z" />
    <glyph glyph-name="uni015C" unicode="&#x15c;" horiz-adv-x="649" 
d="M24 237h152q0 -67 44.5 -99.5t113.5 -32.5q33 0 61.5 6.5t53 27.5t24.5 55q0 19 -9.5 34t-21.5 24.5t-37 19t-42 14t-51 13t-51 13.5q-46 11 -79 24.5t-66 36.5t-50.5 58.5t-17.5 83.5q0 103 80 159.5t187 56.5q79 0 141 -22t103.5 -75.5t41.5 -132.5h-152
q-6 108 -141 108q-43 0 -75.5 -20t-32.5 -61q0 -40 34.5 -55.5t178.5 -52.5q22 -6 29 -7.5t35 -11t42.5 -18t38 -25.5t35.5 -36t22 -48t10 -62q0 -102 -77.5 -165.5t-219.5 -63.5q-129 0 -217.5 65t-86.5 189zM153 779l111 142h130l110 -142h-115l-62 81l-64 -81h-110z" />
    <glyph glyph-name="uni015D" unicode="&#x15d;" horiz-adv-x="537" 
d="M29 168h135q0 -43 32 -65t77 -22q36 0 64.5 16t28.5 50q0 30 -37 46t-124 34q-37 8 -61.5 17t-50.5 24.5t-39 39.5t-13 57q0 47 19 81t52.5 52t71 25.5t82.5 7.5q95 0 157.5 -38.5t70.5 -126.5h-135q-5 70 -97 70q-79 0 -79 -48q0 -11 4.5 -19.5t14 -15t19.5 -11t26.5 -9
t29 -7.5t33.5 -7.5t34 -7.5q77 -18 120.5 -49t43.5 -96q0 -94 -68 -137t-168 -43q-65 0 -116 16t-88 58.5t-39 107.5zM96 589l111 142h130l110 -142h-115l-62 81l-64 -81h-110z" />
    <glyph glyph-name="uni015E" unicode="&#x15e;" horiz-adv-x="649" 
d="M194 -195l21 48q42 -18 79 -18q45 0 45 34q0 15 -11.5 24t-30.5 9q-17 0 -38 -8l-21 24l48 67q-115 11 -189.5 74.5t-72.5 177.5h152q0 -67 44.5 -99.5t113.5 -32.5q33 0 61.5 6.5t53 27.5t24.5 55q0 19 -9.5 34t-21.5 24.5t-37 19t-42 14t-51 13t-51 13.5
q-46 11 -79 24.5t-66 36.5t-50.5 58.5t-17.5 83.5q0 103 80 159.5t187 56.5q79 0 141 -22t103.5 -75.5t41.5 -132.5h-152q-6 108 -141 108q-43 0 -75.5 -20t-32.5 -61q0 -40 34.5 -55.5t178.5 -52.5q22 -6 29 -7.5t35 -11t42.5 -18t38 -25.5t35.5 -36t22 -48t10 -62
q0 -101 -76 -164t-216 -65l-26 -35l2 -2q17 7 40 7q39 0 62.5 -20.5t23.5 -56.5q0 -44 -32.5 -68.5t-92.5 -24.5q-59 0 -116 22z" />
    <glyph glyph-name="uni015F" unicode="&#x15f;" horiz-adv-x="537" 
d="M138 -195l21 48q42 -18 79 -18q45 0 45 34q0 15 -11.5 24t-30.5 9q-17 0 -38 -8l-21 24l50 70q-87 7 -144 51t-59 129h135q0 -43 32 -65t77 -22q36 0 64.5 16t28.5 50q0 30 -37 46t-124 34q-37 8 -61.5 17t-50.5 24.5t-39 39.5t-13 57q0 47 19 81t52.5 52t71 25.5
t82.5 7.5q95 0 157.5 -38.5t70.5 -126.5h-135q-5 70 -97 70q-79 0 -79 -48q0 -11 4.5 -19.5t14 -15t19.5 -11t26.5 -9t29 -7.5t33.5 -7.5t34 -7.5q77 -18 120.5 -49t43.5 -96q0 -92 -65.5 -134.5t-163.5 -45.5l-28 -38l2 -2q17 7 40 7q39 0 62.5 -20.5t23.5 -56.5
q0 -44 -32.5 -68.5t-92.5 -24.5q-59 0 -116 22z" />
    <glyph glyph-name="Scaron" unicode="&#x160;" horiz-adv-x="649" 
d="M390 778h-130l-111 142h112l64 -81l65 81h110zM176 237q0 -67 44.5 -99.5t113.5 -32.5q33 0 61.5 6.5t53 27.5t24.5 55q0 19 -9.5 34t-21.5 24.5t-37 19t-42 14t-51 13t-51 13.5q-45 11 -78.5 24.5t-66.5 36.5t-50.5 59t-17.5 83q0 103 80 159.5t187 56.5q79 0 141 -22
t103.5 -75.5t41.5 -132.5h-152q-6 108 -141 108q-43 0 -75.5 -20t-32.5 -61q0 -40 34.5 -55.5t178.5 -52.5q212 -44 212 -208q0 -102 -77.5 -165t-219.5 -63q-61 0 -115 15t-97 44.5t-68 79.5t-24 114h152z" />
    <glyph glyph-name="scaron" unicode="&#x161;" horiz-adv-x="537" 
d="M334 581h-130l-111 142h112l64 -81l65 81h110zM164 168q0 -43 32 -65t77 -22q36 0 64.5 16t28.5 50q0 30 -37 46t-124 34q-37 8 -61.5 17t-50.5 24.5t-39 39.5t-13 57q0 47 19 81t52.5 52t71 25.5t82.5 7.5q95 0 157.5 -38.5t70.5 -126.5h-135q-5 70 -97 70
q-79 0 -79 -48q0 -11 4.5 -19.5t14 -15t19.5 -11t26.5 -9t29 -7.5t33.5 -7.5t34 -7.5q77 -18 120.5 -49t43.5 -96q0 -49 -20 -85.5t-54.5 -56t-74.5 -28.5t-87 -9q-65 0 -116 15.5t-88 58t-39 107.5h135z" />
    <glyph glyph-name="uni0162" unicode="&#x162;" horiz-adv-x="611" 
d="M227 0v582h-214v132h585v-132h-214v-582h-157zM233 -143v93h145v-73q0 -58 -34 -76t-101 -18v37q48 4 57 37h-67z" />
    <glyph glyph-name="uni0163" unicode="&#x163;" horiz-adv-x="352" 
d="M234 672v-155h104v-95h-104v-256q0 -36 12 -48t48 -12q27 0 44 4v-111q-30 -5 -83 -5q-36 0 -63 5t-51 17.5t-36.5 37.5t-12.5 63v305h-86v95h86v155h142zM104 -195l21 48q42 -18 84 -18q40 0 40 34q0 32 -40 32q-23 0 -40 -7l-21 24l59 84h49l-39 -54h2q13 5 34 5
q37 0 64.5 -18t27.5 -52q0 -100 -117 -100q-64 0 -124 22z" />
    <glyph glyph-name="uni0164" unicode="&#x164;" horiz-adv-x="611" 
d="M227 0v582h-214v132h585v-132h-214v-582h-157zM481 921l-111 -142h-130l-110 142h115l62 -81l64 81h110z" />
    <glyph glyph-name="uni0165" unicode="&#x165;" horiz-adv-x="352" 
d="M466 714l-81 -142h-98l31 142h148zM234 672v-155h104v-95h-104v-256q0 -36 12 -48t48 -12q27 0 44 4v-111q-30 -5 -83 -5q-36 0 -63 5t-51 17.5t-36.5 37.5t-12.5 63v305h-86v95h86v155h142z" />
    <glyph glyph-name="uni0166" unicode="&#x166;" horiz-adv-x="611" 
d="M80 366v96h147v120h-214v132h585v-132h-214v-120h147v-96h-147v-366h-157v366h-147z" />
    <glyph glyph-name="uni0167" unicode="&#x167;" horiz-adv-x="352" 
d="M234 672v-155h104v-95h-104v-81h92v-76h-92v-99q0 -36 12 -48t48 -12q27 0 44 4v-111q-30 -5 -83 -5q-36 0 -63 5t-51 17.5t-36.5 37.5t-12.5 63v148h-78v76h78v81h-86v95h86v155h142z" />
    <glyph glyph-name="uni0168" unicode="&#x168;" horiz-adv-x="741" 
d="M675 270q0 -142 -79.5 -214t-225.5 -72q-147 0 -225.5 71t-78.5 215v444h157v-444q0 -70 30.5 -112.5t116.5 -42.5q82 0 115 36.5t33 118.5v444h157v-444zM442 799q-33 0 -80 24.5t-67 24.5q-33 0 -45 -49h-63q7 51 37.5 90t79.5 39q29 0 76 -21.5t67 -21.5q18 0 28 10
t15 33h64q-11 -60 -36 -94.5t-76 -34.5z" />
    <glyph glyph-name="uni0169" unicode="&#x169;" horiz-adv-x="593" 
d="M539 0h-135v72h-3q-51 -85 -158 -85t-148 53.5t-41 158.5v318h142v-292q0 -66 20.5 -96.5t70.5 -30.5q58 0 84 35t26 113v271h142v-517zM368 598q-33 0 -80 24.5t-67 24.5q-33 0 -45 -49h-63q7 51 37.5 90t79.5 39q28 0 76 -21.5t67 -21.5q18 0 28 10t15 33h64
q-11 -60 -36 -94.5t-76 -34.5z" />
    <glyph glyph-name="uni016A" unicode="&#x16a;" horiz-adv-x="741" 
d="M675 714v-444q0 -142 -79.5 -214.5t-225.5 -72.5q-147 0 -225.5 71.5t-78.5 215.5v444h157v-444q0 -71 30.5 -113t116.5 -42q82 0 115 36.5t33 118.5v444h157zM194 809v75h353v-75h-353z" />
    <glyph glyph-name="uni016B" unicode="&#x16b;" horiz-adv-x="593" 
d="M539 517v-517h-135v72h-3q-52 -86 -158 -86q-107 0 -148 54t-41 159v318h142v-292q0 -66 20.5 -96.5t70.5 -30.5q58 0 84 35t26 113v271h142zM123 619v75h353v-75h-353z" />
    <glyph glyph-name="uni016C" unicode="&#x16c;" horiz-adv-x="741" 
d="M675 714v-444q0 -142 -79.5 -214.5t-225.5 -72.5q-147 0 -225.5 71.5t-78.5 215.5v444h157v-444q0 -71 30.5 -113t116.5 -42q82 0 115 36.5t33 118.5v444h157zM204 921h65q5 -34 34.5 -50.5t64.5 -16.5q93 0 110 67h63q-18 -142 -178 -142q-72 0 -112.5 36.5t-46.5 105.5
z" />
    <glyph glyph-name="uni016D" unicode="&#x16d;" horiz-adv-x="593" 
d="M539 517v-517h-135v72h-3q-52 -86 -158 -86q-107 0 -148 54t-41 159v318h142v-292q0 -66 20.5 -96.5t70.5 -30.5q58 0 84 35t26 113v271h142zM132 731h65q5 -34 34.5 -50.5t64.5 -16.5q93 0 110 67h63q-18 -142 -178 -142q-72 0 -112.5 36.5t-46.5 105.5z" />
    <glyph glyph-name="uni016E.low" unicode="&#x16e;" horiz-adv-x="741" 
d="M675 714v-444q0 -142 -79.5 -214.5t-225.5 -72.5q-147 0 -225.5 71.5t-78.5 215.5v444h157v-444q0 -71 30.5 -113t116.5 -42q82 0 115 36.5t33 118.5v444h157zM487 839q0 -48 -34 -81t-83 -33q-50 0 -83.5 33t-33.5 81t34 81t83 33q50 0 83.5 -33t33.5 -81zM309 839
q0 -27 17 -45t44 -18q28 0 44.5 17.5t16.5 45.5q0 27 -17 45t-44 18q-28 0 -44.5 -17.5t-16.5 -45.5z" />
    <glyph glyph-name="uni016F" unicode="&#x16f;" horiz-adv-x="593" 
d="M539 517v-517h-135v72h-3q-52 -86 -158 -86q-107 0 -148 54t-41 159v318h142v-292q0 -66 20.5 -96.5t70.5 -30.5q58 0 84 35t26 113v271h142zM176 684q0 51 35.5 85.5t87.5 34.5q53 0 87.5 -34t34.5 -86q0 -51 -35.5 -85.5t-87.5 -34.5q-53 0 -87.5 34t-34.5 86zM362 684
q0 30 -17 48.5t-46 18.5t-46.5 -18.5t-17.5 -48.5t17 -48.5t46 -18.5t46.5 18.5t17.5 48.5z" />
    <glyph glyph-name="uni0170" unicode="&#x170;" horiz-adv-x="741" 
d="M675 714v-444q0 -142 -79.5 -214.5t-225.5 -72.5q-147 0 -225.5 71.5t-78.5 215.5v444h157v-444q0 -71 30.5 -113t116.5 -42q82 0 115 36.5t33 118.5v444h157zM660 921l-149 -142h-99l91 142h157zM453 921l-149 -142h-99l91 142h157z" />
    <glyph glyph-name="uni0171" unicode="&#x171;" horiz-adv-x="593" 
d="M539 517v-517h-135v72h-3q-52 -86 -158 -86q-107 0 -148 54t-41 159v318h142v-292q0 -66 20.5 -96.5t70.5 -30.5q58 0 84 35t26 113v271h142zM588 731l-149 -142h-99l91 142h157zM381 731l-149 -142h-99l91 142h157z" />
    <glyph glyph-name="uni0172" unicode="&#x172;" horiz-adv-x="741" 
d="M442 -125l45 -26q-43 -66 -124 -66q-50 0 -79.5 22.5t-29.5 60.5q0 60 82 118q-270 17 -270 286v444h157v-444q0 -71 30.5 -113t116.5 -42q82 0 115 36.5t33 118.5v444h157v-444q0 -133 -69.5 -205t-197.5 -81q-58 -60 -58 -103q0 -17 10.5 -27.5t26.5 -10.5q28 0 55 32z
" />
    <glyph glyph-name="uni0173" unicode="&#x173;" horiz-adv-x="593" 
d="M539 517v-517h-65q-66 -66 -66 -118q0 -18 11 -28.5t27 -10.5q28 0 55 32l45 -26q-43 -66 -124 -66q-50 0 -79.5 23t-29.5 61q0 35 22 65.5t69 67.5v72h-3q-52 -86 -158 -86q-107 0 -148 54t-41 159v318h142v-292q0 -66 20.5 -96.5t70.5 -30.5q58 0 84 35t26 113v271h142
z" />
    <glyph glyph-name="uni0174" unicode="&#x174;" horiz-adv-x="944" 
d="M941 714l-192 -714h-156l-121 486h-2l-119 -486h-159l-189 714h157l113 -486h2l124 486h147l122 -492h2l117 492h154zM299 779l111 142h130l110 -142h-115l-62 81l-64 -81h-110z" />
    <glyph glyph-name="uni0175" unicode="&#x175;" horiz-adv-x="814" 
d="M808 517l-163 -517h-146l-92 347h-2l-88 -347h-147l-164 517h150l95 -351h2l86 351h138l88 -350h2l95 350h146zM234 589l111 142h130l110 -142h-115l-62 81l-64 -81h-110z" />
    <glyph glyph-name="uni0176" unicode="&#x176;" horiz-adv-x="667" 
d="M254 0v278l-263 436h177l167 -282l166 282h175l-265 -440v-274h-157zM162 779l111 142h130l110 -142h-115l-62 81l-64 -81h-110z" />
    <glyph glyph-name="uni0177" unicode="&#x177;" horiz-adv-x="519" 
d="M525 517l-216 -582q-23 -63 -64 -90t-114 -27q-39 0 -87 5v117q38 -5 76 -5q28 0 45 18t17 47q0 17 -6 32l-182 485h152l117 -354h2l113 354h147zM91 589l111 142h130l110 -142h-115l-62 81l-64 -81h-110z" />
    <glyph glyph-name="Ydieresis" unicode="&#x178;" horiz-adv-x="667" 
d="M163 911h135v-117h-135v117zM369 911h135v-117h-135v117zM254 278l-262 436h176l167 -282l166 282h175l-265 -440v-274h-157v278z" />
    <glyph glyph-name="Zacute" unicode="&#x179;" horiz-adv-x="648" 
d="M23 124l383 458h-353v132h562v-124l-383 -458h393v-132h-602v124zM349 955h156l-163 -177h-99z" />
    <glyph glyph-name="zacute" unicode="&#x17a;" horiz-adv-x="519" 
d="M22 107l269 303h-249v107h436v-107l-269 -303h288v-107h-475v107zM284 785h156l-163 -177h-99z" />
    <glyph glyph-name="Zdotaccent" unicode="&#x17b;" horiz-adv-x="648" 
d="M23 124l383 458h-353v132h562v-124l-383 -458h393v-132h-602v124zM257 923h135v-117h-135v117z" />
    <glyph glyph-name="zdotaccent" unicode="&#x17c;" horiz-adv-x="519" 
d="M22 107l269 303h-249v107h436v-107l-269 -303h288v-107h-475v107zM192 739h135v-117h-135v117z" />
    <glyph glyph-name="Zcaron" unicode="&#x17d;" horiz-adv-x="648" 
d="M390 778h-130l-111 142h112l64 -81l65 81h110zM23 124l383 458h-353v132h562v-124l-383 -458h393v-132h-602v124z" />
    <glyph glyph-name="zcaron" unicode="&#x17e;" horiz-adv-x="519" 
d="M325 581h-130l-111 142h112l64 -81l65 81h110zM22 107l269 303h-249v107h436v-107l-269 -303h288v-107h-475v107z" />
    <glyph glyph-name="uni017F" unicode="&#x17f;" horiz-adv-x="333" 
d="M227 572v-143v-429h-139v429h-78v98h76v35q0 85 29 117q31 48 146 48q29 0 53 -3v-113q-3 0 -8.5 0.5t-14.5 1t-16 0.5q-48 1 -48 -41z" />
    <glyph glyph-name="uni0180" unicode="&#x180;" horiz-adv-x="611" 
d="M234 588v-123q51 80 147 80q105 0 167 -78q63 -78 63 -215q0 -118 -64 -194q-63 -75 -156 -75q-57 0 -95 21.5t-68 69.5v-74h-135v588h-62v75h62v56h141v-56h144v-75h-144zM230 258q0 -72 31.5 -114.5t89.5 -42.5t87.5 43t29.5 119q0 72 -30 116t-88 44q-40 0 -71 -25
q-49 -42 -49 -140z" />
    <glyph glyph-name="uni0182" unicode="&#x182;" horiz-adv-x="667" 
d="M229 461h153q123 0 185.5 -55t62.5 -178q0 -114 -63 -171t-174 -57h-313v718l-4 4h528v-128h-375v-133zM229 125h140q112 0 112 104q0 108 -112 108h-140v-212z" />
    <glyph glyph-name="uni0183" unicode="&#x183;" horiz-adv-x="611" 
d="M60 718l-4 4h440v-128h-293l-4 4v-135q25 36 58 57q37 24 96 24q106 0 164 -76q59 -76 59 -195q0 -123 -59 -206q-59 -81 -163 -81q-65 0 -106 26q-24 16 -52 55v-67h-136v718zM430 258q0 55 -14 94q-28 70 -103 70t-104 -68q-15 -38 -15 -95q0 -72 31.5 -115t91.5 -43
q53 0 83 42.5t30 114.5z" />
    <glyph glyph-name="uni0186" unicode="&#x186;" horiz-adv-x="722" 
d="M583 68q-87 -89 -223 -89q-182 0 -266 120q-45 66 -50 134h151q13 -51 37 -78q41 -47 122 -47q82 0 129.5 66.5t47.5 186.5q0 117 -48.5 179.5t-128.5 62.5q-81 0 -121 -52q-24 -30 -38 -83h-149q20 118 99 191q82 74 207 74q156 0 244 -100q89 -101 89 -274
q0 -189 -102 -291z" />
    <glyph glyph-name="uni0189" unicode="&#x189;" horiz-adv-x="722" 
d="M222 125h104q59 0 88 8q43 12 72 53q25 37 36 89q10 50 10 92q0 148 -73 199q-41 29 -126 29h-111v-149h152v-125h-152v-196zM637 152q-78 -152 -261 -152h-300v321h-67v125h67v273h301q85 0 143.5 -26t100.5 -84q64 -89 64 -232q0 -131 -48 -225z" />
    <glyph glyph-name="uni018B" unicode="&#x18b;" horiz-adv-x="667" 
d="M324 461h153v133h-374v128h527l-4 -4v-718h-313q-111 0 -174 57t-63 171q0 123 62.5 178t185.5 55zM337 125h140v212h-140q-112 0 -112 -108q0 -104 112 -104z" />
    <glyph glyph-name="uni018C" unicode="&#x18c;" horiz-adv-x="611" 
d="M576 722l-4 -4v-718h-136v67q-28 -39 -52 -55q-41 -26 -106 -26q-106 0 -164 81q-58 82 -58 206q0 119 59 195q60 76 165 76q58 0 95 -24q32 -20 59 -57v135l-5 -4h-293v128h440zM202 258q0 -72 30 -114.5t83 -42.5q60 0 91.5 43t31.5 115q0 57 -15 95q-29 68 -104 68
q-74 0 -102 -70q-15 -38 -15 -94z" />
    <glyph glyph-name="uni018D" unicode="&#x18d;" horiz-adv-x="577" 
d="M327 193l173 -108v-100h-421v112h220q-12 2 -79 57q-72 59 -127 137q-58 82 -58 172q0 111 68 182q67 70 176 70q120 0 187 -73q69 -72 69 -191q0 -97 -57 -168q-55 -70 -151 -90zM279 293q54 0 85 49q32 50 32 115q0 67 -31 110.5t-86 43.5q-54 0 -82 -46
q-28 -44 -28 -109q0 -66 30 -115q30 -48 80 -48z" />
    <glyph glyph-name="uni018E" unicode="&#x18e;" horiz-adv-x="667" 
d="M98 592v128h527v-720h-545v129h399v185h-350v125h350v153h-381z" />
    <glyph glyph-name="uni018F" unicode="&#x18f;" horiz-adv-x="778" 
d="M739 358q0 -191 -109 -294q-81 -84 -235 -84q-155 0 -236 84q-110 104 -110 297q0 21 2 55h529q-15 85 -64.5 135t-123.5 50q-61 0 -105 -29t-58 -82h-149q14 105 100 173t209 68q160 0 255 -106t95 -267zM252 173q52 -66 143 -66q89 0 141 66q41 53 50 137h-385
q9 -84 51 -137z" />
    <glyph glyph-name="uni0190" unicode="&#x190;" horiz-adv-x="568" 
d="M26 231q0 56 30 104q31 55 84 64q-43 21 -67.5 61.5t-24.5 88.5q0 97 66 147q59 44 160 44q142 0 202 -93q17 -27 21 -61l2 -47h-120q0 39 -24 67q-29 35 -85 35q-45 0 -71 -27t-26 -72q0 -48 35 -78q28 -25 60 -25h68v-105h-76q-32 0 -64 -26q-38 -32 -38 -78
q0 -61 29 -99q33 -42 92 -42q123 0 123 131h126q0 -107 -65 -175q-65 -69 -172 -69q-124 0 -193 66q-72 68 -72 189z" />
    <glyph glyph-name="uni0191" unicode="&#x191;" horiz-adv-x="611" 
d="M9 -213v111q7 0 12.5 -0.5t8.5 -1t5 -0.5q21 0 31 11t10 38v774h510v-127h-360v-165h316v-125h-316v-302h-2v-57q0 -81 -32 -119q-32 -39 -133 -39q-4 0 -10.5 0.5t-18.5 1t-21 0.5z" />
    <glyph glyph-name="florin" unicode="&#x192;" horiz-adv-x="556" 
d="M14 -59q19 -3 40 -3q36 -1 50.5 16t21.5 54l63 329h-92l18 95h91l24 127q18 95 63.5 133.5t142.5 38.5q46 0 75 -7l-18 -107q-15 7 -40 7q-38 0 -54 -14t-22 -48l-25 -130h98l-16 -95h-100l-56 -310q-19 -107 -61.5 -151.5t-147.5 -44.5q-46 0 -73 3z" />
    <glyph glyph-name="uni0196" unicode="&#x196;" horiz-adv-x="278" 
d="M250 89v-111l-50 -2q-93 0 -125 38q-32 40 -32 120v587h140v-585q0 -28 10 -38.5t31 -10.5q2 0 5 0.5t8.5 1t12.5 0.5z" />
    <glyph glyph-name="uni0197" unicode="&#x197;" horiz-adv-x="390" 
d="M21 416v74h101v230h139v-230h107v-74h-107v-416h-139v416h-101z" />
    <glyph glyph-name="uni019A" unicode="&#x19a;" horiz-adv-x="390" 
d="M21 416v74h101v230h139v-230h107v-74h-107v-416h-139v416h-101z" />
    <glyph glyph-name="uni019B" unicode="&#x19b;" horiz-adv-x="549" 
d="M44 484v74l123 30l-43 118h148l31 -84l137 34v-74l-112 -28l204 -554h-154l-100 322h-2l-97 -322h-155l179 490l-11 30z" />
    <glyph glyph-name="uni019D" unicode="&#x19d;" horiz-adv-x="722" 
d="M6 -213v111q7 0 12.5 -0.5t8.5 -1t5 -0.5q21 0 31 11t10 38v585h1v190h157l287 -503v503h140v-720h-150l-294 511v-511h-2v-57q0 -81 -32 -119q-31 -39 -124 -39q-4 0 -10.5 0.5t-18.5 1t-21 0.5z" />
    <glyph glyph-name="uni019E" unicode="&#x19e;" horiz-adv-x="611" 
d="M547 358v-569h-142v535q0 40 -11 64q-21 41 -79 41q-70 0 -97 -60q-13 -30 -13 -81v-288h-139v531h134v-77q28 42 51 59q44 32 109 32q81 0 134 -44t53 -143z" />
    <glyph glyph-name="uni019F" unicode="&#x19f;" horiz-adv-x="778" 
d="M630 64q-81 -84 -235 -84q-155 0 -236 84q-110 104 -110 297q0 198 110 297q81 84 236 84q154 0 235 -84q109 -99 109 -297q0 -194 -109 -297zM252 173q52 -66 143 -66q89 0 141 66q41 53 50 137h-385q9 -84 51 -137zM536 548q-52 66 -141 66q-91 0 -143 -66
q-41 -50 -50 -132h384q-11 84 -50 132z" />
    <glyph glyph-name="uni01A0" unicode="&#x1a0;" horiz-adv-x="946" 
d="M68 354q0 163 96.5 270t259.5 107q188 0 285 -140q39 0 76 20l-42 73l126 73l75 -131l-109 -63q-44 -26 -91 -32q36 -79 36 -177q0 -160 -96.5 -265t-259.5 -105t-259.5 105t-96.5 265zM225 354q0 -100 49 -169.5t150 -69.5t150 69.5t49 169.5q0 104 -49 174.5t-150 70.5
t-150 -70.5t-49 -174.5z" />
    <glyph glyph-name="uni01A1" unicode="&#x1a1;" horiz-adv-x="795" 
d="M58 258q0 124 74 198.5t197 74.5q140 0 214 -93q14 -2 21 -2q31 0 70 19l-43 73l126 73l75 -131l-108 -63q-54 -32 -104 -33q21 -57 21 -116q0 -123 -74.5 -197t-197.5 -74t-197 73.5t-74 197.5zM200 258q0 -71 30 -118t99 -47t99.5 47t30.5 118t-30.5 118.5t-99.5 47.5
t-99 -47t-30 -119z" />
    <glyph glyph-name="uni01A2" unicode="&#x1a2;" horiz-adv-x="922" 
d="M696 -181v763h-90v-529q-91 -69 -217 -69q-161 0 -256 105t-95 265q0 163 95 270t256 107q59 0 115 -17h349v-895h-157zM389 115q30 0 60 8v468q-30 8 -60 8q-67 0 -112 -36t-63.5 -89.5t-18.5 -119.5q0 -100 48 -169.5t146 -69.5z" />
    <glyph glyph-name="uni01A3" unicode="&#x1a3;" horiz-adv-x="764" 
d="M568 -181v591h-68v-349q-74 -74 -195 -74q-122 0 -194.5 73.5t-72.5 197.5t73 198.5t194 74.5q49 0 94 -14h311v-698h-142zM305 93q29 0 53 10v311q-27 10 -53 10q-66 0 -95.5 -47.5t-29.5 -118.5t29.5 -118t95.5 -47z" />
    <glyph glyph-name="uni01A6" unicode="&#x1a6;" horiz-adv-x="650" 
d="M29 0v720h147v-98h206q72 -1 114 -17.5t71 -51.5q51 -57 51 -136q0 -51 -26 -101q-25 -48 -85 -70q51 -20 71 -57.5t20 -111.5v-49q0 -51 4 -67q6 -28 27 -41v-18h-165q-6 20 -10 39q-6 30 -6 62l-1 67q-2 70 -26 92q-25 23 -90 23h-155v-185h-147zM351 497h-175v-193
h170q49 0 76 11q45 21 45 81q0 66 -43 88q-25 13 -73 13z" />
    <glyph glyph-name="uni01A7" unicode="&#x1a7;" horiz-adv-x="667" 
d="M489 222h143q0 -112 -81 -177q-79 -64 -220 -64q-137 0 -214 65q-75 66 -75 164t64 147q43 34 123 53l125 29q70 18 93 30q34 19 34 58q0 42 -34.5 65.5t-92.5 23.5q-52 0 -87 -18q-53 -28 -57 -93h-145q4 115 84 175q80 61 195 61q136 0 206 -64q71 -65 71 -161
q0 -107 -73 -156q-46 -30 -155 -55l-77 -17q-68 -15 -98 -34q-31 -19 -31 -55q0 -61 63 -83q33 -12 86 -12q88 0 126 44q20 26 27 74z" />
    <glyph glyph-name="uni01A8" unicode="&#x1a8;" horiz-adv-x="556" 
d="M377 170h142q0 -85 -62 -136.5t-184 -51.5q-119 0 -179.5 48.5t-60.5 130.5q0 59 41 100q39 39 124 59q126 29 145 39q21 11 21 35q0 20 -21 33.5t-63 13.5q-56 0 -78 -28q-14 -17 -15 -43h-140q9 94 69.5 135.5t165.5 41.5q104 0 162 -53q58 -52 58 -126q0 -63 -37 -96
q-36 -33 -127 -56q-125 -30 -145 -42t-20 -36q0 -49 90 -49q70 0 95 28q15 16 19 53z" />
    <glyph glyph-name="uni01A9" unicode="&#x1a9;" horiz-adv-x="595" 
d="M230 585l227 -227l-227 -228h332v-130h-532v110l245 247l-245 248v110h532v-130h-332z" />
    <glyph glyph-name="uni01AE" unicode="&#x1ae;" horiz-adv-x="611" 
d="M166 -213v111q6 0 11.5 -0.5t8.5 -1t5 -0.5q21 0 31 11t10 38v647h-216v128h583v-128h-215v-649q0 -83 -39 -120.5t-130 -37.5q-1 0 -49 2z" />
    <glyph glyph-name="uni01AF" unicode="&#x1af;" horiz-adv-x="918" 
d="M655 531v-261q0 -142 -77 -214t-218 -72q-143 0 -218.5 71t-75.5 215v444h157v-444q0 -32 5.5 -57t19 -48.5t42 -36.5t70.5 -13q76 0 107 36.5t31 118.5v444h157v-122q3 -1 14 -1q29 0 67 20l-43 73l126 73l76 -131l-109 -63q-58 -34 -105 -34q-10 0 -26 2z" />
    <glyph glyph-name="uni01B0" unicode="&#x1b0;" horiz-adv-x="805" 
d="M559 0h-135v72h-3q-51 -85 -158 -85t-148 53.5t-41 158.5v318h142v-292q0 -66 20.5 -96.5t70.5 -30.5q58 0 84 35t26 113v271h142v-57h8q36 0 77 19l-43 73l126 73l75 -130l-109 -63q-58 -34 -113 -34q-14 0 -21 1v-399z" />
    <glyph glyph-name="uni01B1" unicode="&#x1b1;" horiz-adv-x="775" 
d="M384 135q81 0 123 60t42 145q0 87 -24 145.5t-81 99.5v130h285v-120h-149q125 -99 125 -260q0 -141 -84 -238q-82 -97 -231 -97q-144 0 -232 97q-89 98 -89 238q0 86 29 146.5t96 113.5h-150v120h286v-130q-57 -41 -81 -99t-24 -146q0 -86 39 -146q41 -59 120 -59z" />
    <glyph glyph-name="uni01B5" unicode="&#x1b5;" horiz-adv-x="648" 
d="M23 0v124l157 183h-89v122h193l132 153h-363v132h562v-124l-138 -161h91v-122h-196l-150 -175h403v-132h-602z" />
    <glyph glyph-name="uni01B6" unicode="&#x1b6;" horiz-adv-x="519" 
d="M22 0v107l105 114h-51v91h135l90 98h-259v107h436v-107l-90 -98h58v-91h-142l-105 -114h298v-107h-475z" />
    <glyph glyph-name="uni01B7" unicode="&#x1b7;" horiz-adv-x="600" 
d="M143 358l227 232h-332v130h532v-110l-147 -154q46 -21 76 -56q66 -38 66 -174q0 -122 -85 -179q-85 -56 -213 -56t-194 92q-42 57 -46 120h142q6 -46 27.5 -70.5t67.5 -24.5q70 0 113 32t43 89q0 60 -14 99q-23 23 -80 30l-1 -1z" />
    <glyph glyph-name="uni01B8" unicode="&#x1b8;" horiz-adv-x="600" 
d="M229 590l228 -232l-183 -1l-1 1q-58 -8 -80 -30q-13 -36 -13 -99q0 -57 43 -89t113 -32q86 0 94 95h142q-4 -63 -46 -120q-65 -92 -193 -92t-214 56q-85 57 -85 179q0 137 67 174q30 35 76 56l-148 154v110h533v-130h-333z" />
    <glyph glyph-name="uni01B9" unicode="&#x1b9;" horiz-adv-x="551" 
d="M229 400l179 -232l-134 -1l-1 1q-58 -8 -80 -30q-13 -42 -13 -106q0 -130 122 -130q48 0 62 27q12 23 17 68h142q-4 -64 -45 -121q-46 -91 -175 -91q-130 0 -199.5 61.5t-69.5 182.5q0 138 67 181q30 35 76 56l-148 154v110h484v-130h-284z" />
    <glyph glyph-name="uni01BB" unicode="&#x1bb;" horiz-adv-x="612" 
d="M71 139q30 71 141 150q94 68 124 99q44 47 44 101q0 46 -25.5 75.5t-70.5 29.5q-64 0 -87 -48q-13 -27 -15 -87h-136q4 90 33 146q55 106 198 106q111 0 178 -62q67 -61 67 -165q0 -77 -47 -139q-34 -44 -101 -91l-56 -39q-46 -33 -71 -54q-21 -18 -33 -38h309v-123h-484
q1 75 32 139zM62 391h522v-99h-522v99z" />
    <glyph glyph-name="uni01C0" unicode="&#x1c0;" horiz-adv-x="280" 
d="M81 727h128v-727h-128v727z" />
    <glyph glyph-name="uni01C1" unicode="&#x1c1;" horiz-adv-x="529" 
d="M81 727h128v-727h-128v727zM325 727h128v-727h-128v727z" />
    <glyph glyph-name="uni01C2" unicode="&#x1c2;" horiz-adv-x="572" 
d="M331 521h211v-128h-211v-100h211v-128h-211v-165h-128v165h-190v128h190v100h-190v128h190v206h128v-206z" />
    <glyph glyph-name="uni01C3" unicode="&#x1c3;" horiz-adv-x="333" 
d="M110 535v182h153v-182l-40 -336h-73zM113 0v141h146v-141h-146z" />
    <glyph glyph-name="uni01C4" unicode="&#x1c4;" horiz-adv-x="1230" 
d="M320 595h-139v-470h139q106 0 148 105q23 60 23 137q0 110 -35 169t-136 59zM457 704q76 -26 122 -91q65 -92 65 -236q0 -143 -58 -243q-78 -134 -241 -134h-310v720h310q69 -2 112 -16zM652 0v127l372 465h-362v128h549v-121l-376 -472h377v-127h-560zM989 751h-125
l-115 146h113l64 -82l64 82h113z" />
    <glyph glyph-name="uni01C5" unicode="&#x1c5;" horiz-adv-x="1132" 
d="M328 595h-139v-470h139q106 0 148 105q23 60 23 137q0 110 -35 169t-136 59zM464 704q77 -26 123 -91q65 -92 65 -236q0 -143 -58 -243q-78 -134 -241 -134h-310v720h310q69 -2 111 -16zM926 419h-254v113h432v-115l-271 -303h280v-114h-460v108zM936 575h-125l-115 146
h114l64 -83l63 83h113z" />
    <glyph glyph-name="uni01C6" unicode="&#x1c6;" horiz-adv-x="1060" 
d="M408 465v254h141v-719h-135v74q-30 -48 -68 -69.5t-95 -21.5q-93 0 -157 75q-63 76 -63 194q0 136 62 215q63 78 168 78q96 0 147 -80zM412 258q0 98 -49 140q-29 25 -71 25q-58 0 -88 -44t-30 -116q0 -76 29.5 -119t88.5 -43q58 0 89 42.5t31 114.5zM856 419h-254v113
h431v-115l-270 -303h279v-114h-459v108zM870 577h-125l-115 146h114l64 -83l63 83h113z" />
    <glyph glyph-name="uni01C7" unicode="&#x1c7;" horiz-adv-x="1058" 
d="M53 0v720h151v-591h356v-129h-507zM566 283h142v-16q2 -88 19.5 -120t68.5 -32q55 0 71 37q10 21 10 75v503h150v-501q0 -93 -31 -146q-54 -90 -194 -90t-188 73q-48 74 -48 201v16z" />
    <glyph glyph-name="uni01C8" unicode="&#x1c8;" horiz-adv-x="835" 
d="M53 0v720h151v-591h356v-129h-507zM793 724v-128h-139v128h139zM587 -213v111q8 -1 15.5 -1.5t9.5 -0.5q22 0 32 11t10 38v585h139v-587q0 -81 -32 -119q-32 -39 -124 -39q-2 0 -50 2z" />
    <glyph glyph-name="uni01C9" unicode="&#x1c9;" horiz-adv-x="521" 
d="M207 720v-720h-139v720h139zM488 724v-128h-139v128h139zM282 -213v111q7 0 12.5 -0.5t8.5 -1t5 -0.5q21 0 31 11t10 38v585h139v-587q0 -81 -32 -119q-32 -39 -124 -39z" />
    <glyph glyph-name="uni01CA" unicode="&#x1ca;" horiz-adv-x="1158" 
d="M48 0v720h158l287 -503v503h140v-720h-151l-294 511v-511h-140zM662 278h142v-17q2 -83 18 -117t70 -34t70 37q11 24 11 74v504h150v-501q0 -91 -32 -146q-52 -91 -194 -91q-140 0 -188 73q-47 74 -47 201v17z" />
    <glyph glyph-name="uni01CB" unicode="&#x1cb;" horiz-adv-x="906" 
d="M51 0v720h157l287 -503v503h140v-720h-150l-294 511v-511h-140zM861 727v-129h-139v129h139zM655 -211v111q16 -1 25 -1q22 0 32 10.5t10 38.5v584h139v-587q0 -80 -32 -118q-31 -39 -124 -39q-3 0 -19.5 0.5t-30.5 0.5z" />
    <glyph glyph-name="uni01CC" unicode="&#x1cc;" horiz-adv-x="800" 
d="M527 358v-358h-143v324q0 40 -11 64q-20 41 -78 41q-71 0 -97 -60q-14 -33 -14 -81v-288h-139v531h135v-77q27 41 50 59q44 32 109 32q88 0 138 -45.5t50 -141.5zM747 724v-128h-140v128h140zM541 -213v111q6 0 11.5 -0.5t8.5 -1t5 -0.5q21 0 31 11t10 38v585h140v-587
q0 -81 -32 -119q-31 -39 -125 -39q-1 0 -49 2z" />
    <glyph glyph-name="uni01CD" unicode="&#x1cd;" horiz-adv-x="722" 
d="M366 555l-93 -283h183zM25 0l257 720h170l255 -720h-163l-46 148h-266l-49 -148h-158zM429 789h-125l-115 146h114l64 -83l63 83h113z" />
    <glyph glyph-name="uni01CE" unicode="&#x1ce;" horiz-adv-x="556" 
d="M358 207v52q-24 -17 -63 -23l-31 -6q-41 -7 -63 -19q-33 -19 -33 -59q0 -34 19 -51t49 -17q45 0 83 26q38 27 39 97zM227 318l47 6q39 5 55 12q30 14 30 39q0 32 -22 45t-67 13q-50 0 -70 -24q-16 -19 -20 -49h-134q4 70 39 115q55 70 189 70q88 0 156 -35t68 -131v-244
q0 -37 1 -61q1 -26 7 -36t21 -17v-21h-151q-8 21 -13 62q-27 -29 -66 -53q-46 -26 -102 -26q-74 0 -120 42.5t-46 116.5q0 98 75 142q41 23 123 34zM338 615h-125l-114 146h113l64 -82l63 82h114z" />
    <glyph glyph-name="uni01CF" unicode="&#x1cf;" horiz-adv-x="278" 
d="M214 720v-720h-150v720h150zM204 798h-125l-115 146h113l64 -83l64 83h113z" />
    <glyph glyph-name="uni01D0" unicode="&#x1d0;" horiz-adv-x="278" 
d="M67 0v532h141v-532h-141zM204 607h-125l-115 146h113l64 -82l64 82h113z" />
    <glyph glyph-name="uni01D1" unicode="&#x1d1;" horiz-adv-x="778" 
d="M589 361q0 120 -52 186.5t-142 66.5q-91 0 -143.5 -66.5t-52.5 -186.5q0 -121 52.5 -187.5t143.5 -66.5q90 0 142 66.5t52 187.5zM630 64q-81 -84 -235 -84q-155 0 -236 84q-110 104 -110 297q0 198 110 297q81 84 236 84q154 0 235 -84q109 -99 109 -297
q0 -194 -109 -297zM459 819h-125l-114 146h113l64 -83l63 83h114z" />
    <glyph glyph-name="uni01D2" unicode="&#x1d2;" horiz-adv-x="611" 
d="M430 265q0 80 -32.5 123.5t-93.5 43.5t-94 -43.5t-33 -123.5t33 -123.5t94 -43.5t93.5 43.5t32.5 123.5zM304 -19q-137 0 -205 83q-67 83 -67 201q0 116 67 199q67 85 205 85q137 0 204 -85q68 -85 68 -199q0 -116 -68 -201q-68 -83 -204 -83zM370 625h-125l-115 146h114
l64 -83l63 83h113z" />
    <glyph glyph-name="uni01D3" unicode="&#x1d3;" horiz-adv-x="722" 
d="M76 277v443h153v-443q0 -73 18 -108q27 -61 119 -61q91 0 118 61q18 35 18 108v443h153v-443q0 -113 -36 -178q-66 -118 -253 -118t-254 118q-36 65 -36 178zM423 797h-125l-115 146h113l64 -82l64 82h113z" />
    <glyph glyph-name="uni01D4" unicode="&#x1d4;" horiz-adv-x="611" 
d="M61 532h143v-321q0 -47 10 -68q19 -40 75 -40q71 0 98 57q13 30 13 83v289h142v-532h-136v75q-1 -1 -5 -7.5t-10 -15t-13 -13.5q-32 -29 -62.5 -40t-72.5 -11q-119 0 -159 85q-23 48 -23 138v321zM364 599h-125l-114 146h113l64 -83l63 83h114z" />
    <glyph glyph-name="uni01D5" unicode="&#x1d5;" horiz-adv-x="722" 
d="M76 277v443h153v-443q0 -73 18 -108q27 -61 119 -61q91 0 118 61q18 35 18 108v443h153v-443q0 -113 -36 -178q-66 -118 -253 -118t-254 118q-36 65 -36 178zM410 803v116h127v-116h-127zM214 803v116h128v-116h-128zM192 1002v74h347v-74h-347z" />
    <glyph glyph-name="uni01D6" unicode="&#x1d6;" horiz-adv-x="611" 
d="M61 532h143v-321q0 -47 10 -68q19 -40 75 -40q71 0 98 57q13 30 13 83v289h142v-532h-136v75q-1 -1 -5 -7.5t-10 -15t-13 -13.5q-32 -29 -62.5 -40t-72.5 -11q-119 0 -159 85q-23 48 -23 138v321zM340 607v116h128v-116h-128zM145 607v116h127v-116h-127zM133 795v75h347
v-75h-347z" />
    <glyph glyph-name="uni01D7" unicode="&#x1d7;" horiz-adv-x="722" 
d="M76 277v443h153v-443q0 -73 18 -108q27 -61 119 -61q91 0 118 61q18 35 18 108v443h153v-443q0 -113 -36 -178q-66 -118 -253 -118t-254 118q-36 65 -36 178zM402 775v116h127v-116h-127zM207 775v116h127v-116h-127zM386 1079h155l-148 -146h-101z" />
    <glyph glyph-name="uni01D8" unicode="&#x1d8;" horiz-adv-x="611" 
d="M61 532h143v-321q0 -47 10 -68q19 -40 75 -40q71 0 98 57q13 30 13 83v289h142v-532h-136v75q-1 -1 -5 -7.5t-10 -15t-13 -13.5q-32 -29 -62.5 -40t-72.5 -11q-119 0 -159 85q-23 48 -23 138v321zM335 604v116h128v-116h-128zM140 604v116h128v-116h-128zM331 927h155
l-149 -146h-100z" />
    <glyph glyph-name="uni01D9" unicode="&#x1d9;" horiz-adv-x="722" 
d="M76 277v443h153v-443q0 -73 18 -108q27 -61 119 -61q91 0 118 61q18 35 18 108v443h153v-443q0 -113 -36 -178q-66 -118 -253 -118t-254 118q-36 65 -36 178zM402 801v116h127v-116h-127zM207 801v116h127v-116h-127zM423 984h-125l-114 146h113l64 -83l63 83h114z" />
    <glyph glyph-name="uni01DA" unicode="&#x1da;" horiz-adv-x="611" 
d="M61 532h143v-321q0 -47 10 -68q19 -40 75 -40q71 0 98 57q13 30 13 83v289h142v-532h-136v75q-1 -1 -5 -7.5t-10 -15t-13 -13.5q-32 -29 -62.5 -40t-72.5 -11q-119 0 -159 85q-23 48 -23 138v321zM333 607v116h127v-116h-127zM138 607v116h127v-116h-127zM364 781h-125
l-114 146h113l64 -83l63 83h114z" />
    <glyph glyph-name="uni01DB" unicode="&#x1db;" horiz-adv-x="722" 
d="M76 277v443h153v-443q0 -73 18 -108q27 -61 119 -61q91 0 118 61q18 35 18 108v443h153v-443q0 -113 -36 -178q-66 -118 -253 -118t-254 118q-36 65 -36 178zM404 788v116h128v-116h-128zM209 788v116h127v-116h-127zM331 1098l94 -146h-101l-148 146h155z" />
    <glyph glyph-name="uni01DC" unicode="&#x1dc;" horiz-adv-x="611" 
d="M61 532h143v-321q0 -47 10 -68q19 -40 75 -40q71 0 98 57q13 30 13 83v289h142v-532h-136v75q-1 -1 -5 -7.5t-10 -15t-13 -13.5q-32 -29 -62.5 -40t-72.5 -11q-119 0 -159 85q-23 48 -23 138v321zM347 601v115h128v-115h-128zM152 601v115h127v-115h-127zM271 915
l94 -146h-100l-148 146h154z" />
    <glyph glyph-name="uni01DD" unicode="&#x1dd;" horiz-adv-x="556" 
d="M384 209h-216q3 -54 32.5 -83t75.5 -29q93 0 108 112zM68 85q-31 47 -40 110q-6 40 -5 106h365q-3 81 -51 112q-29 20 -69 20q-43 0 -70 -24q-15 -15 -26 -37h-142q6 46 50 96q68 78 191 78q103 0 179 -66q78 -65 78 -212q0 -140 -70 -213t-182 -73q-140 0 -208 103z" />
    <glyph glyph-name="uni01DE" unicode="&#x1de;" horiz-adv-x="722" 
d="M366 555l-93 -283h183zM25 0l257 720h170l255 -720h-163l-46 148h-266l-49 -148h-158zM408 813v116h128v-116h-128zM213 813v116h127v-116h-127zM193 1002v74h347v-74h-347z" />
    <glyph glyph-name="uni01DF" unicode="&#x1df;" horiz-adv-x="556" 
d="M358 207v52q-24 -17 -63 -23l-31 -6q-41 -7 -63 -19q-33 -19 -33 -59q0 -34 19 -51t49 -17q45 0 83 26q38 27 39 97zM227 318l47 6q39 5 55 12q30 14 30 39q0 32 -22 45t-67 13q-50 0 -70 -24q-16 -19 -20 -49h-134q4 70 39 115q55 70 189 70q88 0 156 -35t68 -131v-244
q0 -37 1 -61q1 -26 7 -36t21 -17v-21h-151q-8 21 -13 62q-27 -29 -66 -53q-46 -26 -102 -26q-74 0 -120 42.5t-46 116.5q0 98 75 142q41 23 123 34zM322 623v116h127v-116h-127zM126 623v116h128v-116h-128zM107 810v74h347v-74h-347z" />
    <glyph glyph-name="uni01E0" unicode="&#x1e0;" horiz-adv-x="722" 
d="M366 555l-93 -283h183zM25 0l257 720h170l255 -720h-163l-46 148h-266l-49 -148h-158zM303 810v115h127v-115h-127zM193 1002v74h347v-74h-347z" />
    <glyph glyph-name="uni01E1" unicode="&#x1e1;" horiz-adv-x="556" 
d="M358 207v52q-24 -17 -63 -23l-31 -6q-41 -7 -63 -19q-33 -19 -33 -59q0 -34 19 -51t49 -17q45 0 83 26q38 27 39 97zM227 318l47 6q39 5 55 12q30 14 30 39q0 32 -22 45t-67 13q-50 0 -70 -24q-16 -19 -20 -49h-134q4 70 39 115q55 70 189 70q88 0 156 -35t68 -131v-244
q0 -37 1 -61q1 -26 7 -36t21 -17v-21h-151q-8 21 -13 62q-27 -29 -66 -53q-46 -26 -102 -26q-74 0 -120 42.5t-46 116.5q0 98 75 142q41 23 123 34zM205 619v116h127v-116h-127zM97 805v74h347v-74h-347z" />
    <glyph glyph-name="uni01E2" unicode="&#x1e2;" horiz-adv-x="1000" 
d="M433 271v324h-65l-111 -324h176zM9 0l262 717h680v-125h-370v-155h333v-123h-333v-187h377v-127h-525v152h-216l-52 -152h-156zM395 815v74h347v-74h-347z" />
    <glyph glyph-name="uni01E3" unicode="&#x1e3;" horiz-adv-x="889" 
d="M493 321h217q-7 113 -107 113q-104 0 -110 -113zM363 201v53q-15 -10 -55 -19l-54 -11q-45 -9 -61 -20q-26 -17 -26 -58q0 -26 18.5 -44.5t56.5 -18.5q42 0 70 16q51 29 51 102zM207 310l85 13q31 4 49 13q23 14 23 38q0 39 -39 53q-20 7 -56 7q-54 0 -75 -30
q-11 -17 -12 -46h-136q4 109 91 156q57 30 146 30q64 0 111 -22q27 -10 56 -35q69 57 158 57q162 0 219 -133q30 -69 28 -180h-364q0 -57 13 -84q24 -54 94 -54q86 0 110 67h141q-6 -48 -48 -98q-71 -80 -198 -80q-64 0 -112 24t-74 65q-71 -89 -203 -89q-100 0 -143 48
q-44 49 -44 114q0 90 67 132q37 22 113 34zM269 633v74h347v-74h-347z" />
    <glyph glyph-name="uni01E4" unicode="&#x1e4;" horiz-adv-x="825" 
d="M487 139h-85v98h154q4 13 6 29h-166v120h300v-149h112v-98h-112v-139h-100l-15 90q-43 -51 -78 -72q-59 -37 -147 -37q-142 0 -234 99q-95 101 -95 273q0 174 96 280q96 105 254 105q139 0 221 -70q83 -69 95 -173h-148q-17 74 -83 103q-36 16 -83 16q-90 0 -144 -67.5
t-54 -195.5q0 -133 60 -188q61 -55 138 -55q64 0 108 31z" />
    <glyph glyph-name="uni01E5" unicode="&#x1e5;" horiz-adv-x="687" 
d="M325 533q50 -21 82 -77v76h135v-217h130v-98h-130v-190q0 -102 -35 -155q-59 -90 -228 -90q-105 0 -168 41t-70 119h151q6 -25 19 -35q22 -19 76 -19q75 0 101 50q16 31 16 108v35q-20 -35 -43 -52q-40 -31 -108 -31q-103 0 -164 72q-61 71 -61 195q0 117 59 199
q59 81 168 81q40 0 70 -12zM401 217h-134v98h135q-8 43 -28 69q-32 39 -86 39q-72 0 -101 -69q-15 -36 -15 -90q0 -47 16 -82q29 -68 102 -68q48 0 82 37q21 23 29 66z" />
    <glyph glyph-name="uni01E6" unicode="&#x1e6;" horiz-adv-x="778" 
d="M708 495h-148q-17 74 -83 103q-36 16 -83 16q-90 0 -144.5 -67.5t-54.5 -195.5q0 -133 60 -188q61 -55 139 -55q74 0 123 43t60 115h-166v120h299v-386h-99l-15 90q-44 -51 -78 -72q-59 -37 -147 -37q-143 0 -234 99q-95 101 -95 273q0 174 96 280q96 105 254 105
q138 0 220 -70q84 -69 96 -173zM456 802h-125l-115 146h113l64 -82l64 82h113z" />
    <glyph glyph-name="uni01E7" unicode="&#x1e7;" horiz-adv-x="611" 
d="M410 269q0 74 -31.5 114t-86.5 40q-72 0 -101 -69q-15 -36 -15 -90q0 -47 16 -82q29 -68 101 -68q52 0 84.5 39t32.5 116zM329 533q50 -21 82 -77v76h135v-505q0 -102 -35 -155q-59 -90 -228 -90q-105 0 -168 41t-70 119h151q6 -25 19 -35q22 -19 76 -19q75 0 101 50
q16 31 16 108v35q-20 -35 -43 -52q-40 -31 -108 -31q-103 0 -164 72q-61 71 -61 195q0 117 59 199q59 81 168 81q40 0 70 -12zM322 625h-125l-114 146h113l64 -83l63 83h114z" />
    <glyph glyph-name="uni01E8" unicode="&#x1e8;" horiz-adv-x="722" 
d="M79 0v720h148v-297l277 297h195l-295 -297l310 -423h-193l-223 314l-71 -73v-241h-148zM423 776h-125l-115 146h113l64 -83l64 83h113z" />
    <glyph glyph-name="uni01E9" unicode="&#x1e9;" horiz-adv-x="556" 
d="M63 0v717h137v-387l174 200h172l-186 -204l193 -326h-168l-127 228l-58 -61v-167h-137zM392 754h-125l-115 146h114l64 -82l63 82h113z" />
    <glyph glyph-name="uni01EA" unicode="&#x1ea;" horiz-adv-x="778" 
d="M589 361q0 120 -52 186.5t-142 66.5q-91 0 -143.5 -66.5t-52.5 -186.5q0 -121 52.5 -187.5t143.5 -66.5q90 0 142 66.5t52 187.5zM630 64q-81 -84 -235 -84q-155 0 -236 84q-110 104 -110 297q0 198 110 297q81 84 236 84q154 0 235 -84q109 -99 109 -297
q0 -194 -109 -297zM396 -9h88l-32 -24q-36 -26 -51 -43t-15 -38t16 -34.5t40 -13.5q18 0 49 11v-70l-36 -12q-27 -6 -60 -6q-50 0 -83.5 28t-33.5 68q0 44 41 82q22 20 77 52z" />
    <glyph glyph-name="uni01EB" unicode="&#x1eb;" horiz-adv-x="611" 
d="M430 265q0 80 -32.5 123.5t-93.5 43.5t-94 -43.5t-33 -123.5t33 -123.5t94 -43.5t93.5 43.5t32.5 123.5zM304 -19q-137 0 -205 83q-67 83 -67 201q0 116 67 199q67 85 205 85q137 0 204 -85q68 -85 68 -199q0 -116 -68 -201q-68 -83 -204 -83zM280 -13h88l-33 -23
q-36 -27 -50.5 -44t-14.5 -37q0 -23 15.5 -36t40.5 -13q19 0 49 12v-71q-27 -9 -37 -11q-24 -7 -59 -7q-50 0 -83.5 28.5t-33.5 68.5q0 44 41 82q23 22 77 51z" />
    <glyph glyph-name="uni01EC" unicode="&#x1ec;" horiz-adv-x="778" 
d="M589 361q0 120 -52 186.5t-142 66.5q-91 0 -143.5 -66.5t-52.5 -186.5q0 -121 52.5 -187.5t143.5 -66.5q90 0 142 66.5t52 187.5zM630 64q-81 -84 -235 -84q-155 0 -236 84q-110 104 -110 297q0 198 110 297q81 84 236 84q154 0 235 -84q109 -99 109 -297
q0 -194 -109 -297zM387 -7h88l-33 -23q-36 -27 -51 -44t-15 -37q0 -23 16 -36t41 -13q19 0 49 12v-71q-27 -9 -37 -11q-24 -7 -59 -7q-51 0 -84 28.5t-33 68.5q0 44 41 82q23 22 77 51zM216 820v74h347v-74h-347z" />
    <glyph glyph-name="uni01ED" unicode="&#x1ed;" horiz-adv-x="611" 
d="M430 265q0 80 -32.5 123.5t-93.5 43.5t-94 -43.5t-33 -123.5t33 -123.5t94 -43.5t93.5 43.5t32.5 123.5zM304 -19q-137 0 -205 83q-67 83 -67 201q0 116 67 199q67 85 205 85q137 0 204 -85q68 -85 68 -199q0 -116 -68 -201q-68 -83 -204 -83zM295 -8h88l-33 -23
q-36 -27 -51 -44t-15 -37q0 -23 15.5 -36t40.5 -13q20 0 50 12v-71q-27 -9 -37 -11q-24 -7 -60 -7q-50 0 -83 28.5t-33 68.5q0 44 41 82q23 22 77 51zM131 624v74h347v-74h-347z" />
    <glyph glyph-name="uni01EE" unicode="&#x1ee;" horiz-adv-x="581" 
d="M132 358l227 232h-332v130h532v-110l-147 -154q45 -20 75 -56q67 -37 67 -174q0 -122 -85 -179q-86 -56 -213 -56q-129 0 -194 92q-42 57 -46 120h142q6 -46 27.5 -70.5t66.5 -24.5q70 0 113.5 32t43.5 89q0 60 -14 99q-23 23 -80 30l-1 -1zM364 799h-125l-114 146h113
l64 -82l63 82h114z" />
    <glyph glyph-name="uni01EF" unicode="&#x1ef;" horiz-adv-x="533" 
d="M132 168l179 232h-284v130h484v-110l-148 -154q46 -21 76 -56q67 -43 67 -181q0 -121 -69.5 -182.5t-199.5 -61.5q-129 0 -175 91q-41 57 -45 121h142q5 -45 17 -68q14 -27 62 -27q122 0 122 130q0 64 -13 106q-22 22 -80 30l-1 -1zM340 604h-125l-114 146h113l64 -83
l63 83h114z" />
    <glyph glyph-name="uni01F0" unicode="&#x1f0;" horiz-adv-x="278" 
d="M4 -213v111q7 0 12.5 -0.5t8.5 -1t5 -0.5q21 0 31 11t10 38v585h139v-587q0 -81 -32 -119q-31 -39 -124 -39zM204 609h-125l-115 146h113l64 -83l64 83h113z" />
    <glyph glyph-name="uni01F1" unicode="&#x1f1;" horiz-adv-x="1256" 
d="M338 595h-139v-470h139q106 0 148 105q23 60 23 137q0 110 -35 169t-136 59zM475 704q76 -26 122 -91q65 -92 65 -236q0 -143 -58 -243q-78 -134 -241 -134h-310v720h310q69 -2 112 -16zM666 0v127l371 465h-362v128h550v-121l-377 -472h378v-127h-560z" />
    <glyph glyph-name="uni01F2" unicode="&#x1f2;" horiz-adv-x="1153" 
d="M335 595h-138v-470h138q107 0 149 105q23 60 23 137q0 110 -35 169t-137 59zM472 704q77 -26 123 -91q65 -96 65 -236q0 -143 -58 -243q-78 -134 -241 -134h-310v720h310q69 -2 111 -16zM937 419h-255v113h432v-115l-270 -303h279v-114h-459v108z" />
    <glyph glyph-name="uni01F3" unicode="&#x1f3;" horiz-adv-x="1083" 
d="M408 465v254h141v-719h-135v74q-30 -48 -68 -69.5t-95 -21.5q-93 0 -157 75q-63 76 -63 194q0 136 62 215q63 78 168 78q96 0 147 -80zM412 258q0 98 -49 140q-29 25 -71 25q-58 0 -88 -44t-30 -116q0 -76 29.5 -119t88.5 -43q58 0 89 42.5t31 114.5zM872 424h-255v114
h432v-116l-270 -302h279v-115h-459v109z" />
    <glyph glyph-name="uni01F4" unicode="&#x1f4;" horiz-adv-x="778" 
d="M708 495h-148q-17 74 -83 103q-36 16 -83 16q-90 0 -144.5 -67.5t-54.5 -195.5q0 -133 60 -188q61 -55 139 -55q74 0 123 43t60 115h-166v120h299v-386h-99l-15 90q-44 -51 -78 -72q-59 -37 -147 -37q-143 0 -234 99q-95 101 -95 273q0 174 96 280q96 105 254 105
q138 0 220 -70q84 -69 96 -173zM402 956h155l-148 -146h-101z" />
    <glyph glyph-name="uni01F5" unicode="&#x1f5;" horiz-adv-x="611" 
d="M410 269q0 74 -31.5 114t-86.5 40q-72 0 -101 -69q-15 -36 -15 -90q0 -47 16 -82q29 -68 101 -68q52 0 84.5 39t32.5 116zM329 533q50 -21 82 -77v76h135v-505q0 -102 -35 -155q-59 -90 -228 -90q-105 0 -168 41t-70 119h151q6 -25 19 -35q22 -19 76 -19q75 0 101 50
q16 31 16 108v35q-20 -35 -43 -52q-40 -31 -108 -31q-103 0 -164 72q-61 71 -61 195q0 117 59 199q59 81 168 81q40 0 70 -12zM291 772h155l-148 -146h-101z" />
    <glyph glyph-name="uni01F7" unicode="&#x1f7;" horiz-adv-x="667" 
d="M369 595h-140v-359l140 98q56 37 82 67q30 35 30 90q0 104 -112 104zM382 210l-153 -98v-112h-149v720h313q111 0 174 -57.5t63 -170.5q0 -128 -65 -176q-69 -50 -183 -106z" />
    <glyph glyph-name="uni01F8" unicode="&#x1f8;" horiz-adv-x="722" 
d="M74 0v720h157l287 -503v503h140v-720h-150l-294 511v-511h-140zM364 923l94 -146h-101l-148 146h155z" />
    <glyph glyph-name="uni01F9" unicode="&#x1f9;" horiz-adv-x="611" 
d="M547 358v-358h-142v324q0 40 -11 64q-21 41 -79 41q-70 0 -97 -60q-13 -30 -13 -81v-288h-139v531h134v-77q28 42 51 59q44 32 109 32q81 0 134 -44t53 -143zM312 769l93 -146h-100l-148 146h155z" />
    <glyph glyph-name="uni01FA" unicode="&#x1fa;" horiz-adv-x="685" 
d="M507 973l-125 -115h-99l77 115h147zM447 739q0 -31 -16 -54l261 -685h-163l-54 159h-267l-56 -159h-159l264 683q-17 23 -17 56q0 42 29.5 70t74.5 28q47 0 75 -27.5t28 -70.5zM293 739q0 -23 14 -38t37 -15t36.5 14.5t13.5 38.5q0 22 -13.5 37.5t-36.5 15.5t-37 -15
t-14 -38zM342 548l-93 -272h185l-90 272h-2z" />
    <glyph glyph-name="uni01FB" unicode="&#x1fb;" horiz-adv-x="574" 
d="M463 921l-128 -119h-98l79 119h147zM295 564q-48 0 -78 29.5t-30 75.5q0 45 31 75t77 30q48 0 78 -29.5t30 -75.5q0 -45 -31 -75t-77 -30zM239 669q0 -26 15 -42t41 -16t41 16.5t15 41.5q0 26 -15 42t-41 16t-41 -16.5t-15 -41.5zM190 358h-142q6 91 75 132t168 41
q227 0 227 -147v-269q0 -86 18 -115h-144q-9 28 -10 50q-61 -64 -174 -64q-78 0 -127 39.5t-49 115.5q0 38 13.5 66.5t32 44.5t50.5 27.5t55.5 15.5t60.5 8q41 5 59.5 8t38.5 10t27 17.5t7 27.5q0 41 -24 55.5t-68 14.5q-87 0 -94 -78zM376 200v53q-16 -16 -86 -25
q-28 -4 -44 -7.5t-35 -11.5t-28 -23.5t-9 -38.5q0 -66 87 -66q115 0 115 119z" />
    <glyph glyph-name="uni01FC" unicode="&#x1fc;" horiz-adv-x="981" 
d="M777 921l-154 -142h-99l96 142h157zM-11 0l341 714h606v-132h-332v-153h312v-122h-312v-175h340v-132h-492v159h-224l-72 -159h-167zM418 582l-138 -306h172v306h-34z" />
    <glyph glyph-name="uni01FD" unicode="&#x1fd;" horiz-adv-x="907" 
d="M878 224h-369q-2 -54 32.5 -98.5t90.5 -44.5q89 0 103 81h138q-22 -81 -87.5 -128.5t-150.5 -47.5q-132 0 -193 88q-34 -45 -91 -66.5t-120 -21.5q-83 0 -138 37t-55 117q0 42 14 72t41.5 47t54 25t63.5 14q117 18 132 23q41 16 42 49q0 66 -92 66q-95 0 -99 -80h-142
q2 62 39 103t88.5 56.5t116.5 15.5q122 0 171 -70q60 70 173 70q82 0 137.5 -44.5t78 -111t22.5 -151.5zM509 314h227q0 51 -29.5 86.5t-81.5 35.5t-84 -36t-32 -86zM385 188v64q-16 -14 -53.5 -21t-69 -10t-57 -21t-25.5 -52q0 -67 88 -67q45 0 81 27.5t36 79.5zM660 731
l-154 -142h-99l96 142h157z" />
    <glyph glyph-name="uni01FE" unicode="&#x1fe;" horiz-adv-x="778" 
d="M585 921l-154 -142h-99l96 142h157zM34 10l86 95q-82 100 -82 249q0 163 95 270t256 107q135 0 225 -77l80 89l50 -44l-84 -93q80 -105 80 -252q0 -159 -95 -265t-256 -106q-132 0 -223 76l-83 -92zM223 219l296 329q-51 51 -130 51q-67 0 -112 -36t-63.5 -89.5
t-18.5 -119.5q0 -78 28 -135zM556 490l-295 -326q49 -49 128 -49q98 0 146 69.5t48 169.5q0 78 -27 136z" />
    <glyph glyph-name="uni01FF" unicode="&#x1ff;" horiz-adv-x="611" 
d="M497 731l-154 -142h-99l96 142h157zM44 1l60 68q-66 72 -66 189q0 124 73 198.5t194 74.5q95 0 163 -48l53 61l37 -32l-54 -61q69 -74 69 -193q0 -123 -73 -197.5t-195 -74.5q-97 0 -165 50l-59 -67zM195 172l193 220q-30 32 -83 32q-66 0 -95.5 -47.5t-29.5 -118.5
q0 -52 15 -86zM415 349l-195 -222q31 -34 85 -34q67 0 96.5 47t29.5 118q0 52 -16 91z" />
    <glyph glyph-name="uni0200" unicode="&#x200;" horiz-adv-x="722" 
d="M366 555l-93 -283h183zM25 0l257 720h170l255 -720h-163l-46 148h-266l-49 -148h-158zM245 929l73 -142h-96l-119 142h142zM317 929h142l73 -142h-95z" />
    <glyph glyph-name="uni0201" unicode="&#x201;" horiz-adv-x="556" 
d="M358 207v52q-24 -17 -63 -23l-31 -6q-41 -7 -63 -19q-33 -19 -33 -59q0 -34 19 -51t49 -17q45 0 83 26q38 27 39 97zM227 318l47 6q39 5 55 12q30 14 30 39q0 32 -22 45t-67 13q-50 0 -70 -24q-16 -19 -20 -49h-134q4 70 39 115q55 70 189 70q88 0 156 -35t68 -131v-244
q0 -37 1 -61q1 -26 7 -36t21 -17v-21h-151q-8 21 -13 62q-27 -29 -66 -53q-46 -26 -102 -26q-74 0 -120 42.5t-46 116.5q0 98 75 142q41 23 123 34zM168 765l73 -142h-95l-120 142h142zM241 765h142l73 -142h-96z" />
    <glyph glyph-name="uni0202" unicode="&#x202;" horiz-adv-x="722" 
d="M366 555l-93 -283h183zM25 0l257 720h170l255 -720h-163l-46 148h-266l-49 -148h-158zM370 916q156 0 168 -145h-66q-8 45 -47 61q-23 9 -55 9q-33 0 -56 -9q-39 -16 -47 -61h-66q13 145 169 145z" />
    <glyph glyph-name="uni0203" unicode="&#x203;" horiz-adv-x="556" 
d="M358 207v52q-24 -17 -63 -23l-31 -6q-41 -7 -63 -19q-33 -19 -33 -59q0 -34 19 -51t49 -17q45 0 83 26q38 27 39 97zM227 318l47 6q39 5 55 12q30 14 30 39q0 32 -22 45t-67 13q-50 0 -70 -24q-16 -19 -20 -49h-134q4 70 39 115q55 70 189 70q88 0 156 -35t68 -131v-244
q0 -37 1 -61q1 -26 7 -36t21 -17v-21h-151q-8 21 -13 62q-27 -29 -66 -53q-46 -26 -102 -26q-74 0 -120 42.5t-46 116.5q0 98 75 142q41 23 123 34zM274 765q157 0 169 -145h-66q-7 45 -47 61q-22 9 -56 9q-32 0 -55 -9q-40 -16 -47 -61h-66q12 145 168 145z" />
    <glyph glyph-name="uni0204" unicode="&#x204;" horiz-adv-x="667" 
d="M608 720v-128h-380v-153h349v-125h-349v-185h398v-129h-545v720h527zM234 940l73 -142h-96l-119 142h142zM307 940h142l72 -142h-95z" />
    <glyph glyph-name="uni0205" unicode="&#x205;" horiz-adv-x="556" 
d="M167 319h216q-4 55 -33 84t-75 29q-47 0 -74.5 -30t-33.5 -83zM482 443q32 -47 41 -110q5 -45 4 -105h-364q3 -81 50 -113q29 -20 70 -20q44 0 70 25q15 15 25 36h143q-6 -46 -50 -96q-67 -78 -191 -78q-101 0 -180 65q-77 66 -77 214q0 138 70 211q71 74 182 74
q143 0 207 -103zM171 774l73 -143h-96l-119 143h142zM243 774h142l73 -143h-96z" />
    <glyph glyph-name="uni0206" unicode="&#x206;" horiz-adv-x="667" 
d="M608 720v-128h-380v-153h349v-125h-349v-185h398v-129h-545v720h527zM350 943q156 0 168 -145h-66q-7 45 -47 61q-23 9 -55 9q-34 0 -56 -9q-40 -16 -47 -61h-66q12 145 169 145z" />
    <glyph glyph-name="uni0207" unicode="&#x207;" horiz-adv-x="556" 
d="M167 319h216q-4 55 -33 84t-75 29q-47 0 -74.5 -30t-33.5 -83zM482 443q32 -47 41 -110q5 -45 4 -105h-364q3 -81 50 -113q29 -20 70 -20q44 0 70 25q15 15 25 36h143q-6 -46 -50 -96q-67 -78 -191 -78q-101 0 -180 65q-77 66 -77 214q0 138 70 211q71 74 182 74
q143 0 207 -103zM291 763q156 0 168 -145h-65q-7 45 -47 61q-23 9 -56 9t-56 -9q-40 -16 -47 -61h-65q12 145 168 145z" />
    <glyph glyph-name="uni0208" unicode="&#x208;" horiz-adv-x="278" 
d="M214 720v-720h-150v720h150zM31 945l73 -142h-96l-119 142h142zM104 945h142l72 -142h-95z" />
    <glyph glyph-name="uni0209" unicode="&#x209;" horiz-adv-x="278" 
d="M67 0v532h141v-532h-141zM29 770l73 -143h-96l-119 143h142zM102 770h142l72 -143h-95z" />
    <glyph glyph-name="uni020A" unicode="&#x20a;" horiz-adv-x="278" 
d="M214 720v-720h-150v720h150zM140 948q156 0 169 -145h-66q-7 45 -47 61q-23 9 -56 9q-34 0 -56 -9q-40 -16 -46 -61h-66q12 145 168 145z" />
    <glyph glyph-name="uni020B" unicode="&#x20b;" horiz-adv-x="278" 
d="M67 0v532h141v-532h-141zM143 773q156 0 169 -145h-66q-7 45 -47 61q-22 9 -56 9q-33 0 -56 -9q-40 -16 -46 -61h-66q12 145 168 145z" />
    <glyph glyph-name="uni020C" unicode="&#x20c;" horiz-adv-x="778" 
d="M589 361q0 120 -52 186.5t-142 66.5q-91 0 -143.5 -66.5t-52.5 -186.5q0 -121 52.5 -187.5t143.5 -66.5q90 0 142 66.5t52 187.5zM630 64q-81 -84 -235 -84q-155 0 -236 84q-110 104 -110 297q0 198 110 297q81 84 236 84q154 0 235 -84q109 -99 109 -297
q0 -194 -109 -297zM273 962l73 -142h-96l-119 142h142zM345 962h142l73 -142h-96z" />
    <glyph glyph-name="uni020D" unicode="&#x20d;" horiz-adv-x="611" 
d="M430 265q0 80 -32.5 123.5t-93.5 43.5t-94 -43.5t-33 -123.5t33 -123.5t94 -43.5t93.5 43.5t32.5 123.5zM304 -19q-137 0 -205 83q-67 83 -67 201q0 116 67 199q67 85 205 85q137 0 204 -85q68 -85 68 -199q0 -116 -68 -201q-68 -83 -204 -83zM183 777l73 -143h-96
l-119 143h142zM255 777h142l73 -143h-95z" />
    <glyph glyph-name="uni020E" unicode="&#x20e;" horiz-adv-x="778" 
d="M589 361q0 120 -52 186.5t-142 66.5q-91 0 -143.5 -66.5t-52.5 -186.5q0 -121 52.5 -187.5t143.5 -66.5q90 0 142 66.5t52 187.5zM630 64q-81 -84 -235 -84q-155 0 -236 84q-110 104 -110 297q0 198 110 297q81 84 236 84q154 0 235 -84q109 -99 109 -297
q0 -194 -109 -297zM391 960q156 0 168 -145h-66q-7 45 -47 61q-22 9 -55 9t-56 -9q-40 -16 -47 -61h-66q13 145 169 145z" />
    <glyph glyph-name="uni020F" unicode="&#x20f;" horiz-adv-x="611" 
d="M430 265q0 80 -32.5 123.5t-93.5 43.5t-94 -43.5t-33 -123.5t33 -123.5t94 -43.5t93.5 43.5t32.5 123.5zM304 -19q-137 0 -205 83q-67 83 -67 201q0 116 67 199q67 85 205 85q137 0 204 -85q68 -85 68 -199q0 -116 -68 -201q-68 -83 -204 -83zM301 773q156 0 168 -146
h-66q-7 45 -47 61q-21 10 -55 10q-35 0 -56 -10q-40 -16 -47 -61h-66q13 146 169 146z" />
    <glyph glyph-name="uni0210" unicode="&#x210;" horiz-adv-x="722" 
d="M401 595h-174v-194h170q51 0 76 12q45 21 45 81q0 66 -43 88q-25 13 -74 13zM618 651q51 -57 51 -136q0 -52 -26 -102q-25 -49 -85 -69q50 -21 70.5 -58.5t20.5 -111.5v-48q0 -51 4 -67q6 -27 27 -41v-18h-165q-6 20 -10 39q-6 30 -6 62l-1 66q-2 70 -26 92
q-25 23 -90 23h-155v-282h-147v720h353q73 -2 114.5 -18.5t70.5 -50.5zM222 944l72 -142h-95l-119 142h142zM294 944h142l73 -142h-96z" />
    <glyph glyph-name="uni0211" unicode="&#x211;" horiz-adv-x="389" 
d="M373 544v-143q-19 3 -40 3q-85 0 -113 -55q-16 -31 -16 -95v-254h-141v532h133v-93q32 52 56 73q40 33 102 33q2 0 7 -0.5t12 -0.5zM100 799l73 -143h-96l-119 143h142zM172 799h142l73 -143h-95z" />
    <glyph glyph-name="uni0212" unicode="&#x212;" horiz-adv-x="722" 
d="M401 595h-174v-194h170q51 0 76 12q45 21 45 81q0 66 -43 88q-25 13 -74 13zM618 651q51 -57 51 -136q0 -52 -26 -102q-25 -49 -85 -69q50 -21 70.5 -58.5t20.5 -111.5v-48q0 -51 4 -67q6 -27 27 -41v-18h-165q-6 20 -10 39q-6 30 -6 62l-1 66q-2 70 -26 92
q-25 23 -90 23h-155v-282h-147v720h353q73 -2 114.5 -18.5t70.5 -50.5zM350 942q156 0 168 -145h-66q-7 45 -47 61q-23 9 -55 9q-34 0 -56 -9q-40 -16 -47 -61h-66q12 145 169 145z" />
    <glyph glyph-name="uni0213" unicode="&#x213;" horiz-adv-x="389" 
d="M373 544v-143q-19 3 -40 3q-85 0 -113 -55q-16 -31 -16 -95v-254h-141v532h133v-93q32 52 56 73q40 33 102 33q2 0 7 -0.5t12 -0.5zM214 764q156 0 169 -145h-66q-7 45 -47 61q-22 9 -56 9q-33 0 -55 -9q-40 -16 -47 -61h-66q12 145 168 145z" />
    <glyph glyph-name="uni0214" unicode="&#x214;" horiz-adv-x="722" 
d="M76 277v443h153v-443q0 -73 18 -108q27 -61 119 -61q91 0 118 61q18 35 18 108v443h153v-443q0 -113 -36 -178q-66 -118 -253 -118t-254 118q-36 65 -36 178zM251 953l73 -143h-96l-119 143h142zM323 953h142l73 -143h-96z" />
    <glyph glyph-name="uni0215" unicode="&#x215;" horiz-adv-x="611" 
d="M61 532h143v-321q0 -47 10 -68q19 -40 75 -40q71 0 98 57q13 30 13 83v289h142v-532h-136v75q-1 -1 -5 -7.5t-10 -15t-13 -13.5q-32 -29 -62.5 -40t-72.5 -11q-119 0 -159 85q-23 48 -23 138v321zM187 774l73 -142h-96l-119 142h142zM259 774h142l73 -142h-96z" />
    <glyph glyph-name="uni0216" unicode="&#x216;" horiz-adv-x="722" 
d="M76 277v443h153v-443q0 -73 18 -108q27 -61 119 -61q91 0 118 61q18 35 18 108v443h153v-443q0 -113 -36 -178q-66 -118 -253 -118t-254 118q-36 65 -36 178zM374 950q156 0 168 -145h-65q-7 45 -47 61q-22 9 -56 9t-56 -9q-40 -16 -47 -61h-65q12 145 168 145z" />
    <glyph glyph-name="uni0217" unicode="&#x217;" horiz-adv-x="611" 
d="M61 532h143v-321q0 -47 10 -68q19 -40 75 -40q71 0 98 57q13 30 13 83v289h142v-532h-136v75q-1 -1 -5 -7.5t-10 -15t-13 -13.5q-32 -29 -62.5 -40t-72.5 -11q-119 0 -159 85q-23 48 -23 138v321zM312 766q156 0 168 -146h-65q-7 45 -47 61q-22 9 -56 9t-56 -9
q-40 -16 -47 -61h-65q12 146 168 146z" />
    <glyph glyph-name="uni0218" unicode="&#x218;" horiz-adv-x="649" 
d="M24 237h152q0 -67 44.5 -99.5t113.5 -32.5q33 0 61.5 6.5t53 27.5t24.5 55q0 19 -9.5 34t-21.5 24.5t-37 19t-42 14t-51 13t-51 13.5q-46 11 -79 24.5t-66 36.5t-50.5 58.5t-17.5 83.5q0 103 80 159.5t187 56.5q79 0 141 -22t103.5 -75.5t41.5 -132.5h-152
q-6 108 -141 108q-43 0 -75.5 -20t-32.5 -61q0 -40 34.5 -55.5t178.5 -52.5q22 -6 29 -7.5t35 -11t42.5 -18t38 -25.5t35.5 -36t22 -48t10 -62q0 -102 -77.5 -165.5t-219.5 -63.5q-129 0 -217.5 65t-86.5 189zM247 -143v93h145v-73q0 -58 -34 -76t-101 -18v37q48 4 57 37
h-67z" />
    <glyph glyph-name="uni0219" unicode="&#x219;" horiz-adv-x="537" 
d="M29 168h135q0 -43 32 -65t77 -22q36 0 64.5 16t28.5 50q0 30 -37 46t-124 34q-37 8 -61.5 17t-50.5 24.5t-39 39.5t-13 57q0 47 19 81t52.5 52t71 25.5t82.5 7.5q95 0 157.5 -38.5t70.5 -126.5h-135q-5 70 -97 70q-79 0 -79 -48q0 -11 4.5 -19.5t14 -15t19.5 -11t26.5 -9
t29 -7.5t33.5 -7.5t34 -7.5q77 -18 120.5 -49t43.5 -96q0 -94 -68 -137t-168 -43q-65 0 -116 16t-88 58.5t-39 107.5zM192 -143v93h145v-73q0 -58 -34 -76t-101 -18v37q48 4 57 37h-67z" />
    <glyph glyph-name="uni021A" unicode="&#x21a;" horiz-adv-x="611" 
d="M227 0v582h-214v132h585v-132h-214v-582h-157zM233 -143v93h145v-73q0 -58 -34 -76t-101 -18v37q48 4 57 37h-67z" />
    <glyph glyph-name="uni021B" unicode="&#x21b;" horiz-adv-x="352" 
d="M234 672v-155h104v-95h-104v-256q0 -36 12 -48t48 -12q27 0 44 4v-111q-30 -5 -83 -5q-36 0 -63 5t-51 17.5t-36.5 37.5t-12.5 63v305h-86v95h86v155h142zM141 -143v93h145v-73q0 -58 -34 -76t-101 -18v37q48 4 57 37h-67z" />
    <glyph glyph-name="uni021C" unicode="&#x21c;" horiz-adv-x="664" 
d="M494 355h3v1q-1 -1 -3 -1zM335 102q69 0 107 37q34 28 34 82q0 97 -138 97q-3 0 -29.5 -2t-37.5 -2v127q112 1 147 20q35 17 35 65q0 40 -28 65v-1q-32 26 -89 26q-26 0 -53 -11q-25 -10 -94 -81v1l-99 95q87 82 138 102q50 19 114 19q118 0 186 -62q69 -61 69 -160
q0 -75 -63 -133q40 -26 60 -59q24 -44 24 -110q0 -95 -77 -169q-81 -70 -195 -70q-66 0 -121 20q-47 17 -144 59l100 87q91 -42 154 -42z" />
    <glyph glyph-name="uni021D" unicode="&#x21d;" horiz-adv-x="664" 
d="M494 146h3v2zM335 -106q68 0 107 36q34 28 34 83q0 96 -138 96q-42 0 -67 -4v128q113 2 147 19q35 17 35 65q0 40 -28 66v-1q-34 26 -89 26q-28 0 -53 -12q-24 -10 -94 -80l-99 95q87 84 138 102q50 19 114 19q118 0 186 -62q69 -60 69 -160q0 -74 -63 -133
q40 -26 60 -59q24 -43 24 -110q0 -97 -77 -168q-81 -70 -195 -70q-66 0 -121 20q-36 13 -144 58l100 87q93 -41 154 -41z" />
    <glyph glyph-name="uni021E" unicode="&#x21e;" horiz-adv-x="722" 
d="M224 0h-149v720h149v-275h281v275h150v-720h-150v321h-281v-321zM420 774h-125l-115 146h113l64 -83l64 83h113z" />
    <glyph glyph-name="uni021F" unicode="&#x21f;" horiz-adv-x="611" 
d="M514 477q22 -30 27 -62q5 -35 5 -103v-312h-142v324q0 44 -15 69q-19 37 -72 37q-55 0 -83.5 -36.5t-28.5 -105.5v-288h-139v717h139v-254q54 83 153 83q105 0 156 -69zM380 771h-125l-115 146h113l64 -82l64 82h113z" />
    <glyph glyph-name="uni0220" unicode="&#x220;" horiz-adv-x="722" 
d="M655 424v-636h-153v636q0 74 -18 108q-27 61 -119 61q-91 0 -118 -61q-18 -34 -18 -108v-425h-153v425v11v285h150v-23q60 23 139 23q187 0 254 -117q36 -65 36 -179z" />
    <glyph glyph-name="uni0226" unicode="&#x226;" horiz-adv-x="722" 
d="M366 555l-93 -283h183zM25 0l257 720h170l255 -720h-163l-46 148h-266l-49 -148h-158zM308 803v115h127v-115h-127z" />
    <glyph glyph-name="uni0227" unicode="&#x227;" horiz-adv-x="556" 
d="M358 207v52q-24 -17 -63 -23l-31 -6q-41 -7 -63 -19q-33 -19 -33 -59q0 -34 19 -51t49 -17q45 0 83 26q38 27 39 97zM227 318l47 6q39 5 55 12q30 14 30 39q0 32 -22 45t-67 13q-50 0 -70 -24q-16 -19 -20 -49h-134q4 70 39 115q55 70 189 70q88 0 156 -35t68 -131v-244
q0 -37 1 -61q1 -26 7 -36t21 -17v-21h-151q-8 21 -13 62q-27 -29 -66 -53q-46 -26 -102 -26q-74 0 -120 42.5t-46 116.5q0 98 75 142q41 23 123 34zM216 632v116h127v-116h-127z" />
    <glyph glyph-name="uni0228" unicode="&#x228;" horiz-adv-x="667" 
d="M608 720v-128h-380v-153h349v-125h-349v-185h398v-129h-545v720h527zM471 -133q0 -44 -36.5 -70.5t-94.5 -26.5q-27 0 -60 10q-6 2 -45 16l18 42l39 -11q22 -6 38 -6q27 0 40.5 11.5t13.5 27.5q0 19 -13 28t-31 9q-15 0 -41 -8l-63 57l101 54h53l-43 -64q31 6 38 6
q40 0 63 -19.5t23 -55.5z" />
    <glyph glyph-name="uni0229" unicode="&#x229;" horiz-adv-x="556" 
d="M167 319h216q-4 55 -33 84t-75 29q-47 0 -74.5 -30t-33.5 -83zM482 443q32 -47 41 -110q5 -45 4 -105h-364q3 -81 50 -113q29 -20 70 -20q44 0 70 25q15 15 25 36h143q-6 -46 -50 -96q-67 -78 -191 -78q-101 0 -180 65q-77 66 -77 214q0 138 70 211q71 74 182 74
q143 0 207 -103zM394 -145q0 -44 -36.5 -70.5t-94.5 -26.5q-24 0 -60 11q-14 4 -46 15l19 42l38 -11q25 -5 38 -5q27 0 41 11t14 27q0 37 -45 37q-15 0 -41 -8l-63 57l101 54h53l-42 -64q25 6 37 6q40 0 63.5 -19.5t23.5 -55.5z" />
    <glyph glyph-name="uni022A" unicode="&#x22a;" horiz-adv-x="778" 
d="M589 361q0 120 -52 186.5t-142 66.5q-91 0 -143.5 -66.5t-52.5 -186.5q0 -121 52.5 -187.5t143.5 -66.5q90 0 142 66.5t52 187.5zM630 64q-81 -84 -235 -84q-155 0 -236 84q-110 104 -110 297q0 198 110 297q81 84 236 84q154 0 235 -84q109 -99 109 -297
q0 -194 -109 -297zM423 805v115h128v-115h-128zM228 805v115h127v-115h-127zM218 971v74h347v-74h-347z" />
    <glyph glyph-name="uni022B" unicode="&#x22b;" horiz-adv-x="611" 
d="M430 265q0 80 -32.5 123.5t-93.5 43.5t-94 -43.5t-33 -123.5t33 -123.5t94 -43.5t93.5 43.5t32.5 123.5zM304 -19q-137 0 -205 83q-67 83 -67 201q0 116 67 199q67 85 205 85q137 0 204 -85q68 -85 68 -199q0 -116 -68 -201q-68 -83 -204 -83zM338 615v115h128v-115h-128
zM143 615v115h128v-115h-128zM128 784v74h347v-74h-347z" />
    <glyph glyph-name="uni022C" unicode="&#x22c;" horiz-adv-x="778" 
d="M589 361q0 120 -52 186.5t-142 66.5q-91 0 -143.5 -66.5t-52.5 -186.5q0 -121 52.5 -187.5t143.5 -66.5q90 0 142 66.5t52 187.5zM630 64q-81 -84 -235 -84q-155 0 -236 84q-110 104 -110 297q0 198 110 297q81 84 236 84q154 0 235 -84q109 -99 109 -297
q0 -194 -109 -297zM379 896l46 -17q34 -11 41 -11q38 0 47 42h65q-21 -120 -111 -120q-16 0 -43 7l-31 9l-39 13q-15 5 -32 5q-19 0 -30 -11q-13 -11 -17 -30h-64q10 49 28 76q31 46 93 46q22 0 47 -9zM226 959v74h347v-74h-347z" />
    <glyph glyph-name="uni022D" unicode="&#x22d;" horiz-adv-x="611" 
d="M430 265q0 80 -32.5 123.5t-93.5 43.5t-94 -43.5t-33 -123.5t33 -123.5t94 -43.5t93.5 43.5t32.5 123.5zM304 -19q-137 0 -205 83q-67 83 -67 201q0 116 67 199q67 85 205 85q137 0 204 -85q68 -85 68 -199q0 -116 -68 -201q-68 -83 -204 -83zM291 731l46 -17
q33 -11 41 -11q21 0 31 10.5t16 31.5h65q-21 -120 -112 -120q-16 0 -43 7l-30 9l-40 13q-14 5 -32 5q-17 0 -30 -11q-11 -10 -16 -30h-64q10 49 28 76q31 46 93 46q20 0 47 -9zM130 806v74h348v-74h-348z" />
    <glyph glyph-name="uni022E" unicode="&#x22e;" horiz-adv-x="778" 
d="M589 361q0 120 -52 186.5t-142 66.5q-91 0 -143.5 -66.5t-52.5 -186.5q0 -121 52.5 -187.5t143.5 -66.5q90 0 142 66.5t52 187.5zM630 64q-81 -84 -235 -84q-155 0 -236 84q-110 104 -110 297q0 198 110 297q81 84 236 84q154 0 235 -84q109 -99 109 -297
q0 -194 -109 -297zM328 816v116h127v-116h-127z" />
    <glyph glyph-name="uni022F" unicode="&#x22f;" horiz-adv-x="611" 
d="M430 265q0 80 -32.5 123.5t-93.5 43.5t-94 -43.5t-33 -123.5t33 -123.5t94 -43.5t93.5 43.5t32.5 123.5zM304 -19q-137 0 -205 83q-67 83 -67 201q0 116 67 199q67 85 205 85q137 0 204 -85q68 -85 68 -199q0 -116 -68 -201q-68 -83 -204 -83zM239 632v116h127v-116h-127
z" />
    <glyph glyph-name="uni0230" unicode="&#x230;" horiz-adv-x="778" 
d="M589 361q0 120 -52 186.5t-142 66.5q-91 0 -143.5 -66.5t-52.5 -186.5q0 -121 52.5 -187.5t143.5 -66.5q90 0 142 66.5t52 187.5zM630 64q-81 -84 -235 -84q-155 0 -236 84q-110 104 -110 297q0 198 110 297q81 84 236 84q154 0 235 -84q109 -99 109 -297
q0 -194 -109 -297zM328 794v116h127v-116h-127zM224 958v74h347v-74h-347z" />
    <glyph glyph-name="uni0231" unicode="&#x231;" horiz-adv-x="611" 
d="M430 265q0 80 -32.5 123.5t-93.5 43.5t-94 -43.5t-33 -123.5t33 -123.5t94 -43.5t93.5 43.5t32.5 123.5zM304 -19q-137 0 -205 83q-67 83 -67 201q0 116 67 199q67 85 205 85q137 0 204 -85q68 -85 68 -199q0 -116 -68 -201q-68 -83 -204 -83zM243 608v116h127v-116h-127
zM131 775v75h347v-75h-347z" />
    <glyph glyph-name="uni0232" unicode="&#x232;" horiz-adv-x="667" 
d="M344 406l143 314h170l-240 -449v-271h-151v271l-249 449h177zM164 789v74h347v-74h-347z" />
    <glyph glyph-name="uni0233" unicode="&#x233;" horiz-adv-x="556" 
d="M86 -213v111l18 -1q50 -2 70 13q12 7 23 35q11 26 9 32l-196 555h155l116 -392l110 392h148l-183 -523q-53 -154 -83 -188q-31 -36 -123 -36q-43 0 -64 2zM105 621v74h348v-74h-348z" />
    <glyph glyph-name="uni0237" unicode="&#x237;" horiz-adv-x="278" 
d="M-19 -178v117q9 -4 31 -4q55 0 55 46v536h142v-543q0 -83 -39 -119.5t-143 -36.5q-26 0 -46 4z" />
    <glyph glyph-name="uni0238" unicode="&#x238;" horiz-adv-x="961" 
d="M929 273q0 -123 -59 -206q-58 -81 -163 -81q-65 0 -106 26q-22 14 -51 53v-65h-137v70q-29 -46 -66 -65q-37 -22 -95 -22q-92 0 -157 75q-63 76 -63 194q0 136 62 215q63 78 168 78q96 0 147 -80v254h143v-256q25 36 58 57q38 24 96 24q106 0 164 -76q59 -76 59 -195z
M413 251v7q0 98 -49 140q-31 25 -71 25q-58 0 -88 -44t-30 -116q0 -76 29.5 -119t87.5 -43q60 0 90 44q29 40 31 106zM783 258q0 55 -14 94q-28 70 -103 70t-104 -68q-7 -21 -12 -47v-89q8 -43 28 -72q30 -45 92 -45q53 0 83 42.5t30 114.5z" />
    <glyph glyph-name="uni0239" unicode="&#x239;" horiz-adv-x="963" 
d="M930 273q0 -141 -63 -215q-63 -73 -163 -73q-62 0 -105 32q-23 17 -45 51v-277h-5v-2h-138v277q-39 -83 -157 -83q-92 0 -157 74t-65 197q0 132 65 212q66 80 161 80q68 0 108 -33q24 -18 49 -61v79h1v1h133v-78q23 34 48 54q47 36 111 36q92 0 157 -69q65 -70 65 -202z
M396 164q19 39 19 103q0 47 -17 87q-28 69 -104 69q-55 0 -86 -41.5t-31 -121.5q0 -55 15 -91q27 -66 101 -66q72 0 103 61zM667 422q-75 0 -104 -71q-14 -40 -14 -97q0 -93 49 -130q28 -22 69 -22q58 0 89 44t31 120q0 62 -29 109t-91 47z" />
    <glyph glyph-name="uni023A" unicode="&#x23a;" horiz-adv-x="722" 
d="M366 555l-93 -283h183zM25 0l257 720h170l255 -720h-163l-46 148h-266l-49 -148h-158zM238 -105l279 952h116l-280 -952h-115z" />
    <glyph glyph-name="uni023B" unicode="&#x23b;" horiz-adv-x="722" 
d="M434 729l34 115h116l-43 -147q56 -29 94 -83q47 -68 50 -134h-150q-14 51 -36 76l-132 -446h9q79 0 121 52q23 28 38 83h149q-19 -118 -101 -192q-79 -73 -205 -73q-17 0 -49 2l-25 -85h-115l34 115q-51 24 -89 68q-89 101 -89 274q0 187 101 291q88 88 224 88
q37 0 64 -4zM375 605q-82 0 -129 -66.5t-47 -186.5q0 -121 50 -182q10 -12 16 -17l132 451q-7 1 -22 1z" />
    <glyph glyph-name="uni023C" unicode="&#x23c;" horiz-adv-x="556" 
d="M332 542l39 102h115l-50 -135l14 -9q64 -45 75 -159h-142l-4 19l-99 -262h8q45 0 66.5 24.5t27.5 70.5h142q-4 -63 -46 -120q-65 -92 -194 -92q-25 0 -47 3l-30 -82h-115l44 118q-23 15 -41 38q-60 76 -60 197q0 138 66.5 214t184.5 76q24 0 46 -3zM194 357
q-14 -39 -14 -98q0 -55 12 -90l97 258q-70 0 -95 -70z" />
    <glyph glyph-name="uni023D" unicode="&#x23d;" horiz-adv-x="611" 
d="M583 129v-129h-507v325l-83 -2v95h83v302h151v-302h148v-91l-148 -1v-197h356z" />
    <glyph glyph-name="uni023E" unicode="&#x23e;" horiz-adv-x="611" 
d="M424 720l59 124h116l-60 -124h60v-128h-120l-95 -199v-393h-152v75l-84 -178h-115l199 420v275h-216v128h408z" />
    <glyph glyph-name="uni0241" unicode="&#x241;" horiz-adv-x="611" 
d="M157 690q58 37 142 37q109 0 183 -53q73 -52 73 -156q0 -63 -32 -107q-19 -27 -71 -67l-35 -27q-28 -22 -37 -51q-6 -19 -6 -266h-132q3 290 15 322q14 33 66 73l35 27q18 14 29 29q19 26 19 59q0 38 -22 67q-21 31 -79 31q-56 0 -80 -38t-24 -77h-141q6 139 97 197z" />
    <glyph glyph-name="uni0242" unicode="&#x242;" horiz-adv-x="611" 
d="M157 512q58 37 142 37q109 0 183 -53q73 -52 73 -156q0 -63 -32 -107q-19 -27 -71 -67l-35 -27q-28 -22 -37 -51q-4 20 -5 -25q-1 -23 -1 -63h-132q3 112 15 144q14 33 66 73l35 28q20 15 29 28q19 26 19 60q0 38 -22 67q-21 31 -79 31q-56 0 -80 -38q-24 -37 -24 -78
h-141q6 139 97 197z" />
    <glyph glyph-name="uni0243" unicode="&#x243;" horiz-adv-x="763" 
d="M668 643q33 -46 33 -110q0 -65 -33 -106q-18 -21 -55 -41q112 -41 112 -169q0 -65 -33 -114q-20 -35 -51 -57q-62 -46 -184 -46h-326v170h-103v99h103v451h349q132 -1 188 -77zM274 269h101v-99h-101v-45h177q49 0 74 13q48 22 48 90q0 56 -47 77q-26 11 -72 12h-180v-48
zM433 595h-159v-159h177q107 0 107 81q0 49 -39 66q-35 12 -86 12z" />
    <glyph glyph-name="uni0244" unicode="&#x244;" horiz-adv-x="832" 
d="M707 513h97v-98h-97v-138q0 -113 -36 -178q-67 -118 -254 -118t-253 118q-36 65 -36 178v138h-100v98h100v207h153v-207h273v207h153v-207zM298 169q28 -61 119 -61q92 0 119 61q18 35 18 108v138h-273v-138q0 -72 17 -108z" />
    <glyph glyph-name="uni0245" unicode="&#x245;" horiz-adv-x="667" 
d="M498 0l-158 546l-156 -546h-161l243 720h142l246 -720h-156z" />
    <glyph glyph-name="uni0246" unicode="&#x246;" horiz-adv-x="667" 
d="M383 720l36 124h116l-37 -124h110v-128h-148l-44 -153h161v-125h-199l-54 -185h302v-129h-340l-31 -103h-114l30 103h-90v720h302zM228 592v-153h72l45 153h-117zM228 314v-122l35 122h-35z" />
    <glyph glyph-name="uni0247" unicode="&#x247;" horiz-adv-x="556" 
d="M318 543l38 101h116l-52 -137q36 -23 62 -64q32 -47 41 -110q5 -45 4 -105h-213l-49 -132q5 -1 18 -1q44 0 70 25q15 15 25 36h143q-6 -46 -50 -96q-67 -78 -191 -78q-29 0 -56 6l-32 -86h-115l48 127q-15 10 -24 19q-78 64 -78 213q0 138 70 211q71 74 182 74
q22 0 43 -3zM167 319h67l42 113h-1q-47 0 -74.5 -30t-33.5 -83zM175 163l24 65h-36q2 -38 12 -65zM349 319h34q-1 30 -13 55z" />
    <glyph glyph-name="uni0248" unicode="&#x248;" horiz-adv-x="556" 
d="M483 527h75v-98h-75v-210q0 -93 -31 -146q-54 -91 -194 -91t-188 73t-48 201v17h142v-17q2 -87 19.5 -119t68.5 -32q55 0 71 37q10 21 10 74v213h-83v98h83v193h150v-193z" />
    <glyph glyph-name="uni0249" unicode="&#x249;" horiz-adv-x="278" 
d="M210 283h91v-98h-91v-242q0 -81 -32 -119q-31 -39 -124 -39l-50 2v111q7 0 12.5 -0.5t8.5 -1t5 -0.5q21 0 31 11t10 38v240h-77v98h77v247h139v-247zM210 724v-128h-139v128h139z" />
    <glyph glyph-name="uni024A" unicode="&#x24a;" horiz-adv-x="824" 
d="M806 -110q0 -43 -1 -61q0 -61 -4 -61q-140 0 -194 90q-32 55 -32 146v25q-74 -49 -194 -49q-153 0 -236 84q-109 103 -109 297q0 198 109 297q83 84 236 84q118 0 194 -50v28h151v-719q0 -53 10 -74q16 -37 70 -37zM187 361q0 -121 52 -187.5t142 -66.5q89 0 142 66
q44 55 52 150v76q-7 94 -52 149q-53 66 -142 66q-90 0 -142 -66.5t-52 -186.5z" />
    <glyph glyph-name="uni024B" unicode="&#x24b;" horiz-adv-x="659" 
d="M642 -102v-111l-50 -2q-93 0 -125 39q-31 37 -31 119v62q-54 -24 -128 -24q-137 0 -205 83q-67 83 -67 201q0 116 67 199q67 85 205 85q75 0 128 -25v6h139v-585q0 -27 10 -38t31 -11q2 0 5 0.5t8.5 1t12.5 0.5zM182 265q0 -80 32.5 -123.5t93.5 -43.5t94 43.5t33 123.5
t-33 123.5t-94 43.5t-93.5 -43.5t-32.5 -123.5z" />
    <glyph glyph-name="uni024C" unicode="&#x24c;" horiz-adv-x="772" 
d="M671 651q51 -59 51 -136q0 -52 -26 -102q-25 -49 -86 -69q51 -20 71.5 -57.5t20.5 -112.5v-48q0 -51 4 -67q4 -27 27 -41v-18h-166l-9 39q-5 27 -7 62l-1 66q-2 70 -25 92q-25 23 -90 23h-156v-282h-147v282h-103v119h103v319h353q73 -2 115 -18.5t71 -50.5zM454 595
h-175v-194h171q50 0 76 12q45 21 45 81q0 65 -44 88q-23 13 -73 13z" />
    <glyph glyph-name="uni024D" unicode="&#x24d;" horiz-adv-x="439" 
d="M249 269h119v-99h-119v-170h-141v170h-87v99h87v263h133v-93q30 52 56 73q39 33 102 33q2 0 6.5 -0.5t11.5 -0.5v-143q-17 3 -40 3q-84 0 -112 -55q-14 -26 -16 -80z" />
    <glyph glyph-name="uni024E" unicode="&#x24e;" horiz-adv-x="767" 
d="M645 620h105v-98h-157l-135 -251v-271h-150v271l-140 251h-150v98h96l-55 100h177l47 -100h200l45 100h171zM330 522l55 -116l53 116h-108z" />
    <glyph glyph-name="uni024F" unicode="&#x24f;" horiz-adv-x="661" 
d="M537 376h112v-98h-146l-94 -269q-53 -152 -84 -188q-30 -36 -122 -36q-43 0 -64 2v111l18 -1q49 -2 70 13q11 7 22 35q11 26 9 32l-106 301h-123v98h89l-55 156h155l46 -156h136l44 156h148zM293 278l41 -138l39 138h-80z" />
    <glyph glyph-name="uni0250" unicode="&#x250;" horiz-adv-x="556" 
d="M197 321v-51q24 16 64 22l31 6q41 7 63 19q32 20 32 59q0 34 -18.5 51t-49.5 17q-45 0 -83 -27q-38 -25 -39 -96zM329 210l-47 -5q-35 -4 -55 -13q-30 -12 -30 -39q0 -32 21.5 -45t67.5 -13q49 0 70 25q14 17 19 48h135q-4 -69 -39 -114q-56 -71 -190 -71q-87 0 -155 35
t-68 131v244q0 37 -1 62t-7 35.5t-22 17.5v20h152q11 -28 12 -62q25 28 67 53q46 26 101 26q74 0 120.5 -42t46.5 -116q0 -99 -76 -142q-41 -25 -122 -35z" />
    <glyph glyph-name="uni0251" unicode="&#x251;" horiz-adv-x="592" 
d="M385 468v57h140v-525h-144v64q-60 -76 -156 -76q-87 0 -142 87q-54 87 -54 189q0 104 59 187q60 82 153 82q82 0 144 -65zM281 424q-53 0 -83 -48q-29 -49 -29 -114t29 -114q28 -48 83 -48q49 0 76 48t27 114t-27 114q-25 48 -76 48z" />
    <glyph glyph-name="uni0252" unicode="&#x252;" horiz-adv-x="592" 
d="M169 53v-57h-140v525h144v-64q60 76 156 76q87 0 141 -88q55 -86 55 -189q0 -104 -60 -187q-58 -82 -153 -82q-80 0 -143 66zM273 97q53 0 82 47q30 48 30 114q0 67 -29 114q-28 48 -83 48q-49 0 -76 -48q-27 -46 -27 -114q0 -65 26 -114q27 -47 77 -47z" />
    <glyph glyph-name="uni0253" unicode="&#x253;" horiz-adv-x="611" 
d="M264 733v-111q-16 1 -25 1q-22 0 -32 -10.5t-10 -38.5v-31h2v-80q25 36 58 57q37 24 96 24q106 0 164 -76q59 -76 59 -195q0 -123 -59 -206q-59 -81 -163 -81q-65 0 -106 26q-24 16 -52 55v-67h-136v405h-2v172q0 80 32 118q32 39 124 39q3 0 19.5 -0.5t30.5 -0.5z
M430 258q0 55 -14 94q-28 70 -103 70t-104 -68q-15 -38 -15 -95q0 -72 31.5 -115t91.5 -43q53 0 83 42.5t30 114.5z" />
    <glyph glyph-name="uni0254" unicode="&#x254;" horiz-adv-x="556" 
d="M34 185h143q5 -32 20 -54q23 -32 73 -32q71 0 96 70q13 36 13 99q0 59 -13 94q-25 66 -94 66q-86 0 -94 -95h-142q4 62 46 121q64 91 193 91t189 -76q61 -76 61 -198q0 -137 -67 -213.5t-185 -76.5q-99 0 -164 45q-63 45 -75 159z" />
    <glyph glyph-name="uni0256" unicode="&#x256;" horiz-adv-x="646" 
d="M616 -102v-111q-9 0 -21 -0.5t-18.5 -1t-10.5 -0.5q-94 0 -125 39q-31 37 -31 119v124q-27 -41 -64 -62q-37 -22 -95 -22q-93 0 -157 75q-63 76 -63 194q0 136 62 215q63 78 168 78q96 0 147 -80v254h141v-719v-55q0 -27 10 -38t31 -11q2 0 5 0.5t8.5 1t12.5 0.5z
M412 258q0 98 -49 140q-29 25 -71 25q-58 0 -88 -44t-30 -116q0 -76 29.5 -119t88.5 -43q58 0 89 42.5t31 114.5z" />
    <glyph glyph-name="uni0257" unicode="&#x257;" horiz-adv-x="611" 
d="M615 738v-111q-15 1 -25 1q-22 0 -32 -10.5t-10 -37.5v-37h1v-543h-135v74q-30 -48 -68 -69.5t-95 -21.5q-93 0 -157 75q-63 76 -63 194q0 136 62 215q63 78 168 78q96 0 147 -80v78h1v39q0 81 32 119q31 39 124 39q2 0 50 -2zM412 258q0 98 -49 140q-29 25 -71 25
q-58 0 -88 -44t-30 -116q0 -76 29.5 -119t88.5 -43q58 0 89 42.5t31 114.5z" />
    <glyph glyph-name="uni0258" unicode="&#x258;" horiz-adv-x="556" 
d="M169 319h216q-15 113 -108 113q-46 0 -75.5 -29t-32.5 -84zM69 443q67 103 208 103q111 0 182 -74q70 -73 70 -211q0 -148 -78 -214q-77 -65 -179 -65q-124 0 -191 78q-44 50 -50 96h142q11 -21 26 -36q26 -25 70 -25q40 0 69 20q48 31 51 113h-365q-1 65 5 105
q9 65 40 110z" />
    <glyph glyph-name="uni0259" unicode="&#x259;" horiz-adv-x="574" 
d="M41 303h378q-7 59 -39.5 92t-81.5 33q-73 0 -110 -70h-136q19 77 84.5 125t162.5 48q120 0 192.5 -76t72.5 -201q0 -121 -71.5 -194t-191.5 -73t-191.5 73t-71.5 194q0 25 3 49zM421 213h-240q7 -54 35 -88q30 -36 85 -36q101 0 120 124z" />
    <glyph glyph-name="uni025A" unicode="&#x25a;" horiz-adv-x="882" 
d="M746 247q40 -13 74 55q8 -8 27.5 -19.5t27.5 -19.5q-38 -86 -114 -90q-55 -6 -92 31.5t-37 97.5l-76 -21q15 -101 -24 -171q-49 -90 -157 -118q-134 -37 -227 46q-41 37 -67 96q-16 36 -32 100l352 95q-24 75 -77 95q-32 12 -73 1q-42 -11 -61 -41q-10 -16 -15 -42
l-137 -37q-8 48 22 106q47 93 165 124q97 27 190 -17q78 -38 117 -145q42 12 63 19q54 15 115 35q9 -33 4.5 -69.5t1.5 -70t30 -40.5zM422 239l-209 -56q17 -51 53 -71.5t80 -8.5q89 23 76 136z" />
    <glyph glyph-name="uni025B" unicode="&#x25b;" horiz-adv-x="505" 
d="M260 432q-97 0 -97 -60v-9q2 -24 31 -38q29 -13 61 -13h47v-92h-46q-35 0 -69 -19q-33 -18 -33 -47q0 -70 96 -70q92 0 106 76h115l-6 -44q-15 -51 -63 -90q-49 -38 -146 -38q-87 0 -155 35q-67 34 -67 100q0 49 21 86.5t55 56.5q-35 18 -51.5 42.5t-16.5 67.5q0 19 4 50
q4 34 67 71q62 37 141 37q100 0 143 -34q45 -36 67 -119h-120q-12 28 -26 39q-14 12 -58 12z" />
    <glyph glyph-name="uni025C" unicode="&#x25c;" horiz-adv-x="505" 
d="M246 432q-44 0 -58 -12q-14 -11 -26 -39h-120q22 83 67 119q43 34 143 34q79 0 140 -37q62 -36 67 -71q5 -38 5 -50q0 -43 -16.5 -67.5t-51.5 -42.5q34 -19 55 -56.5t21 -86.5q0 -66 -67 -100q-68 -35 -155 -35q-97 0 -146 38q-48 39 -63 90l-6 44h115q14 -76 106 -76
q96 0 96 70q0 29 -34 47q-32 19 -68 19h-46v92h47q33 0 60 13q30 14 32 38v9q0 60 -97 60z" />
    <glyph glyph-name="uni025D" unicode="&#x25d;" horiz-adv-x="798" 
d="M659 359q40 -13 74 55q8 -8 27.5 -19.5t27.5 -19.5q-36 -83 -114 -90q-55 -6 -92 32t-37 97q-3 -1 -76 -21l-7 -2v-15q0 -42 -16 -67t-51 -43q34 -20 54.5 -57.5t20.5 -85.5q0 -66 -67 -100q-68 -35 -154 -35q-98 0 -147 38q-49 40 -62 90q-4 27 -7 44h115
q14 -76 106 -76q97 0 97 70q0 29 -34 47q-34 19 -68 19h-46v92h47q32 0 59 13q30 14 32 38v9q0 60 -96 60q-45 0 -59 -12q-14 -11 -26 -39h-119q22 84 66 119q43 34 143 34q80 0 141 -36l30 -20l87 26q48 14 116 35q7 -32 3 -69t2 -70.5t30 -40.5z" />
    <glyph glyph-name="uni025E" unicode="&#x25e;" horiz-adv-x="537" 
d="M424 498q62 -38 66 -72q5 -38 5 -50q0 -43 -16.5 -67.5t-51.5 -42.5q34 -19 55 -56.5t21 -86.5q0 -66 -67 -100q-68 -35 -155 -35q-127 -8 -189 69q-60 77 -60 198q0 138 67 214t184 65q78 0 141 -36zM287 427q-71 0 -96 -70q-14 -39 -14 -98q0 -58 14 -94q25 -67 93 -81
h3q96 0 96 70q0 29 -34 47q-32 19 -68 19l1 92q33 0 60 13q30 14 32 38v9q0 34 -27 47q-26 12 -60 8z" />
    <glyph glyph-name="uni025F" unicode="&#x25f;" horiz-adv-x="333" 
d="M14 -194v113q14 -2 39 -2q49 -1 49 41v44h-92v99h92v429h138v-429h78v-99h-76v-34q0 -85 -29 -117q-30 -48 -146 -48q-29 0 -53 3z" />
    <glyph glyph-name="uni0260" unicode="&#x260;" horiz-adv-x="611" 
d="M614 685v-112q-7 0 -12.5 0.5t-8.5 1t-5 0.5q-21 0 -31 -10.5t-10 -38.5v-170h-1v-329q0 -102 -35 -155q-59 -90 -228 -90q-105 0 -168 41t-70 119h151q6 -25 19 -35q22 -19 76 -19q75 0 101 50q16 31 16 108v35q-20 -35 -43 -52q-40 -31 -108 -31q-103 0 -164 72
q-61 71 -61 195q0 117 59 199q59 81 168 81q40 0 70 -12q47 -19 79 -73v68q0 82 31 119q31 39 125 39q2 0 18.5 -0.5t31.5 -0.5zM410 269q0 74 -31.5 114t-86.5 40q-72 0 -101 -69q-15 -36 -15 -90q0 -47 16 -82q29 -68 101 -68q52 0 84.5 39t32.5 116z" />
    <glyph glyph-name="uni0261" unicode="&#x261;" horiz-adv-x="611" 
d="M410 269q0 74 -31.5 114t-86.5 40q-72 0 -101 -69q-15 -36 -15 -90q0 -47 16 -82q29 -68 101 -68q52 0 84.5 39t32.5 116zM329 533q50 -21 82 -77v76h135v-505q0 -102 -35 -155q-59 -90 -228 -90q-105 0 -168 41t-70 119h151q6 -25 19 -35q22 -19 76 -19q75 0 101 50
q16 31 16 108v35q-20 -35 -43 -52q-40 -31 -108 -31q-103 0 -164 72q-61 71 -61 195q0 117 59 199q59 81 168 81q40 0 70 -12z" />
    <glyph glyph-name="uni0265" unicode="&#x265;" horiz-adv-x="611" 
d="M97 53q-23 30 -27 61q-5 35 -5 103v313h143v-324q0 -43 14 -69q19 -37 72 -37q113 0 113 142v288h138v-718h-138v255q-56 -83 -154 -83q-105 0 -156 69z" />
    <glyph glyph-name="uni0266" unicode="&#x266;" horiz-adv-x="611" 
d="M272 771v-111q-7 0 -12.5 0.5t-8 1t-4.5 0.5q-22 0 -32 -10.5t-10 -38.5v-150q54 83 153 83q105 0 156 -69q22 -30 27 -62q5 -35 5 -103v-312h-142v324q0 44 -15 69q-19 37 -72 37q-55 0 -83.5 -36.5t-28.5 -105.5v-288h-139v615q0 82 31 119q31 39 125 39q4 0 10.5 -0.5
t18.5 -1t21 -0.5z" />
    <glyph glyph-name="uni0267" unicode="&#x267;" horiz-adv-x="659" 
d="M612 -102v-111q-9 0 -21 -0.5t-18.5 -1t-10.5 -0.5q-94 0 -125 39q-31 37 -31 119v57h-2v324q0 44 -15 69q-19 37 -72 37q-55 0 -83.5 -36.5t-28.5 -105.5v-288h-139v615q0 82 31 119q31 39 125 39q4 0 10.5 -0.5t18.5 -1t21 -0.5v-111q-7 0 -12.5 0.5t-8 1t-4.5 0.5
q-22 0 -32 -10.5t-10 -38.5v-150q54 83 153 83q105 0 156 -69q22 -30 27 -62q5 -35 5 -103v-312h-1v-55q0 -27 10 -38t31 -11q2 0 5 0.5t8.5 1t12.5 0.5z" />
    <glyph glyph-name="uni0268" unicode="&#x268;" horiz-adv-x="378" 
d="M11 328v74h100v130h141v-130h106v-74h-106v-328h-141v328h-100zM252 724v-128h-141v128h141z" />
    <glyph glyph-name="uni0269" unicode="&#x269;" horiz-adv-x="278" 
d="M67 0v525h140v-525h-140z" />
    <glyph glyph-name="uni026A" unicode="&#x26a;" horiz-adv-x="334" 
d="M23 0v131h68v269h-68v132h68h141h71v-132h-71v-269h71v-131h-280z" />
    <glyph glyph-name="uni026B" unicode="&#x26b;" horiz-adv-x="392" 
d="M261 325v-325h-139v359h-2q-20 0 -31 -10q-12 -14 -16 -31h-64q10 49 28 76q28 43 85 46v280h139v-317h3q38 0 47 42h65q-21 -120 -111 -120h-4z" />
    <glyph glyph-name="uni026D" unicode="&#x26d;" horiz-adv-x="305" 
d="M274 -102v-111l-50 -2q-94 0 -125 39q-31 37 -31 119v777h139v-775q0 -27 10 -38t32 -11q2 0 4.5 0.5t8 1t12.5 0.5z" />
    <glyph glyph-name="uni026F" unicode="&#x26f;" horiz-adv-x="889" 
d="M98 62q-24 28 -31 68q-5 30 -5 78l1 336h143v-339q0 -31 10 -50q18 -37 68 -37q58 0 80 48q11 27 11 61v317h140v-317q0 -48 10 -69q17 -38 69 -38q59 0 80 38q11 24 11 66v320h141v-531h-135v77q-25 -40 -49 -59q-40 -31 -105 -31q-61 0 -99 27q-30 26 -45 64
q-29 -47 -68 -69q-43 -22 -96 -22q-84 0 -131 62z" />
    <glyph glyph-name="uni0270" unicode="&#x270;" horiz-adv-x="889" 
d="M98 62q-24 28 -31 68q-5 30 -5 78l1 336h143v-339q0 -31 10 -50q18 -37 68 -37q58 0 80 48q11 27 11 61v317h140v-317q0 -48 10 -69q17 -38 69 -38q59 0 80 38q11 24 11 66v320h141v-732h-135v278q-25 -40 -49 -59q-40 -31 -105 -31q-61 0 -99 27q-30 26 -45 64
q-29 -47 -68 -69q-43 -22 -96 -22q-84 0 -131 62z" />
    <glyph glyph-name="uni0271" unicode="&#x271;" horiz-adv-x="889" 
d="M615 -213v111q6 0 11.5 -0.5t8.5 -1t5 -0.5q22 0 32 11t10 38v316h1v78q0 31 -10 50q-19 37 -69 37q-56 0 -79 -48q-11 -27 -11 -61v-317h-140v317q0 48 -10 69q-18 38 -69 38q-60 0 -80 -38q-11 -24 -11 -66v-320h-142v531h136v-77q25 40 49 59q40 31 105 31
q60 0 98 -27q30 -25 46 -64q27 46 68 69q43 22 96 22q82 0 131 -62q22 -27 30 -68q5 -30 5 -79l-1 -335l-4 -57q0 -81 -32 -119q-31 -39 -124 -39q-2 0 -50 2z" />
    <glyph glyph-name="uni0272" unicode="&#x272;" horiz-adv-x="611" 
d="M0 -213v111q6 0 11.5 -0.5t8.5 -1t5 -0.5q21 0 31 11t10 38v55v531h134v-1h6v-68q22 34 45 51q44 32 109 32q81 0 134 -44t53 -143v-358h-142v324q0 40 -11 64q-21 41 -79 41q-70 0 -97 -60q-10 -22 -12 -56v-370q0 -81 -32 -119q-32 -39 -125 -39q-1 0 -49 2z" />
    <glyph glyph-name="uni0273" unicode="&#x273;" horiz-adv-x="648" 
d="M611 -102v-111q-9 0 -21 -0.5t-18.5 -1t-10.5 -0.5q-93 0 -125 39q-31 37 -31 119v381q0 40 -11 64q-21 41 -79 41q-70 0 -97 -60q-13 -30 -13 -81v-288h-139v531h134v-77q28 42 51 59q44 32 109 32q81 0 134 -44t53 -143v-358h-3v-55q0 -27 10 -38t31 -11q2 0 5 0.5
t8.5 1t12.5 0.5z" />
    <glyph glyph-name="uni0274" unicode="&#x274;" horiz-adv-x="529" 
d="M45 0v531h158l141 -314v314h140v-531h-150l-149 323v-323h-140z" />
    <glyph glyph-name="uni0275" unicode="&#x275;" horiz-adv-x="611" 
d="M304 -19q-137 0 -205 83q-67 83 -67 201q0 116 67 199q67 85 205 85q137 0 204 -85q68 -85 68 -199q0 -116 -68 -201q-68 -83 -204 -83zM209 142q35 -44 95 -44q61 0 93 44q25 31 31 87h-249q6 -55 30 -87zM397 388q-32 44 -93 44q-60 0 -95 -44q-24 -31 -30 -85h249
q-6 54 -31 85z" />
    <glyph glyph-name="uni0276" unicode="&#x276;" horiz-adv-x="944" 
d="M420 262q0 170 -126 170q-76 0 -105 -71q-15 -37 -15 -96q0 -171 118 -171q128 0 128 168zM486 466q40 38 67 54q47 24 114 24q125 0 197 -97q27 -36 38 -97q8 -42 8 -119h-364q3 -64 31.5 -100t79.5 -36q89 0 107 62h138q-9 -69 -71 -122q-61 -52 -178 -52
q-66 0 -114 27q-32 18 -62 50q-27 -32 -57 -48q-52 -30 -131 -30q-119 0 -189 78q-69 78 -69 202q0 134 72 207q73 75 192 75q125 0 191 -78zM752 388q-27 48 -98 48q-31 0 -57 -14q-47 -29 -50 -101h221q-2 42 -16 67z" />
    <glyph glyph-name="uni0278" unicode="&#x278;" horiz-adv-x="722" 
d="M297 -209v209q-118 7 -191 74q-72 65 -74 189q0 125 71 201q69 73 194 75v167h128v-167q127 -1 196 -75q67 -75 69 -201q-2 -123 -73 -189q-73 -67 -192 -74v-209h-128zM297 116v307q-71 -6 -101 -49q-32 -44 -30 -111q2 -128 131 -147zM425 423v-307q129 19 131 147
q0 67 -29 111q-31 43 -102 49z" />
    <glyph glyph-name="uni0279" unicode="&#x279;" horiz-adv-x="389" 
d="M63 1v143q17 -3 40 -3q85 0 113 55q16 31 16 95v254h140v-532h-133v92q-31 -52 -56 -72q-39 -33 -101 -33q-7 0 -19 1z" />
    <glyph glyph-name="uni027A" unicode="&#x27a;" horiz-adv-x="389" 
d="M63 1v143q17 -3 40 -3q85 0 113 55q16 31 16 95v429h140v-707h-133v92q-31 -52 -56 -72q-39 -33 -101 -33q-7 0 -19 1z" />
    <glyph glyph-name="uni027B" unicode="&#x27b;" horiz-adv-x="472" 
d="M440 -102v-111q-9 0 -21 -0.5t-18.5 -1t-10.5 -0.5q-94 0 -125 39q-31 37 -31 119v153q-28 -46 -51 -63q-39 -33 -101 -33q-7 0 -19 1v143q17 -3 40 -3q85 0 113 55q16 31 16 95v254h140v-430h1v-170q0 -27 10 -38t32 -11q2 0 4.5 0.5t8 1t12.5 0.5z" />
    <glyph glyph-name="uni027C" unicode="&#x27c;" horiz-adv-x="389" 
d="M373 544v-143q-19 3 -40 3q-85 0 -113 -55q-16 -31 -16 -95v-442h-141v720h133v-93q32 52 56 73q40 33 102 33q2 0 7 -0.5t12 -0.5z" />
    <glyph glyph-name="uni027D" unicode="&#x27d;" horiz-adv-x="389" 
d="M269 -102v-111q-9 0 -21 -0.5t-18.5 -1t-10.5 -0.5q-93 0 -125 39q-31 37 -31 119v172v417h133v-93q32 52 56 73q40 33 102 33q2 0 7 -0.5t12 -0.5v-143q-19 3 -40 3q-85 0 -113 -55q-16 -31 -16 -95v-254h-2v-55q0 -27 10 -38t32 -11q2 0 9.5 0.5t15.5 1.5z" />
    <glyph glyph-name="uni027E" unicode="&#x27e;" horiz-adv-x="278" 
d="M240 519v-112q-7 0 -12.5 0.5t-8.5 1t-5 0.5q-50 9 -60 -1t-10 -38v-370h-140v372q0 81 32 119q31 39 125 39q6 0 33 -6q30 -5 46 -5z" />
    <glyph glyph-name="uni027F" unicode="&#x27f;" horiz-adv-x="278" 
d="M4 407v112q16 0 46 5q27 6 33 6q93 0 125 -39q32 -38 32 -119v-372h-139v370q0 27 -11 38q-10 10 -60 1q-2 0 -5 -0.5t-8.5 -1t-12.5 -0.5z" />
    <glyph glyph-name="uni0280" unicode="&#x280;" horiz-adv-x="533" 
d="M256 439h-48v-123h44q38 0 57 9q33 15 33 40q0 48 -32 65q-18 9 -54 9zM456 480q38 -43 38 -100q0 -37 -18 -63t-64 -63q37 -15 52 -42.5t15 -82.5v-36q0 -37 3 -50q5 -20 20 -30v-13h-163l-7 28q-4 20 -4 46l-1 50q-1 32 -19.5 47.5t-66.5 15.5h-33v-187h-149v531h260
q96 -1 137 -51z" />
    <glyph glyph-name="uni0281" unicode="&#x281;" horiz-adv-x="533" 
d="M208 92h48q37 0 54 10q32 17 32 65q0 23 -33 40q-21 8 -57 8h-44v-123zM456 51q-41 -50 -137 -51h-260v531h149v-187h33q48 0 66.5 16t19.5 48l1 49q0 26 4 46q1 5 7 28h163v-13q-15 -10 -20 -30q-3 -13 -3 -50v-36q0 -54 -15.5 -82t-51.5 -43q46 -37 64 -63t18 -63
q0 -57 -38 -100z" />
    <glyph glyph-name="uni0283" unicode="&#x283;" horiz-adv-x="380" 
d="M222 -121q-39 -90 -139 -90q-45 0 -103 21l12 111q37 -19 56 -19q34 0 48 39q9 29 10 105l19 449q4 118 28 173q37 87 139 87q31 0 70 -9l34 -10l-10 -111q-37 17 -59 17q-37 0 -51 -39q-9 -25 -12 -108l-17 -474q-5 -94 -25 -142z" />
    <glyph glyph-name="uni0284" unicode="&#x284;" horiz-adv-x="380" 
d="M-8 0v75h115l18 420q4 118 28 173q37 87 139 87q31 0 70 -9l34 -10l-10 -111q-37 17 -59 17q-37 0 -51 -39q-9 -25 -12 -108l-15 -420h90v-75h-93q-6 -78 -24 -121q-39 -90 -139 -90q-45 0 -103 21l12 111q37 -19 56 -19q34 0 48 39q5 19 8 59h-112z" />
    <glyph glyph-name="uni0285" unicode="&#x285;" horiz-adv-x="428" 
d="M174 41q-20 26 -25 78l-17 261q-3 46 -12 59q-14 21 -51 21q-28 0 -59 -9l-10 61l34 6q35 4 70 4q101 0 139 -47q24 -30 28 -95l19 -247q1 -43 10 -58q12 -22 48 -22q22 0 56 11l12 -61q-62 -12 -104 -12q-99 0 -138 50z" />
    <glyph glyph-name="uni0287" unicode="&#x287;" horiz-adv-x="333" 
d="M234 237h75v-99h-75v-149h-137v149h-87v99h87v281q0 34 -9 41q-8 8 -50 8q-4 0 -14 -0.5t-14 -0.5v104l66 2q98 4 135 -34q23 -25 23 -74v-327z" />
    <glyph glyph-name="uni0288" unicode="&#x288;" horiz-adv-x="333" 
d="M84 428h-74v99h74v149h138v-149h87v-99h-87v-491q0 -33 8 -41q10 -8 51 -8q19 0 28 1v-104l-66 -3q-99 -3 -135 34q-24 24 -24 74v538z" />
    <glyph glyph-name="uni0289" unicode="&#x289;" horiz-adv-x="749" 
d="M125 283h-99v98h99v151h143v-151h197v151h141v-151h118v-98h-118v-283h-135v75q-1 -1 -5 -7.5t-10.5 -15t-13.5 -13.5q-32 -29 -62 -40t-72 -11q-120 0 -160 85q-23 48 -23 138v72zM279 143q19 -40 75 -40q72 0 97 57q14 33 14 83v40h-197v-72q0 -44 11 -68z" />
    <glyph glyph-name="uni028A" unicode="&#x28a;" horiz-adv-x="577" 
d="M286 109q114 0 114 140q0 64 -13 100q-12 37 -56 78v105h212v-98h-111q92 -69 92 -189q0 -104 -62 -175q-61 -70 -172 -70q-106 0 -172 70t-66 175q0 64 21.5 107t71.5 82h-112v98h213v-105q-44 -40 -58 -78q-12 -37 -12 -100q0 -140 110 -140z" />
    <glyph glyph-name="uni028C" unicode="&#x28c;" horiz-adv-x="556" 
d="M275 393l-113 -393h-150l192 532h147l191 -532h-156z" />
    <glyph glyph-name="uni028D" unicode="&#x28d;" horiz-adv-x="778" 
d="M533 382l-76 -382h-142l-81 383l-83 -383h-145l155 532h143l83 -387l85 387h144l150 -532h-150z" />
    <glyph glyph-name="uni028E" unicode="&#x28e;" horiz-adv-x="556" 
d="M462 746v-112l-17 1q-50 2 -70 -12q-13 -9 -24 -35q-10 -24 -8 -32l196 -556h-155l-116 393l-110 -393h-148l182 523q53 152 84 188q31 37 123 37q5 0 63 -2z" />
    <glyph glyph-name="uni028F" unicode="&#x28f;" horiz-adv-x="499" 
d="M256 300l53 232h170l-150 -331v-201h-151v201l-159 331h177z" />
    <glyph glyph-name="uni0292" unicode="&#x292;" horiz-adv-x="551" 
d="M143 168l178 232h-283v130h483v-110l-147 -154q46 -21 76 -56q67 -43 67 -181q0 -121 -69.5 -182.5t-199.5 -61.5q-129 0 -175 91q-42 59 -46 121h142q5 -43 18 -68q13 -27 62 -27q122 0 122 130q0 61 -14 106q-23 23 -80 30l-1 -1z" />
    <glyph glyph-name="uni0294" unicode="&#x294;" horiz-adv-x="611" 
d="M157 690q58 37 142 37q109 0 183 -53q73 -52 73 -156q0 -63 -32 -107q-19 -27 -71 -67l-35 -27q-28 -22 -37 -51q-6 -19 -6 -266h-132q3 290 15 322q14 33 66 73l35 27q18 14 29 29q19 26 19 59q0 38 -22 67q-21 31 -79 31q-56 0 -80 -38t-24 -77h-141q6 139 97 197z" />
    <glyph glyph-name="uni0295" unicode="&#x295;" horiz-adv-x="611" 
d="M458 690q91 -58 97 -197h-141q0 39 -24 77q-23 38 -80 38q-58 0 -80 -31q-21 -30 -21 -67q0 -31 20 -59q12 -17 28 -29l35 -27q52 -40 66 -73q13 -30 16 -322h-132q-2 248 -7 266q-9 29 -37 51l-35 27q-52 40 -71 67q-32 44 -32 107q0 104 73 156q74 53 183 53
q84 0 142 -37z" />
    <glyph glyph-name="uni0296" unicode="&#x296;" horiz-adv-x="611" 
d="M157 37q-91 58 -97 197h141q0 -42 24 -79t80 -37q58 0 79 30q22 31 22 68q0 34 -19 59q-9 14 -29 29l-35 28q-53 40 -66 72q-12 31 -15 323h132q0 -248 6 -266q9 -29 37 -51l35 -27q53 -41 71 -68q32 -44 32 -107q0 -104 -73 -156t-183 -52q-84 0 -142 37z" />
    <glyph glyph-name="uni0297" unicode="&#x297;" horiz-adv-x="520" 
d="M493 341h-142q-5 32 -20 54q-24 32 -73 32q-71 0 -91 -110q-19 -107 -19 -171q0 -61 19 -165q20 -107 88 -107q46 0 67.5 24t27.5 70h142q-4 -61 -46 -120q-66 -91 -194 -91t-174 108q-46 107 -46 278q0 187 52 294q52 108 170 108q100 0 163 -45q64 -45 76 -159z" />
    <glyph glyph-name="uni0298" unicode="&#x298;" horiz-adv-x="778" 
d="M589 361q0 120 -52 186.5t-142 66.5q-91 0 -143.5 -66.5t-52.5 -186.5q0 -121 52.5 -187.5t143.5 -66.5q90 0 142 66.5t52 187.5zM630 64q-81 -84 -235 -84q-155 0 -236 84q-110 104 -110 297q0 198 110 297q81 84 236 84q154 0 235 -84q109 -99 109 -297
q0 -194 -109 -297zM318 292v146h148v-146h-148z" />
    <glyph glyph-name="uni029A" unicode="&#x29a;" horiz-adv-x="537" 
d="M111 498q62 36 140 36q118 10 185 -65q67 -76 67 -214q0 -122 -61 -198q-60 -77 -189 -69q-86 0 -154 35q-67 34 -67 100q0 48 20.5 85.5t54.5 57.5q-35 18 -51 43t-16 67q0 19 4 50q5 35 67 72zM248 427q-35 4 -60 -8q-27 -13 -27 -47v-9q2 -24 31 -38q29 -13 60 -13
l1 -92q-34 0 -68 -19q-34 -18 -34 -47q0 -70 97 -70h2q68 13 94 81q13 33 13 94q0 62 -13 98q-25 70 -96 70z" />
    <glyph glyph-name="uni029C" unicode="&#x29c;" horiz-adv-x="646" 
d="M224 0h-149v525h149v-185h213v185h149v-525h-149v234h-213v-234z" />
    <glyph glyph-name="uni029E" unicode="&#x29e;" horiz-adv-x="556" 
d="M553 529v-717h-137v388l-173 -200h-173l186 203l-193 326h168l127 -227l58 60v167h137z" />
    <glyph glyph-name="uni029F" unicode="&#x29f;" horiz-adv-x="531" 
d="M76 0v531h151v-402h258v-129h-409z" />
    <glyph glyph-name="uni02A0" unicode="&#x2a0;" horiz-adv-x="611" 
d="M613 702v-111q-16 1 -26 1q-21 0 -31 -10.5t-10 -38.5v-754h-138v277q-39 -83 -157 -83q-92 0 -157 74t-65 197q0 132 65 212q66 80 161 80q67 0 108 -33q23 -18 44 -53v86q0 81 31 119q32 39 125 39q4 0 10.5 -0.5t18.5 -1t21 -0.5zM393 164q19 39 19 103q0 49 -16 87
q-30 69 -105 69q-55 0 -86 -41.5t-31 -121.5q0 -55 15 -91q27 -66 102 -66q71 0 102 61z" />
    <glyph glyph-name="uni02A1" unicode="&#x2a1;" horiz-adv-x="611" 
d="M133 108v74h112q5 121 12 140q14 33 66 73l35 27q18 14 29 29q19 26 19 59q0 38 -22 67q-21 31 -79 31q-56 0 -80 -38t-24 -77h-141q6 139 97 197q58 37 142 37q109 0 183 -53q73 -52 73 -156q0 -63 -32 -107q-19 -27 -71 -67l-35 -27q-28 -22 -37 -51q-3 -8 -5 -84h105
v-74h-106v-108h-132q0 75 1 108h-110z" />
    <glyph glyph-name="uni02A2" unicode="&#x2a2;" horiz-adv-x="611" 
d="M482 182v-74h-110l2 -108h-132q0 77 -1 108h-106v74h105q-2 76 -5 84q-9 29 -37 51l-35 27q-52 40 -71 67q-32 44 -32 107q0 104 73 156q74 53 183 53q84 0 142 -37q91 -58 97 -197h-141q0 39 -24 77q-23 38 -80 38q-58 0 -80 -31q-21 -30 -21 -67q0 -31 20 -59
q12 -17 28 -29l35 -27q52 -40 66 -73q7 -19 12 -140h112z" />
    <glyph glyph-name="uni02A3" unicode="&#x2a3;" horiz-adv-x="1000" 
d="M408 465v254h141v-187h416v-115l-270 -303h279v-114h-560v74q-30 -48 -68 -69.5t-95 -21.5q-93 0 -157 75q-63 76 -63 194q0 136 62 215q63 78 168 78q96 0 147 -80zM412 258q0 98 -49 140q-29 25 -71 25q-58 0 -88 -44t-30 -116q0 -76 29.5 -119t88.5 -43q58 0 89 42.5
t31 114.5zM549 148l239 271h-239v-271z" />
    <glyph glyph-name="uni02A4" unicode="&#x2a4;" horiz-adv-x="1016" 
d="M616 168l178 232h-262v-400h-136v74q-29 -48 -67 -69.5t-95 -21.5q-93 0 -157 75q-64 76 -64 194q0 137 63 215t168 78q95 0 147 -80v254h141v-189h463v-110l-148 -154q46 -21 76 -56q67 -43 67 -181q0 -121 -69.5 -182.5t-199.5 -61.5q-129 0 -175 91q-42 59 -46 121
h143q5 -45 17 -68q14 -27 62 -27q122 0 122 130q0 64 -13 106q-23 22 -81 30v-1zM395 258q0 98 -50 140q-29 25 -70 25q-58 0 -88 -44t-30 -116q0 -76 29.5 -119t87.5 -43t89.5 42.5t31.5 114.5z" />
    <glyph glyph-name="uni02A6" unicode="&#x2a6;" horiz-adv-x="787" 
d="M84 428h-74v99h74v149h138v-149h87v-58q11 15 23 25q59 53 163 53q218 0 234 -177h-139q-3 26 -15 43q-22 28 -78 28q-43 0 -63.5 -13t-20.5 -34q0 -24 20 -35q21 -11 145 -39q85 -20 125 -59q41 -41 41 -100q0 -82 -61 -130.5t-180 -48.5q-125 0 -186 53l-8 8v-48
l-66 -2q-98 -4 -135 34q-24 24 -24 74v327zM258 170h141q4 -37 19 -53q25 -28 96 -28q89 0 89 49q0 24 -20 36t-145 42q-91 23 -127 56q-37 33 -37 96q0 30 11 60h-63v-281q0 -33 8 -41q6 -6 41 -8q-13 32 -13 72z" />
    <glyph glyph-name="uni02A7" unicode="&#x2a7;" horiz-adv-x="607" 
d="M412 -121q-39 -90 -138 -90q-46 0 -103 21l12 111q35 -19 55 -19q36 0 48 39q5 19 8 54l-51 -2q-98 -4 -135 34q-24 24 -24 74v327h-74v99h74v149h138v-149h95q6 97 27 141q38 87 139 87q30 0 69 -9l34 -10l-10 -111q-36 17 -59 17q-37 0 -51 -39q-8 -27 -11 -108
l-18 -474q-5 -94 -25 -142zM222 428v-281q0 -33 8 -41q10 -8 51 -8h13h5l13 330h-90z" />
    <glyph glyph-name="uni02A9" unicode="&#x2a9;" horiz-adv-x="836" 
d="M582 -213v111q6 0 11.5 -0.5t8.5 -1t5 -0.5q21 0 31 11t10 38v55h-3v324q0 40 -11 64q-21 41 -78 41q-71 0 -98 -60q-13 -30 -13 -81v-288h-139v429h-79v-429h-139v429h-78v98h76v35q0 85 29 117q31 48 146 48q29 0 53 -3v-113q-3 0 -8.5 0.5t-14.5 1t-16 0.5
q-48 1 -48 -41v-45h79v4h134v-77q28 42 51 59q44 32 109 32q88 0 138 -45.5t50 -141.5v-415q0 -81 -32 -119q-32 -39 -125 -39q-1 0 -49 2z" />
    <glyph glyph-name="uni02AA" unicode="&#x2aa;" horiz-adv-x="687" 
d="M207 51v-51h-139v720h139v-261q11 17 30 35q59 53 163 53q105 0 165.5 -41.5t69.5 -135.5h-139q-3 27 -16 43q-22 28 -78 28q-42 0 -63 -13.5t-21 -33.5q0 -24 21 -35q19 -10 145 -39q85 -20 124 -59q41 -41 41 -100q0 -82 -60.5 -130.5t-179.5 -48.5q-125 0 -186 53
q-9 7 -16 16zM207 170h98q4 -37 19 -53q25 -28 95 -28q90 0 90 49q0 24 -20 36t-145 42q-91 23 -127 56q-6 4 -10 10v-112z" />
    <glyph glyph-name="uni02AB" unicode="&#x2ab;" horiz-adv-x="667" 
d="M68 0v720h139v-188h415v-115l-270 -303h279v-114h-563zM207 148l238 271h-238v-271z" />
    <glyph glyph-name="uni02AC" unicode="&#x2ac;" horiz-adv-x="443" 
d="M136 86l44 217h81l46 -218l47 218h83l-88 -303h-82l-47 221l-49 -221h-82l-85 303h85zM136 502l44 218h81l46 -219l47 219h83l-88 -303h-82l-47 221l-49 -221h-82l-85 303h85z" />
    <glyph glyph-name="uni02AD" unicode="&#x2ad;" horiz-adv-x="588" 
d="M36 270h521v-270h-77v171h-368v-171h-76v270zM36 675h521v-269h-77v170h-368v-170h-76v269z" />
    <glyph glyph-name="uni02AE" unicode="&#x2ae;" horiz-adv-x="611" 
d="M-1 583v112q15 0 31 0.5t19 0.5q93 0 124 -39q32 -38 32 -118v-9h3v-324q0 -43 14 -69q19 -37 72 -37q113 0 113 142v288h138v-718h-138v255q-56 -83 -154 -83q-105 0 -156 69q-23 30 -27 61q-5 35 -5 103v313h1v6q0 28 -10 38.5t-32 10.5q-2 0 -4.5 -0.5t-8 -1
t-12.5 -0.5z" />
    <glyph glyph-name="uni02AF" unicode="&#x2af;" horiz-adv-x="611" 
d="M614 -102v-111q-48 -2 -50 -2q-92 0 -124 39q-32 38 -32 119v16h-1v108q-56 -83 -154 -83q-105 0 -156 69q-23 30 -27 61q-5 35 -5 103v313h1v6q0 28 -10 38.5t-32 10.5q-2 0 -4.5 -0.5t-8 -1t-12.5 -0.5v112q15 0 31 0.5t19 0.5q93 0 124 -39q32 -38 32 -118v-9h3v-324
q0 -43 14 -69q19 -37 72 -37q113 0 113 142v288h138v-415h2v-170q0 -27 10 -38t32 -11q2 0 5 0.5t8.5 1t11.5 0.5z" />
    <glyph glyph-name="uni02B0" unicode="&#x2b0;" horiz-adv-x="306" 
d="M257 595q11 -14 13.5 -29t2.5 -53v-157h-71v163q0 21 -7 34q-10 19 -36 19q-56 0 -56 -72v-144h-70v359h70v-127q26 41 76 41q53 0 78 -34z" />
    <glyph glyph-name="uni02B1" unicode="&#x2b1;" horiz-adv-x="306" 
d="M136 742v-55h-12q-12 0 -16.5 -5t-4.5 -19v-75q26 41 76 41q53 0 78 -34q11 -14 13.5 -29t2.5 -53v-157h-71v163q0 21 -7 34q-10 19 -36 19q-56 0 -56 -72v-144h-70v308q0 43 17 61t61 18q13 0 25 -1z" />
    <glyph glyph-name="uni02B2" unicode="&#x2b2;" horiz-adv-x="139" 
d="M105 719v-65h-69v65h69zM2 250v55h13q21 0 21 24v293h69v-294q0 -42 -16.5 -60.5t-61.5 -18.5q-1 0 -9 0.5t-16 0.5z" />
    <glyph glyph-name="uni02B3" unicode="&#x2b3;" horiz-adv-x="195" 
d="M187 628v-71q-18 2 -20 2q-42 0 -57 -28q-8 -16 -8 -47v-128h-70v267h66v-47q16 27 28 37q19 16 51 16q3 0 10 -1z" />
    <glyph glyph-name="uni02B4" unicode="&#x2b4;" horiz-adv-x="195" 
d="M32 357v71q4 0 11 -0.5t9 -0.5q43 0 56 28q8 16 8 47v127h70v-266h-66v46q-17 -27 -28 -36q-20 -17 -51 -17q-1 0 -3.5 0.5t-5.5 0.5z" />
    <glyph glyph-name="uni02B5" unicode="&#x2b5;" horiz-adv-x="236" 
d="M220 305v-55q-7 0 -15.5 -0.5t-9.5 -0.5q-44 0 -61 18.5t-17 60.5v77q-13 -22 -25 -32q-20 -17 -51 -17q-1 0 -3.5 0.5t-5.5 0.5v71q4 0 11 -0.5t9 -0.5q43 0 56 28q8 16 8 47v127h70v-215h1v-85q0 -14 4.5 -19t16.5 -5h12z" />
    <glyph glyph-name="uni02B6" unicode="&#x2b6;" horiz-adv-x="378" 
d="M147 408h35q27 0 38 7q23 12 23 46q0 17 -24 28q-13 6 -40 6h-32v-87zM324 379q-30 -36 -97 -36h-185v377h105v-133h24q33 0 46.5 11t14.5 34v35q0 18 4 33q3 14 5 20h115v-10q-11 -6 -14 -21q-2 -12 -2 -35v-26q0 -39 -11 -58.5t-37 -29.5q33 -26 46 -45t13 -45
q0 -39 -27 -71z" />
    <glyph glyph-name="uni02B7" unicode="&#x2b7;" horiz-adv-x="389" 
d="M120 432l38 191h71l40 -192l42 192h72l-77 -267h-72l-41 194l-43 -194h-72l-75 267h75z" />
    <glyph glyph-name="uni02B8" unicode="&#x2b8;" horiz-adv-x="278" 
d="M43 250v55h9q23 -2 35 6q5 3 11 16.5t5 17.5l-98 278h78l58 -197l55 197h74l-92 -262q-25 -76 -42 -94q-15 -18 -61 -18q-16 0 -32 1z" />
    <glyph glyph-name="uni02B9" unicode="&#x2b9;" horiz-adv-x="333" 
d="M179 719h155l-148 -292h-101z" />
    <glyph glyph-name="uni02BA" unicode="&#x2ba;" horiz-adv-x="610" 
d="M179 719h155l-148 -292h-101zM428 719h155l-148 -292h-101z" />
    <glyph glyph-name="uni02BB" unicode="&#x2bb;" horiz-adv-x="278" 
d="M67 452v103q0 142 137 172v-51q-51 -15 -67 -55q-10 -19 -8 -40h77v-129h-139z" />
    <glyph glyph-name="uni02BC" unicode="&#x2bc;" horiz-adv-x="278" 
d="M67 443v51q48 15 66 51q10 21 8 44h-77v128h140v-103q0 -144 -137 -171z" />
    <glyph glyph-name="uni02BD" unicode="&#x2bd;" horiz-adv-x="278" 
d="M201 494v-51q-137 27 -137 171v103h140v-128h-77q-2 -23 8 -44q18 -36 66 -51z" />
    <glyph glyph-name="uni02BE" unicode="&#x2be;" horiz-adv-x="205" 
d="M55 647h-1q24 0 41 17t17 41t-17 41t-41 17v48q44 0 75.5 -31t31.5 -75t-32 -76q-30 -30 -75 -32z" />
    <glyph glyph-name="uni02BF" unicode="&#x2bf;" horiz-adv-x="205" 
d="M161 647h-1l1 -50q-46 2 -76 32q-31 31 -31 76q0 44 31.5 75t75.5 31v-48q-24 0 -41 -17t-17 -41t17 -41t41 -17z" />
    <glyph glyph-name="uni02C0" unicode="&#x2c0;" horiz-adv-x="306" 
d="M79 702q28 18 70 18q58 0 93.5 -27t35.5 -77q0 -32 -16 -54q-9 -12 -36 -34l-17 -13q-15 -11 -19 -26q-3 -9 -3 -133h-66q1 145 8 161q6 16 33 37l17 14q9 6 14 14q10 13 10 30q0 49 -50 49q-26 0 -39 -17.5t-13 -40.5h-71q3 69 49 99z" />
    <glyph glyph-name="uni02C1" unicode="&#x2c1;" horiz-adv-x="306" 
d="M229 702q46 -30 49 -99h-71q0 24 -12.5 41t-39.5 17t-39 -14t-12 -35q0 -17 10 -30q6 -8 14 -14l18 -14q27 -21 33 -37q6 -13 8 -161h-66q0 124 -3 133q-4 15 -19 26l-17 13q-28 22 -36 34q-16 22 -16 54q0 49 35.5 76.5t92.5 27.5q42 0 71 -18z" />
    <glyph glyph-name="uni02C2" unicode="&#x2c2;" horiz-adv-x="292" 
d="M6 458v62l287 109v-67l-205 -73l205 -73v-68z" />
    <glyph glyph-name="uni02C3" unicode="&#x2c3;" horiz-adv-x="292" 
d="M293 520v-62l-287 -110v68l205 73l-205 73v67z" />
    <glyph glyph-name="uni02C4" unicode="&#x2c4;" horiz-adv-x="292" 
d="M119 633h62l110 -288h-68l-73 206l-73 -206h-68z" />
    <glyph glyph-name="uni02C5" unicode="&#x2c5;" horiz-adv-x="292" 
d="M181 345h-62l-110 288h68l73 -206l73 206h68z" />
    <glyph glyph-name="circumflex" unicode="&#x2c6;" horiz-adv-x="259" 
d="M65 723h130l110 -142h-117l-62 81l-64 -81h-107z" />
    <glyph glyph-name="caron" unicode="&#x2c7;" horiz-adv-x="259" 
d="M195 581h-130l-110 142h111l64 -81l65 81h110z" />
    <glyph glyph-name="uni02C8" unicode="&#x2c8;" horiz-adv-x="333" 
d="M131 712h75v-152h-75v152z" />
    <glyph glyph-name="uni02C9" unicode="&#x2c9;" horiz-adv-x="259" 
d="M-47 619v75h353v-75h-353z" />
    <glyph glyph-name="uni02CA" unicode="&#x2ca;" horiz-adv-x="333" 
d="M179 750h155l-148 -146h-101z" />
    <glyph glyph-name="uni02CB" unicode="&#x2cb;" horiz-adv-x="333" 
d="M158 750l94 -146h-101l-148 146h155z" />
    <glyph glyph-name="uni02CC" unicode="&#x2cc;" horiz-adv-x="333" 
d="M131 -69h75v-152h-75v152z" />
    <glyph glyph-name="uni02CD" unicode="&#x2cd;" horiz-adv-x="333" 
d="M-5 -146v74h347v-74h-347z" />
    <glyph glyph-name="uni02CE" unicode="&#x2ce;" horiz-adv-x="333" 
d="M158 -31l94 -146h-101l-148 146h155z" />
    <glyph glyph-name="uni02CF" unicode="&#x2cf;" horiz-adv-x="333" 
d="M179 -31h155l-148 -146h-101z" />
    <glyph glyph-name="uni02D0" unicode="&#x2d0;" horiz-adv-x="208" 
d="M200 0h-187v45l70 142h46l71 -142v-45zM13 529h187v-46l-71 -141h-45l-71 141v46z" />
    <glyph glyph-name="uni02D1" unicode="&#x2d1;" horiz-adv-x="208" 
d="M13 431h187v-45l-71 -142h-45l-71 142v45z" />
    <glyph glyph-name="uni02D2" unicode="&#x2d2;" horiz-adv-x="205" 
d="M55 256h-1q24 0 41 17t17 41t-17 41t-41 17v48q44 0 75.5 -31t31.5 -75t-31.5 -75t-75.5 -32z" />
    <glyph glyph-name="uni02D3" unicode="&#x2d3;" horiz-adv-x="205" 
d="M161 256h-1l1 -49q-44 1 -75.5 32t-31.5 75t31.5 75t75.5 31v-48q-24 0 -41 -17t-17 -41t17 -41t41 -17z" />
    <glyph glyph-name="uni02D4" unicode="&#x2d4;" horiz-adv-x="292" 
d="M118 1h-100v63h100v200h64v-200h100v-63h-100v-1h-64v1z" />
    <glyph glyph-name="uni02D5" unicode="&#x2d5;" horiz-adv-x="292" 
d="M182 263h100v-63h-100v-200h-64v200h-100v63h100v1h64v-1z" />
    <glyph glyph-name="uni02D6" unicode="&#x2d6;" horiz-adv-x="292" 
d="M118 101h-100v63h100v100h64v-100h100v-63h-100v-101h-64v101z" />
    <glyph glyph-name="uni02D7" unicode="&#x2d7;" horiz-adv-x="333" 
d="M23 204v66h280v-66h-280z" />
    <glyph glyph-name="breve" unicode="&#x2d8;" horiz-adv-x="259" 
d="M-38 727h64q5 -36 34.5 -53.5t64.5 -17.5q93 0 110 71h63q-18 -146 -178 -146q-146 0 -158 146z" />
    <glyph glyph-name="dotaccent" unicode="&#x2d9;" horiz-adv-x="259" 
d="M62 739h135v-117h-135v117z" />
    <glyph glyph-name="ring" unicode="&#x2da;" horiz-adv-x="259" 
d="M7 656q0 51 35.5 86.5t86.5 35.5t87 -35.5t36 -86.5t-36 -86.5t-87 -35.5t-86.5 35.5t-35.5 86.5zM66 656q0 -30 17 -50t46 -20t46.5 20t17.5 50t-17.5 50t-46.5 20t-46 -20t-17 -50z" />
    <glyph glyph-name="ogonek" unicode="&#x2db;" horiz-adv-x="259" 
d="M201 22l5 -22q-48 -2 -71.5 -26.5t-23.5 -56.5q0 -29 18.5 -41t40.5 -12q32 0 50 6v-60q-28 -13 -78 -13q-46 0 -80 22.5t-34 71.5q0 61 54 94.5t119 36.5z" />
    <glyph glyph-name="tilde" unicode="&#x2dc;" horiz-adv-x="259" 
d="M201 598q-33 0 -80 24.5t-67 24.5q-33 0 -45 -49h-63q7 51 37.5 90t79.5 39q29 0 76 -21.5t67 -21.5q18 0 28 10t15 33h64q-11 -60 -36 -94.5t-76 -34.5z" />
    <glyph glyph-name="hungarumlaut" unicode="&#x2dd;" horiz-adv-x="259" 
d="M250 581h-99l91 142h157zM43 581h-98l90 142h157z" />
    <glyph glyph-name="uni02DE" unicode="&#x2de;" horiz-adv-x="414" 
d="M274 247q42 -11 75 55q8 -9 27.5 -20.5t26.5 -18.5q-14 -37 -44 -62.5t-69 -27.5q-55 -6 -92 31.5t-37 97.5q-11 -3 -65.5 -18.5t-86.5 -20.5v93q37 12 115 35.5t115 35.5q9 -33 4.5 -69.5t1.5 -70t29 -40.5z" />
    <glyph glyph-name="uni02DF" unicode="&#x2df;" horiz-adv-x="292" 
d="M150 534l84 84l45 -45l-84 -84l84 -84l-45 -46l-84 84l-84 -84l-45 46l84 84l-84 84l45 45z" />
    <glyph glyph-name="uni02E0" unicode="&#x2e0;" horiz-adv-x="278" 
d="M103 258v98l-94 261h77l52 -162h1l53 162h77l-94 -261v-98h-72z" />
    <glyph glyph-name="uni02E1" unicode="&#x2e1;" horiz-adv-x="139" 
d="M104 716v-360h-70v360h70z" />
    <glyph glyph-name="uni02E2" unicode="&#x2e2;" horiz-adv-x="278" 
d="M16 441h70q3 -19 10 -26q14 -14 48 -14q44 0 44 25q0 11 -9 17q-11 8 -73 21q-43 12 -64 29q-18 17 -18 48q0 37 30 63t80 26q110 0 117 -88h-69q-2 15 -8 21q-11 14 -39 14q-42 0 -42 -24q0 -11 11 -17q9 -5 72 -19q43 -11 62 -30q21 -19 21 -50q0 -41 -30.5 -65
t-89.5 -24q-61 0 -92 25t-31 68z" />
    <glyph glyph-name="uni02E3" unicode="&#x2e3;" horiz-adv-x="278" 
d="M91 356h-85l91 135l-87 131h85l45 -77l43 77h83l-87 -129l91 -137h-87l-46 81z" />
    <glyph glyph-name="uni02E4" unicode="&#x2e4;" horiz-adv-x="306" 
d="M229 702q46 -30 49 -99h-71q0 24 -12.5 41t-39.5 17t-39 -14t-12 -35q0 -17 10 -30q6 -8 14 -14l18 -14q27 -21 33 -37q6 -13 8 -161h-66q0 124 -3 133q-4 15 -19 26l-17 13q-28 22 -36 34q-16 22 -16 54q0 49 35.5 76.5t92.5 27.5q42 0 71 -18z" />
    <glyph glyph-name="uni02E5" unicode="&#x2e5;" horiz-adv-x="475" 
d="M445 0h-132v588h-309v132h441v-720z" />
    <glyph glyph-name="uni02E6" unicode="&#x2e6;" horiz-adv-x="470" 
d="M440 0h-131v441h-309v132h309v147h131v-720z" />
    <glyph glyph-name="uni02E7" unicode="&#x2e7;" horiz-adv-x="470" 
d="M440 0h-131v294h-309v132h309v294h131v-720z" />
    <glyph glyph-name="uni02E8" unicode="&#x2e8;" horiz-adv-x="470" 
d="M309 720h131v-720h-131v146h-309v132h309v442z" />
    <glyph glyph-name="uni02E9" unicode="&#x2e9;" horiz-adv-x="475" 
d="M313 720h132v-720h-441v132h309v588z" />
    <glyph glyph-name="uni02EA" unicode="&#x2ea;" horiz-adv-x="296" 
d="M30 0v531h66v-480h199v-51h-265z" />
    <glyph glyph-name="uni02EB" unicode="&#x2eb;" horiz-adv-x="295" 
d="M30 0v531h66v-240h199v-51h-199v-240h-66z" />
    <glyph glyph-name="uni02EC" unicode="&#x2ec;" horiz-adv-x="333" 
d="M231 -177h-125l-114 146h113l64 -83l63 83h114z" />
    <glyph glyph-name="uni02ED" unicode="&#x2ed;" horiz-adv-x="333" 
d="M-5 635v74h347v-74h-347zM-5 489v74h347v-74h-347z" />
    <glyph glyph-name="uni02EE" unicode="&#x2ee;" horiz-adv-x="500" 
d="M307 443v51q50 15 67 56q6 16 6 39h-76v128h139v-103q0 -146 -136 -171zM76 443v51q49 16 67 54q9 19 7 41h-76v128h139v-103q0 -145 -137 -171z" />
    <glyph glyph-name="uni02EF" unicode="&#x2ef;" horiz-adv-x="292" 
d="M181 -241h-62l-110 288h68l73 -206l73 206h68z" />
    <glyph glyph-name="uni02F0" unicode="&#x2f0;" horiz-adv-x="292" 
d="M119 47h62l110 -288h-68l-73 206l-73 -206h-68z" />
    <glyph glyph-name="uni02F1" unicode="&#x2f1;" horiz-adv-x="292" 
d="M6 -128v62l287 109v-67l-205 -73l205 -73v-68z" />
    <glyph glyph-name="uni02F2" unicode="&#x2f2;" horiz-adv-x="292" 
d="M293 -66v-62l-287 -110v68l205 73l-205 73v67z" />
    <glyph glyph-name="uni02F3" unicode="&#x2f3;" horiz-adv-x="333" 
d="M167 -134q23 0 40 16.5t17 40.5t-17 41t-40 17q-24 0 -41.5 -17t-17.5 -41t17.5 -40.5t41.5 -16.5zM167 30q43 0 74 -31q32 -32 32 -76q0 -43 -32 -75q-31 -31 -74 -31q-44 0 -75.5 31t-31.5 75q0 45 31 76t76 31z" />
    <glyph glyph-name="uni02F4" unicode="&#x2f4;" horiz-adv-x="333" 
d="M158 447l94 -146h-101l-148 146h155z" />
    <glyph glyph-name="uni02F5" unicode="&#x2f5;" horiz-adv-x="333" 
d="M148 447l73 -142h-96l-119 142h142zM220 447h142l73 -142h-96z" />
    <glyph glyph-name="uni02F6" unicode="&#x2f6;" horiz-adv-x="333" 
d="M220 305l73 142h142l-119 -142h-96zM79 447h142l-119 -142h-96z" />
    <glyph glyph-name="uni02F7" unicode="&#x2f7;" horiz-adv-x="333" 
d="M153 114l46 -17q33 -11 41 -11q21 0 31 10.5t16 31.5h65q-21 -121 -112 -121q-13 0 -43 8q-3 1 -14 3.5t-16 4.5l-40 14q-14 5 -32 5q-17 0 -30 -11q-12 -11 -17 -31h-63q10 49 28 77q31 46 92 46q21 0 48 -9z" />
    <glyph glyph-name="uni02F8" unicode="&#x2f8;" horiz-adv-x="333" 
d="M113 574v146h148v-146h-148zM113 208v146h148v-146h-148z" />
    <glyph glyph-name="uni02F9" unicode="&#x2f9;" horiz-adv-x="333" 
d="M93 424v298h147v-51h-81v-247h-66z" />
    <glyph glyph-name="uni02FA" unicode="&#x2fa;" horiz-adv-x="333" 
d="M240 722v-298h-66v247h-81v51h147z" />
    <glyph glyph-name="uni02FB" unicode="&#x2fb;" horiz-adv-x="333" 
d="M93 0v298h66v-247h81v-51h-147z" />
    <glyph glyph-name="uni02FC" unicode="&#x2fc;" horiz-adv-x="333" 
d="M240 298v-298h-147v51h81v247h66z" />
    <glyph glyph-name="uni02FD" unicode="&#x2fd;" horiz-adv-x="333" 
d="M316 -1h-298v147h50v-81h197v81h51v-147z" />
    <glyph glyph-name="uni02FE" unicode="&#x2fe;" horiz-adv-x="333" 
d="M316 -1h-298v147h50v-81h197h51v-66z" />
    <glyph glyph-name="uni02FF" unicode="&#x2ff;" horiz-adv-x="595" 
d="M297 3l-288 109l288 110v-74h293v-74h-293v-71z" />
    <glyph glyph-name="gravecmb" unicode="&#x300;" 
d="M-304 785h156l106 -177h-99z" />
    <glyph glyph-name="acutecmb" unicode="&#x301;" 
d="M-98 785h156l-163 -177h-99z" />
    <glyph glyph-name="circumflexcmb" unicode="&#x302;" 
d="M-192 723h130l110 -142h-117l-62 81l-64 -81h-107z" />
    <glyph glyph-name="tildecmb" unicode="&#x303;" 
d="M-56 598q-33 0 -80 24.5t-67 24.5q-33 0 -45 -49h-63q7 51 37.5 90t79.5 39q29 0 76.5 -21.5t66.5 -21.5q18 0 28 10t15 33h64q-11 -60 -36 -94.5t-76 -34.5z" />
    <glyph glyph-name="macroncmb" unicode="&#x304;" 
d="M-313 691h372v-75h-372v75z" />
    <glyph glyph-name="uni0305" unicode="&#x305;" 
d="M-479 635v74h348v-74h-348z" />
    <glyph glyph-name="brevecmb" unicode="&#x306;" 
d="M-295 727h64q5 -36 34.5 -53.5t64.5 -17.5q93 0 110 71h63q-18 -146 -178 -146q-146 0 -158 146z" />
    <glyph glyph-name="dotaccentcmb" unicode="&#x307;" 
d="M-195 739h135v-117h-135v117z" />
    <glyph glyph-name="dieresiscmb" unicode="&#x308;" 
d="M-297 714h134v-117h-134v117zM-92 714h135v-117h-135v117z" />
    <glyph glyph-name="uni0309" unicode="&#x309;" 
d="M-226 640l-2 -43h-61v63q35 3 53.5 16.5t18.5 34.5q0 30 -62 30q-23 0 -38 -4l-3 57q15 5 45 5q129 0 129 -80q0 -59 -80 -79z" />
    <glyph glyph-name="ringcmb" unicode="&#x30a;" 
d="M-250 656q0 51 35.5 86.5t86.5 35.5t87 -35.5t36 -86.5t-36 -86.5t-87 -35.5t-86.5 35.5t-35.5 86.5zM-191 656q0 -30 17 -50t46 -20t46.5 20t17.5 50t-17.5 50t-46.5 20t-46 -20t-17 -50z" />
    <glyph glyph-name="hungarumlautcmb" unicode="&#x30b;" 
d="M-7 581h-99l91 142h157zM-214 581h-98l90 142h157z" />
    <glyph glyph-name="caroncmb" unicode="&#x30c;" 
d="M-62 581h-130l-110 142h111l64 -81l65 81h110z" />
    <glyph glyph-name="uni030D" unicode="&#x30d;" 
d="M-342 712h74v-152h-74v152z" />
    <glyph glyph-name="uni030E" unicode="&#x30e;" 
d="M-423 712h74v-152h-74v152zM-262 712h74v-152h-74v152z" />
    <glyph glyph-name="uni030F" unicode="&#x30f;" 
d="M-377 750l72 -143h-95l-120 143h143zM-305 750h142l73 -143h-96z" />
    <glyph glyph-name="uni0310" unicode="&#x310;" 
d="M-305 604q-156 0 -169 146h66q7 -45 47 -61q23 -9 56 -9t55 9q41 17 47 61h66q-12 -146 -168 -146zM-370 761v115h127v-115h-127z" />
    <glyph glyph-name="uni0311" unicode="&#x311;" 
d="M-305 750q156 0 168 -146h-66q-6 45 -47 62q-22 9 -55 9t-56 -9q-39 -16 -47 -62h-66q13 146 169 146z" />
    <glyph glyph-name="uni0312" unicode="&#x312;" 
d="M-375 452v103q0 142 137 172v-51q-51 -15 -67 -55q-9 -20 -7 -40h76v-129h-139z" />
    <glyph glyph-name="uni0313" unicode="&#x313;" 
d="M-372 443v51q48 15 66 51q10 21 8 44h-77v128h140v-103q0 -144 -137 -171z" />
    <glyph glyph-name="uni0314" unicode="&#x314;" 
d="M-375 624v103h139v-129h-76q-2 -20 7 -40q16 -40 67 -55v-51q-137 26 -137 172z" />
    <glyph glyph-name="uni0315" unicode="&#x315;" 
d="M-372 443v51q48 15 66 51q10 21 8 44h-77v128h140v-103q0 -144 -137 -171z" />
    <glyph glyph-name="uni0316" unicode="&#x316;" 
d="M-274 -31l93 -146h-100l-148 146h155z" />
    <glyph glyph-name="uni0317" unicode="&#x317;" 
d="M-336 -31h155l-148 -146h-101z" />
    <glyph glyph-name="uni0318" unicode="&#x318;" 
d="M-238 -277v100h-199v64h199v100h64v-264h-64z" />
    <glyph glyph-name="uni0319" unicode="&#x319;" 
d="M-373 -177v-100h-64v264h64v-100h199v-64h-199z" />
    <glyph glyph-name="uni031A" unicode="&#x31a;" 
d="M-437 690h264v-178h-64v114h-200v64z" />
    <glyph glyph-name="uni031B" unicode="&#x31b;" 
d="M-479 443l47 27q32 9 65 5q34 -3 77 19l-42 73l126 73l75 -131l-109 -63q-78 -42 -135 -29q-17 4 -44.5 8t-41.5 7.5t-18 10.5z" />
    <glyph glyph-name="uni031C" unicode="&#x31c;" 
d="M-252 -134h-1l1 -50q-44 1 -75 32t-31 75t31 75.5t75 31.5v-49q-24 0 -41 -17t-17 -41t17 -40.5t41 -16.5z" />
    <glyph glyph-name="uni031D" unicode="&#x31d;" 
d="M-437 -212h100v198h64v-198h100v-64h-264v64z" />
    <glyph glyph-name="uni031E" unicode="&#x31e;" 
d="M-337 -78h-100v64h264v-64h-100v-198h-64v198z" />
    <glyph glyph-name="uni031F" unicode="&#x31f;" 
d="M-337 -176h-100v64h100v100h64v-100h100v-64h-100v-100h-64v100z" />
    <glyph glyph-name="uni0320" unicode="&#x320;" 
d="M-479 -146v74h348v-74h-348z" />
    <glyph glyph-name="uni0321" unicode="&#x321;" 
d="M-356 -248v56q7 -1 12 -1q12 0 16.5 5t4.5 19v180h70v-181q0 -42 -17 -60.5t-62 -18.5q-12 0 -24 1z" />
    <glyph glyph-name="uni0322" unicode="&#x322;" 
d="M-253 -192v-56q-13 -1 -25 -1q-45 0 -61.5 18.5t-16.5 60.5v181h69v-180q0 -24 21 -24q5 0 13 1z" />
    <glyph glyph-name="uni0323" unicode="&#x323;" 
d="M-369 -200v116h127v-116h-127z" />
    <glyph glyph-name="uni0324" unicode="&#x324;" 
d="M-271 -168v116h127v-116h-127zM-466 -168v116h127v-116h-127z" />
    <glyph glyph-name="uni0325" unicode="&#x325;" 
d="M-305 -134q24 0 40.5 16.5t16.5 40.5t-16.5 41t-40.5 17t-41 -17t-17 -41t17 -40.5t41 -16.5zM-305 30q44 0 75 -31.5t31 -75.5t-31 -75t-75 -31t-75.5 31t-31.5 75t32 76q31 31 75 31z" />
    <glyph glyph-name="uni0326" unicode="&#x326;" 
d="M-372 -338v51q48 15 66 51q10 20 8 44h-77v128h140v-103q0 -146 -137 -171z" />
    <glyph glyph-name="cedillacmb" unicode="&#x327;" 
d="M-224 -147q42 -18 84 -18q40 0 40 34q0 32 -40 32q-23 0 -40 -7l-21 24l59 84h49l-39 -54h2q13 5 34 5q37 0 64.5 -18t27.5 -52q0 -100 -117 -100q-64 0 -124 22z" />
    <glyph glyph-name="ogonekcmb" unicode="&#x328;" 
d="M-56 22l5 -22q-48 -2 -71.5 -26.5t-23.5 -56.5q0 -29 18.5 -41t40.5 -12q32 0 50 6v-60q-28 -13 -78 -13q-46 0 -80 22.5t-34 71.5q0 61 54 94.5t119 36.5z" />
    <glyph glyph-name="uni0329" unicode="&#x329;" 
d="M-342 -69h74v-152h-74v152z" />
    <glyph glyph-name="uni032A" unicode="&#x32a;" 
d="M-479 0h348v-147h-51v81h-246v-81h-51v147z" />
    <glyph glyph-name="uni032B" unicode="&#x32b;" 
d="M-439 -177q-157 0 -169 146h66q7 -45 47 -61q21 -10 56 -10q34 0 55 10q37 14 41 36q4 19 4 25h68q0 -6 4 -25q5 -23 40 -36q21 -10 56 -10t56 10q40 16 47 61h66q-8 -76 -50 -110q-44 -36 -119 -36t-119 36l-15 15l-16 -15q-43 -36 -118 -36z" />
    <glyph glyph-name="uni032C" unicode="&#x32c;" 
d="M-242 -177h-125l-115 146h113l64 -83l64 83h113z" />
    <glyph glyph-name="uni032D" unicode="&#x32d;" 
d="M-242 -31l114 -146h-113l-64 82l-64 -82h-113l115 146h125z" />
    <glyph glyph-name="uni032E" unicode="&#x32e;" 
d="M-305 -177q-156 0 -169 146h66q7 -45 47 -61q21 -10 56 -10q34 0 55 10q41 17 47 61h66q-12 -146 -168 -146z" />
    <glyph glyph-name="uni032F" unicode="&#x32f;" 
d="M-305 -31q156 0 168 -146h-66q-6 44 -47 61q-21 10 -55 10q-35 0 -56 -10q-40 -16 -47 -61h-66q13 146 169 146z" />
    <glyph glyph-name="uni0330" unicode="&#x330;" 
d="M-320 -57l46 -17q33 -11 41 -11q37 0 46 42h65q-20 -121 -111 -121q-13 0 -43 8l-31 9l-39 13q-14 5 -32 5q-17 0 -30 -11t-17 -30h-63q11 52 28 76q31 46 92 46q21 0 48 -9z" />
    <glyph glyph-name="uni0331" unicode="&#x331;" 
d="M-459 -146v74h308v-74h-308z" />
    <glyph glyph-name="uni0332" unicode="&#x332;" 
d="M-479 -146v74h348v-74h-348z" />
    <glyph glyph-name="uni0333" unicode="&#x333;" 
d="M-479 -146v74h348v-74h-348zM-479 -292v74h348v-74h-348z" />
    <glyph glyph-name="uni0334" unicode="&#x334;" 
d="M-320 333l46 -17q34 -10 41 -10q37 0 46 42h65q-19 -121 -111 -121q-16 0 -43 7l-31 9l-39 13q-16 6 -32 6q-17 0 -30 -11q-12 -11 -17 -31h-63q11 51 28 76q32 47 92 47q24 0 48 -10z" />
    <glyph glyph-name="uni0335" unicode="&#x335;" 
d="M-479 245v74h348v-74h-348z" />
    <glyph glyph-name="uni0336" unicode="&#x336;" 
d="M-479 245v74h348v-74h-348z" />
    <glyph glyph-name="uni0337" unicode="&#x337;" 
d="M-502 171l278 371h116l-280 -371h-114z" />
    <glyph glyph-name="soliduslongoverlaycmb" unicode="&#x338;" 
d="M-101 731h114l-279 -747h-113z" />
    <glyph glyph-name="uni0339" unicode="&#x339;" 
d="M-357 -134h-1q24 0 40.5 16.5t16.5 40.5t-16.5 41t-40.5 17v49q44 0 75 -31.5t31 -75.5t-31 -75t-75 -32z" />
    <glyph glyph-name="uni033A" unicode="&#x33a;" 
d="M-131 -147h-348v147h51v-82h246v82h51v-147z" />
    <glyph glyph-name="uni033B" unicode="&#x33b;" 
d="M-444 -289v279h278v-279h-278zM-378 -238h147v177h-147v-177z" />
    <glyph glyph-name="uni033C" unicode="&#x33c;" 
d="M-171 -31q75 0 120 -97l-64 12q-21 10 -56 10t-56 -10q-35 -13 -40 -35q-4 -20 -4 -26h-68q0 6 -4 26q-5 21 -41 35q-21 10 -55 10q-35 0 -56 -10l-64 -12q43 97 120 97q75 0 118 -36l16 -15l15 15q44 36 119 36z" />
    <glyph glyph-name="uni033D" unicode="&#x33d;" 
d="M-305 729l84 84l45 -45l-84 -84l84 -84l-45 -46l-84 85l-84 -85l-45 46l84 84l-84 84l45 45z" />
    <glyph glyph-name="uni033E" unicode="&#x33e;" 
d="M-337 644l-17 45q-10 24 -10 48q0 61 47 93q26 17 76 27v-63q-20 -5 -31 -17q-11 -11 -11 -30q0 -14 6 -32l13 -39l9 -31q7 -27 7 -43q0 -90 -121 -111v65q42 9 42 47q0 6 -10 41z" />
    <glyph glyph-name="uni033F" unicode="&#x33f;" 
d="M-479 635v74h348v-74h-348zM-479 489v74h348v-74h-348z" />
    <glyph glyph-name="uni0340" unicode="&#x340;" 
d="M-274 750l93 -146h-100l-148 146h155z" />
    <glyph glyph-name="uni0341" unicode="&#x341;" 
d="M-336 750h155l-148 -146h-101z" />
    <glyph glyph-name="uni0342" unicode="&#x342;" 
d="M-305 750q156 0 168 -146h-66q-6 45 -47 62q-22 9 -55 9t-56 -9q-39 -16 -47 -62h-66q13 146 169 146z" />
    <glyph glyph-name="uni0343" unicode="&#x343;" 
d="M-372 443v51q48 15 66 51q10 21 8 44h-77v128h140v-103q0 -144 -137 -171z" />
    <glyph glyph-name="uni0344" unicode="&#x344;" 
d="M-482 621v90h89v-90h-89zM-218 621v90h91v-90h-91zM-380 620l65 135h119l-115 -135h-69z" />
    <glyph glyph-name="uni0345" unicode="&#x345;" 
d="M-340 -313v262h70v-262h-70z" />
    <glyph glyph-name="uni0346" unicode="&#x346;" 
d="M-479 781h348v-147h-51v81h-246v-81h-51v147z" />
    <glyph glyph-name="uni0347" unicode="&#x347;" 
d="M-459 -146v74h308v-74h-308zM-459 -292v74h308v-74h-308z" />
    <glyph glyph-name="uni0348" unicode="&#x348;" 
d="M-423 -69h74v-152h-74v152zM-262 -69h74v-152h-74v152z" />
    <glyph glyph-name="uni0349" unicode="&#x349;" 
d="M-377 0h145v-147h-51v81h-94v66z" />
    <glyph glyph-name="uni034A" unicode="&#x34a;" 
d="M-282 598l-48 17l28 73q-22 9 -39 9q-45 0 -52 -44h-49q4 49 30 80.5t73 31.5q23 0 59 -17l23 61l47 -16l-24 -67q21 -8 39 -8q48 0 54 50h52q-4 -50 -30 -84.5t-74 -34.5q-30 0 -64 16z" />
    <glyph glyph-name="uni034B" unicode="&#x34b;" 
d="M-259 814q0 20 14 33.5t33 13.5t32.5 -13.5t13.5 -33.5t-13.5 -33t-32.5 -13t-33 13t-14 33zM-371 600q0 20 14 33.5t33 13.5t32.5 -13.5t13.5 -33.5t-13.5 -33t-32.5 -13t-33 13t-14 33zM-195 718q48 0 54 50h52q-4 -50 -30 -84.5t-74 -34.5q-33 0 -85 27q-38 21 -63 21
q-45 0 -52 -44h-49q4 49 30 80.5t73 31.5q25 0 77 -26q44 -21 67 -21z" />
    <glyph glyph-name="uni034C" unicode="&#x34c;" 
d="M-195 782q47 0 54 49h52q-4 -50 -30 -84t-74 -34q-33 0 -85 27q-36 20 -63 20q-45 0 -52 -44h-49q12 112 103 112q27 0 77 -25q44 -21 67 -21zM-195 655q48 0 54 50h52q-4 -50 -30 -84.5t-74 -34.5q-33 0 -85 27q-38 21 -63 21q-45 0 -52 -44h-49q4 49 30 80.5t73 31.5
q25 0 77 -26q44 -21 67 -21z" />
    <glyph glyph-name="uni034D" unicode="&#x34d;" 
d="M-454 -241l-288 109l288 110v-74l298 3v71l288 -110l-288 -109v74l-298 -3v-71z" />
    <glyph glyph-name="uni034E" unicode="&#x34e;" 
d="M-415 -178l110 141l109 -141h-74v-98h-74v98h-71z" />
    <glyph glyph-name="uni034F" unicode="&#x34f;" 
 />
    <glyph glyph-name="uni0350" unicode="&#x350;" 
d="M-161 520v-62l-288 -110v68l206 73l-206 73v67z" />
    <glyph glyph-name="uni0351" unicode="&#x351;" 
d="M-252 647h-1l1 -50q-44 1 -75 32.5t-31 75.5t31 75t75 31v-48q-24 0 -41 -17t-17 -41t17 -41t41 -17z" />
    <glyph glyph-name="uni0352" unicode="&#x352;" 
d="M-305 877q156 0 168 -146h-66q-6 44 -47 61q-21 10 -55 10q-35 0 -56 -10q-40 -16 -47 -61h-66q13 146 169 146zM-370 605v116h127v-116h-127z" />
    <glyph glyph-name="uni0353" unicode="&#x353;" 
d="M-305 -52l84 84l45 -45l-84 -84l84 -84l-45 -46l-84 84l-84 -84l-45 46l84 84l-84 84l45 45z" />
    <glyph glyph-name="uni0354" unicode="&#x354;" 
d="M-449 -128v62l288 109v-67l-206 -73l206 -73v-68z" />
    <glyph glyph-name="uni0355" unicode="&#x355;" 
d="M-161 -66v-62l-288 -110v68l206 73l-206 73v67z" />
    <glyph glyph-name="uni0356" unicode="&#x356;" 
d="M-299 -66v-62l-287 -110v68l205 73l-205 73v67zM-195 47h62l110 -288h-68l-73 206l-73 -206h-68z" />
    <glyph glyph-name="uni0357" unicode="&#x357;" 
d="M-357 647h-1q24 0 40.5 17t16.5 41t-16.5 41t-40.5 17v48q44 0 75 -31t31 -75t-31 -75.5t-75 -32.5z" />
    <glyph glyph-name="uni0358" unicode="&#x358;" 
d="M-222 613v116h127v-116h-127z" />
    <glyph glyph-name="uni0359" unicode="&#x359;" 
d="M-465 -170l23 72l102 -33v118h84v-118l102 33l23 -72l-104 -33l68 -97l-62 -44l-68 92l-70 -92l-63 44l69 97z" />
    <glyph glyph-name="uni035A" unicode="&#x35a;" 
d="M-386 30q44 0 75 -31l6 -6q1 2 5 6q31 31 75 31q45 0 76 -31t31 -76q0 -44 -31.5 -75t-75.5 -31t-75 31q-4 4 -5 6l-6 -6q-31 -31 -75 -31t-75 31t-31 75t31 75.5t75 31.5zM-386 -134q24 0 41 17q10 10 15 25q-1 5 -1 15q0 11 1 16q-3 15 -15 25q-17 17 -41 17t-41 -17
t-17 -41t17 -40.5t41 -16.5zM-225 -134q24 0 41 16.5t17 40.5t-17 41t-41 17t-41 -17q-9 -9 -14 -24q1 -5 1 -17q0 -11 -1 -16q5 -15 14 -24q17 -17 41 -17z" />
    <glyph glyph-name="uni035B" unicode="&#x35b;" 
d="M-319 615l66 114l-163 -1l-38 38l113 162l41 -40l-75 -99l159 3l41 -40l-104 -177z" />
    <glyph glyph-name="uni035C" unicode="&#x35c;" 
d="M-587 -213q-82 35 -137 75l-48 35l1 80q128 -69 196 -92q121 -41 268 -41q98 0 177 16q126 24 237 85l55 31v-83q-113 -82 -214 -121q-120 -49 -246 -49q-143 0 -289 64z" />
    <glyph glyph-name="uni035D" unicode="&#x35d;" 
d="M-587 592q-79 34 -137 76l-48 35l1 80q125 -68 196 -93q119 -40 268 -40q98 0 177 16q122 22 237 85l55 30v-82q-113 -82 -214 -121q-120 -49 -246 -49q-142 0 -289 63z" />
    <glyph glyph-name="uni035E" unicode="&#x35e;" 
d="M-826 635v74h1042v-74h-1042z" />
    <glyph glyph-name="uni035F" unicode="&#x35f;" 
d="M-767 -146v74h924v-74h-924z" />
    <glyph glyph-name="uni0360" unicode="&#x360;" 
d="M-351 730l138 -26l80 -13q20 -3 43 -3q70 0 98 19q29 20 42 44h195q-25 -77 -105 -129q-77 -52 -229 -52q-41 0 -129 11q-60 8 -92 13l-119 20q-38 8 -95 8q-58 0 -91 -16q-34 -16 -50 -46h-190q31 75 84 114q92 70 278 70q72 0 142 -14z" />
    <glyph glyph-name="uni0361" unicode="&#x361;" 
d="M-23 719q82 -35 137 -75l48 -35l-1 -80q-128 69 -196 92q-121 41 -269 41q-97 0 -176 -16q-126 -24 -237 -85l-55 -31v83q107 78 213 121q122 49 246 49q144 0 290 -64z" />
    <glyph glyph-name="uni0362" unicode="&#x362;" 
d="M105 222l288 -110l-288 -109v74h-1123v74h1123v71z" />
    <glyph glyph-name="uni0363" unicode="&#x363;" 
d="M-265 592v26q-14 -9 -32 -12l-16 -2q-22 -5 -31 -10q-16 -10 -16 -30q0 -33 34 -33q25 0 42.5 14.5t18.5 46.5zM-331 647l24 3q19 3 27 6q15 8 15 20q0 29 -45 29q-24 0 -34 -12q-9 -10 -10 -25h-67q1 34 19 58q29 35 95 35q42 0 78 -17q34 -18 34 -66v-122v-31
q1 -20 14 -26v-11h-75q-6 17 -7 32q-13 -16 -33 -27q-22 -13 -51 -13q-37 0 -60 21t-23 58q0 48 38 71q22 13 61 17z" />
    <glyph glyph-name="uni0364" unicode="&#x364;" 
d="M-359 648h108q-2 27 -17 41.5t-37 14.5q-48 0 -54 -56zM-202 710q17 -24 21 -55q2 -24 2 -53h-182q1 -40 25 -56q13 -10 35 -10q21 0 34 12q9 9 14 18h70q-2 -23 -24 -47q-34 -40 -96 -40q-55 0 -91.5 35t-36.5 105q0 68 34.5 105.5t91.5 37.5q70 0 103 -52z" />
    <glyph glyph-name="uni0365" unicode="&#x365;" 
d="M-270 851v-65h-70v65h70zM-340 488v266h70v-266h-70z" />
    <glyph glyph-name="uni0366" unicode="&#x366;" 
d="M-242 621q0 83 -63 83q-30 0 -47 -21.5t-17 -61.5t17 -61.5t47 -21.5q63 0 63 83zM-305 479q-66 0 -101 40t-35 102q0 61 35 101.5t101 40.5t101 -40.5t35 -101.5q0 -62 -35 -102t-101 -40z" />
    <glyph glyph-name="uni0367" unicode="&#x367;" 
d="M-425 754h71v-160q0 -22 5 -34q11 -20 37 -20q36 0 49 28q7 15 7 42v144h71v-266h-68v38l-2 -3q-2 -3 -5.5 -7.5t-6.5 -7.5q-27 -26 -67 -26q-61 0 -80 43q-11 24 -11 69v160z" />
    <glyph glyph-name="uni0368" unicode="&#x368;" 
d="M-183 659h-71q-1 13 -10 27q-10 16 -36 16q-34 0 -48 -35q-7 -18 -7 -49q0 -32 7 -47q12 -33 47 -33q42 0 47 47h71q-3 -31 -23 -60q-33 -46 -97 -46q-62 0 -93.5 37t-31.5 100q0 69 33.5 107t92.5 38q110 0 119 -102z" />
    <glyph glyph-name="uni0369" unicode="&#x369;" 
d="M-246 721v127h71v-360h-68v37q-28 -45 -81 -45q-48 0 -79.5 38t-31.5 97q0 68 31.5 107t84.5 39q47 0 73 -40zM-244 618q0 50 -25 69q-14 13 -35 13q-29 0 -44 -22.5t-15 -57.5q0 -81 59 -81q29 0 44.5 21.5t15.5 57.5z" />
    <glyph glyph-name="uni036A" unicode="&#x36a;" 
d="M-201 727q11 -14 13.5 -29t2.5 -53v-157h-71v162q0 22 -7 35q-10 19 -36 19q-56 0 -56 -72v-144h-70v359h70v-127q26 41 76 41q53 0 78 -34z" />
    <glyph glyph-name="uni036B" unicode="&#x36b;" 
d="M-132 729q11 -14 15 -34q3 -13 3 -39l-1 -168h-71v170q0 13 -5 25q-9 18 -34 18q-29 0 -40 -24q-6 -12 -6 -30v-159h-69v159q0 22 -5 34q-9 20 -35 20q-29 0 -40 -20q-5 -12 -5 -33v-160h-71v266h68v-39q12 21 24 30q20 15 52 15q31 0 50 -13q16 -15 23 -32q14 24 34 35
q20 10 48 10q40 0 65 -31z" />
    <glyph glyph-name="uni036C" unicode="&#x36c;" 
d="M-228 760v-71q-8 1 -20 1q-42 0 -56 -27q-8 -18 -8 -47v-128h-70v266h66v-46q16 27 28 37q19 16 51 16q4 0 9 -1z" />
    <glyph glyph-name="uni036D" unicode="&#x36d;" 
d="M-342 703h-37v49h37v74h69v-74h43v-49h-43v-141q0 -17 4 -20.5t25 -3.5h14v-52l-33 -2q-50 -2 -68 18q-11 13 -11 37v164z" />
    <glyph glyph-name="uni036E" unicode="&#x36e;" 
d="M-304 558l57 196h75l-97 -266h-73l-96 266h79z" />
    <glyph glyph-name="uni036F" unicode="&#x36f;" 
d="M-352 488h-85l91 135l-87 131h86l44 -77l44 77h82l-87 -129l91 -137h-87l-46 80z" />
    <glyph glyph-name="uni0374" unicode="&#x374;" horiz-adv-x="278" 
d="M249 732l-94 -171h-102l43 171h153z" />
    <glyph glyph-name="uni0375" unicode="&#x375;" horiz-adv-x="278" 
d="M26 -203l89 171h102l-38 -171h-153z" />
    <glyph glyph-name="uni037A" unicode="&#x37a;" horiz-adv-x="139" 
d="M34 -313v262h70v-262h-70z" />
    <glyph glyph-name="uni037B" unicode="&#x37b;" horiz-adv-x="556" 
d="M177 341h-142q11 114 75 159t164 45q118 0 184.5 -76t66.5 -214q0 -122 -61 -198q-60 -76 -188 -76q-129 0 -194 92q-42 57 -46 120h142q6 -46 27.5 -70.5t66.5 -24.5q69 0 94 67q14 36 14 94q0 59 -14 98q-25 70 -96 70q-49 0 -73 -32q-15 -22 -20 -54z" />
    <glyph glyph-name="uni037C" unicode="&#x37c;" horiz-adv-x="556" 
d="M525 341h-142q-5 32 -20 54q-24 32 -73 32q-71 0 -96 -70q-14 -39 -14 -98q0 -58 14 -94q25 -67 94 -67q45 0 66.5 24.5t27.5 70.5h142q-4 -63 -46 -120q-65 -92 -194 -92q-128 0 -189 76q-60 77 -60 198q0 138 66.5 214t184.5 76q100 0 164 -45t75 -159zM237 207v122
h104v-122h-104z" />
    </font>
</defs>
</svg>
